<svg width="263" height="263" viewBox="0 0 263 263" fill="none" xmlns="http://www.w3.org/2000/svg">
<path d="M124.086 1.03907C123.375 1.58594 121.789 4.04688 120.586 6.50782C119.109 9.57032 118.07 11.0469 117.305 11.2109C116.703 11.3203 114.242 11.7031 111.836 12.0859C106.477 12.7969 105 13.8906 105 17.1719C105 19.1953 105.383 19.7422 109.047 23.5156L113.094 27.6172L112.383 31.4453C111.234 37.2422 111.344 39.5391 112.82 40.9063C114.734 42.7109 117.195 42.4375 122.391 39.7031L126.875 37.3516L131.414 39.7031C136.664 42.4922 139.18 42.7656 140.984 40.8516C142.406 39.3203 142.516 37.0781 141.367 31.4453L140.656 27.6172L144.703 23.5156C148.367 19.7422 148.75 19.1953 148.75 17.1719C148.75 13.8906 147.273 12.7969 141.914 12.0859C139.508 11.7031 137.047 11.3203 136.445 11.2109C135.68 11.0469 134.641 9.57032 133.164 6.50782C131.961 4.04688 130.375 1.58594 129.664 1.03907C128.023 -0.273431 125.727 -0.273431 124.086 1.03907ZM128.188 17.5C128.844 18.7031 129.828 19.3594 131.523 19.7969L133.93 20.4531L132.562 22.0391C131.578 23.2422 131.25 24.2266 131.25 26.3047V29.0391L129.609 28.1641C128.734 27.7266 127.531 27.3438 126.875 27.3438C126.219 27.3438 125.016 27.7266 124.141 28.1641L122.5 29.0391V26.3047C122.5 24.2266 122.172 23.2422 121.188 22.0391L119.82 20.4531L122.227 19.7969C123.922 19.3594 124.906 18.7031 125.562 17.5C126.109 16.625 126.711 15.8594 126.875 15.8594C127.039 15.8594 127.641 16.625 128.188 17.5Z" fill="#9D4DDB"/>
<path d="M237.344 1.09375C236.031 2.40625 235.867 5.85156 237.016 7.4375C237.617 8.25781 238.656 8.53125 241.992 8.75L246.148 9.02344L222.578 30.7344L199.008 52.5H192.5C184.844 52.5 183.75 53.0469 183.75 56.875C183.75 58.3516 184.133 59.4453 184.844 60.1562C185.828 61.1406 186.648 61.25 194.742 61.25H203.492L210.164 55.0703C213.828 51.6797 225.094 41.2891 235.156 31.9922L253.477 15.0391L253.75 19.9062C253.969 23.8438 254.242 24.8281 255.062 25.4844C256.648 26.6328 260.094 26.4688 261.406 25.1562C262.445 24.1172 262.5 23.3516 262.5 13.125C262.5 2.89844 262.445 2.13281 261.406 1.09375C260.367 0.0546875 259.602 0 249.375 0C239.148 0 238.383 0.0546875 237.344 1.09375Z" fill="#9D4DDB"/>
<path d="M71.5859 22.9141C70.875 23.4609 69.2891 25.9219 68.0859 28.3828C66.6094 31.4453 65.5703 32.9219 64.8047 33.0859C64.2031 33.1953 61.7422 33.5781 59.3359 33.9609C53.9766 34.6719 52.5 35.7656 52.5 38.9922C52.5 40.9062 52.8828 41.5625 56.5469 45.3359L60.5938 49.4922L59.8281 53.3203C58.7344 59.1172 58.8438 61.4141 60.3203 62.7812C62.2344 64.5859 64.6953 64.3125 69.8906 61.5781L74.375 59.2266L78.9141 61.5781C84.1641 64.3672 86.6797 64.6406 88.4844 62.7266C89.9062 61.1953 90.0156 58.9531 88.8672 53.3203L88.1562 49.4922L92.2031 45.3906C95.8672 41.6172 96.25 41.0703 96.25 39.0469C96.25 35.7656 94.7734 34.6719 89.4141 33.9609C87.0078 33.5781 84.5469 33.1953 83.9453 33.0859C83.1797 32.9219 82.1406 31.4453 80.6641 28.3828C79.4609 25.9219 77.875 23.4609 77.1641 22.9141C75.5234 21.6016 73.2266 21.6016 71.5859 22.9141ZM75.6875 39.375C76.3438 40.5781 77.3281 41.2344 79.0234 41.6719L81.4297 42.3281L80.0625 43.9141C79.0781 45.1172 78.75 46.1016 78.75 48.1797V50.9141L77.1094 50.0391C76.2344 49.6016 75.0312 49.2187 74.375 49.2187C73.7188 49.2187 72.5156 49.6016 71.6406 50.0391L70 50.9141V48.1797C70 46.1016 69.6719 45.1172 68.6875 43.9141L67.3203 42.3281L69.7266 41.6719C71.4219 41.2344 72.4062 40.5781 73.0625 39.375C73.6094 38.5 74.2109 37.7344 74.375 37.7344C74.5391 37.7344 75.1406 38.5 75.6875 39.375Z" fill="#9D4DDB"/>
<path d="M19.0859 44.7891C18.375 45.3359 16.7891 47.7969 15.5859 50.2578C14.1094 53.3203 13.0703 54.7969 12.3047 54.9609C11.7031 55.0703 9.24219 55.4531 6.83594 55.8359C1.47656 56.5469 0 57.6406 0 60.9219C0 62.9453 0.382812 63.4922 4.04688 67.2656L8.09375 71.3672L7.38281 75.1953C6.23438 80.9922 6.34375 83.2891 7.82031 84.6562C9.73438 86.4609 12.1953 86.1875 17.3906 83.4531L21.875 81.1016L26.4141 83.4531C31.6641 86.2422 34.1797 86.5156 35.9844 84.6016C37.4062 83.0703 37.5156 80.8281 36.3672 75.1953L35.6562 71.3672L39.7031 67.2656C43.3672 63.4922 43.75 62.9453 43.75 60.9219C43.75 57.6406 42.2734 56.5469 36.9141 55.8359C34.5078 55.4531 32.0469 55.0703 31.4453 54.9609C30.6797 54.7969 29.6406 53.3203 28.1641 50.2578C26.9609 47.7969 25.375 45.3359 24.6641 44.7891C23.0234 43.4766 20.7266 43.4766 19.0859 44.7891ZM22.9688 60.9766C23.8984 62.4531 24.7734 63.1094 26.5234 63.5469L28.9297 64.2031L27.5625 65.7891C26.5781 66.9922 26.25 67.9766 26.25 70.0547V72.7891L24.6094 71.9141C23.7344 71.4766 22.5312 71.0937 21.875 71.0937C21.2188 71.0937 20.0156 71.4766 19.1406 71.9141L17.5 72.7891V70.0547C17.5 67.9766 17.1719 66.9922 16.1875 65.7891L14.875 64.3125L17.3906 63.4375C19.25 62.8359 20.125 62.1797 20.7266 60.8672C21.2188 59.8828 21.6562 59.0625 21.7109 59.0625C21.7656 59.0625 22.3125 59.9375 22.9688 60.9766Z" fill="#9D4DDB"/>
<path d="M135.352 67.8125L120.039 83.125H91.7109C64.1484 83.125 63.3828 83.1797 62.3438 84.2188C61.6328 84.9297 61.25 86.0234 61.25 87.5C61.25 88.9766 61.6328 90.0703 62.3438 90.7812C63.4375 91.875 64.1484 91.875 94.1719 91.875H124.906L140.273 76.5625L155.586 61.25H164.227C172.102 61.25 172.922 61.1406 173.906 60.1562C174.617 59.4453 175 58.3516 175 56.875C175 55.3984 174.617 54.3047 173.906 53.5938C172.867 52.5547 172.102 52.5 161.766 52.5H150.719L135.352 67.8125Z" fill="#9D4DDB"/>
<path d="M224.219 53.5938C223.125 54.6875 223.125 55.3984 223.125 135.625C223.125 215.852 223.125 216.562 224.219 217.656C225.258 218.695 226.023 218.75 240.625 218.75C255.227 218.75 255.992 218.695 257.031 217.656C258.07 216.617 258.125 215.852 258.125 190.312C258.125 164.773 258.07 164.008 257.031 162.969C255.555 161.492 251.945 161.492 250.469 162.969C249.43 164.008 249.375 164.773 249.375 187.031V210H231.875V61.25H249.375V106.094C249.375 150.227 249.375 150.938 250.469 152.031C251.18 152.742 252.273 153.125 253.75 153.125C255.227 153.125 256.32 152.742 257.031 152.031C258.125 150.938 258.125 150.227 258.125 102.812C258.125 55.3984 258.125 54.6875 257.031 53.5938C255.992 52.5547 255.227 52.5 240.625 52.5C226.023 52.5 225.258 52.5547 224.219 53.5938Z" fill="#9D4DDB"/>
<path d="M176.094 75.4688C175 76.5625 175 77.2734 175 111.562C175 145.852 175 146.562 176.094 147.656C177.133 148.695 177.898 148.75 192.5 148.75C207.102 148.75 207.867 148.695 208.906 147.656C209.945 146.617 210 145.852 210 135.625C210 125.398 209.945 124.633 208.906 123.594C208.195 122.883 207.102 122.5 205.625 122.5C204.148 122.5 203.055 122.883 202.344 123.594C201.359 124.578 201.25 125.398 201.25 132.344V140H183.75V83.125H201.25V97.3438C201.25 110.852 201.305 111.617 202.344 112.656C203.055 113.367 204.148 113.75 205.625 113.75C207.102 113.75 208.195 113.367 208.906 112.656C209.945 111.617 210 110.852 210 94.0625C210 77.2734 209.945 76.5078 208.906 75.4688C207.867 74.4297 207.102 74.375 192.5 74.375C177.898 74.375 177.133 74.4297 176.094 75.4688Z" fill="#9D4DDB"/>
<path d="M37.1875 106.094C21.7656 110.086 9.35156 122.555 5.46875 138.031C3.28125 146.672 4.21094 157.664 7.82031 165.758C9.89844 170.516 12.9609 171.883 16.0781 169.477C17.8281 168.109 17.9922 164.992 16.4609 161.984C13.0156 155.258 12.7422 144.211 15.75 136.445C18.8672 128.516 25.4297 121.406 33.0312 117.633C40.0312 114.188 40.5781 114.133 67.4844 113.859L92.0391 113.641L91.6562 123.156C91.1641 135.297 89.7969 143.227 86.8984 150.828L86.3516 152.25L84.7656 149.57C83.2891 147.055 83.125 146.398 83.125 141.641C83.125 135.68 82.25 133.164 79.2422 130.32C76.0156 127.258 74.3203 126.875 64.2031 126.875C53.1016 126.875 51.5156 127.258 47.7969 130.977C45.0078 133.766 44.2422 135.461 43.4219 141.039C42.9844 143.992 41.3438 145.688 37.8984 146.508C32.375 147.93 28.1641 151.43 26.9062 155.805C26.4141 157.281 26.25 166.25 26.25 186.047V214.266L20.9453 214.484C16.4609 214.648 15.0391 214.977 12.3047 216.289C8.14844 218.312 3.9375 222.469 1.85937 226.68L0.273437 229.961L0.109374 245.109C-0.0546881 259.766 -0.054688 260.258 1.03906 261.352C2.40625 262.719 5.79688 262.883 7.4375 261.734C8.42188 261.023 8.47656 259.984 8.75 247.352C9.02344 235.156 9.1875 233.516 10.1719 231.328C12.5781 226.188 16.2969 223.836 23.0781 223.344L27.6719 222.961L31.1719 226.516C36.2578 231.602 37.3516 231.875 51.7891 231.875C66.6094 231.875 65.625 232.586 65.625 222.031V214.375H67.5391C70.8203 214.375 75.3047 212.297 78.2031 209.453C81.375 206.227 83.125 202.07 83.125 197.695C83.125 193.977 82.0312 192.719 78.3672 192.172C73.3906 191.461 69.3984 188.945 67.4844 185.227L66.6641 183.75H80.6641L87.7734 179.047C91.7109 176.477 95.2109 173.961 95.5391 173.469C96.7969 171.883 96.3594 168.875 94.3359 165.594L92.4766 162.477L94.0625 158.539C99.2031 146.125 100.625 137.812 100.625 120.258C100.625 107.898 100.57 107.133 99.5312 106.094C98.4375 105 97.7266 105 69.8906 105.055C43.4766 105.055 40.9609 105.164 37.1875 106.094ZM71.3125 136.391C73.7188 137.375 74.375 139.398 74.375 145.688V150.664L79.8438 159.742C82.8516 164.773 85.3125 168.984 85.3125 169.148C85.3125 169.258 83.3984 170.68 81.0469 172.211L76.7812 175H67.9219C59.6094 175 59.0078 175.055 57.9141 176.148C56.875 177.188 56.7656 177.789 56.9844 181.508C57.4219 189.109 62.1797 196 69.1797 199.281C70.9844 200.156 72.5703 200.922 72.6797 201.031C73.0625 201.414 70.875 203.492 69.1797 204.477C67.8672 205.188 65.8984 205.352 58.7891 205.352C53.5391 205.297 49.1094 205.023 47.7422 204.641C42.6016 203.109 37.6797 198.242 36.0391 193.156C35.1641 190.312 34.7266 162.805 35.4922 159.852C36.2031 157.336 37.5156 156.242 41.0703 155.312C48.0156 153.453 51.4609 149.625 52.5547 142.57C53.2109 138.414 54.1406 136.883 56.4922 136.227C59.3359 135.406 69.2344 135.516 71.3125 136.391ZM44.1875 213.227C46.5391 214.047 48.9453 214.375 52.2266 214.375H56.875V223.125H50.75C43.8047 223.07 40.9609 222.578 38.8828 221.047C36.5312 219.297 35.4922 216.891 35.1641 212.406L34.8359 208.25L37.8438 210.219C39.4844 211.258 42.3828 212.625 44.1875 213.227Z" fill="#9D4DDB"/>
<path d="M62.3438 154.219C61.6328 154.93 61.25 156.023 61.25 157.5C61.25 158.977 61.6328 160.07 62.3438 160.781C63.0547 161.492 64.1484 161.875 65.625 161.875C67.1016 161.875 68.1953 161.492 68.9062 160.781C69.6172 160.07 70 158.977 70 157.5C70 156.023 69.6172 154.93 68.9062 154.219C68.1953 153.508 67.1016 153.125 65.625 153.125C64.1484 153.125 63.0547 153.508 62.3438 154.219Z" fill="#9D4DDB"/>
<path d="M132.344 106.094C131.305 107.133 131.25 107.898 131.25 126.875C131.25 145.852 131.305 146.617 132.344 147.656C133.383 148.695 134.148 148.75 148.75 148.75C163.352 148.75 164.117 148.695 165.156 147.656C166.195 146.617 166.25 145.852 166.25 135.625C166.25 125.398 166.195 124.633 165.156 123.594C164.445 122.883 163.352 122.5 161.875 122.5C160.398 122.5 159.305 122.883 158.594 123.594C157.609 124.578 157.5 125.398 157.5 132.344V140H140V113.75H152.031C163.352 113.75 164.117 113.695 165.156 112.656C165.867 111.945 166.25 110.852 166.25 109.375C166.25 107.898 165.867 106.805 165.156 106.094C164.117 105.055 163.352 105 148.75 105C134.148 105 133.383 105.055 132.344 106.094Z" fill="#9D4DDB"/>
<path d="M147.93 166.086L132.07 170.188L119.766 170.57C107.57 170.898 107.406 170.898 104.18 172.484C99.9688 174.562 95.5391 179.047 93.625 183.039C92.3125 185.938 92.1484 186.812 92.1484 192.5C92.1484 198.242 92.2578 199.062 93.625 201.797C96.5234 207.648 101.336 211.805 107.242 213.5L110.25 214.375L111.672 218.859L113.148 223.289L111.891 224.273C111.18 224.82 107.461 229.523 103.578 234.719L96.5234 244.125L96.25 237.016C95.9766 230.617 95.8125 229.633 94.3906 226.68C91.5469 220.883 84.9844 215.523 80.7734 215.469C78.6953 215.469 76.5625 217.656 76.5625 219.844C76.5625 222.25 77.3828 223.508 79.7344 224.711C82.4141 226.078 85.0391 228.867 86.2422 231.602C87.0078 233.406 87.2266 236.086 87.5 247.352C87.7734 259.984 87.8281 261.023 88.8125 261.734C90.125 262.664 93.5703 262.719 94.7188 261.789C95.1562 261.461 100.406 254.625 106.367 246.641C112.328 238.656 117.578 231.82 118.016 231.438C118.508 231.109 119.438 230.781 120.094 230.781C121.734 230.781 123.703 233.352 123.266 234.828C123.047 235.43 119.875 240.516 116.156 246.094C110.469 254.516 109.375 256.539 109.375 258.234C109.375 261.023 110.906 262.5 113.75 262.5C115.117 262.5 116.266 262.117 116.922 261.516C117.414 260.969 120.805 256.102 124.414 250.633C130.156 241.938 131.195 240.625 132.891 240.133C135.68 239.312 138.633 236.633 140.055 233.68C141.695 230.344 141.641 226.242 139.836 220.773C138.633 217.109 138.578 216.562 139.344 216.781C144.648 218.367 165.047 223.125 166.523 223.125C167.727 223.125 168.875 222.688 169.531 222.031C170.516 221.047 170.625 220.227 170.625 212.188C170.625 204.148 170.516 203.328 169.531 202.344C168.82 201.633 167.727 201.25 166.25 201.25C162.695 201.25 161.875 202.508 161.875 208.086C161.875 210.656 161.711 212.734 161.492 212.734C161.219 212.734 155.422 211.258 148.477 209.562L135.898 206.391V178.609L148.477 175.438C155.422 173.742 161.219 172.266 161.492 172.266C161.711 172.266 161.875 176.312 161.875 181.289C161.875 189.602 161.984 190.422 162.969 191.406C163.68 192.117 164.773 192.5 166.25 192.5C167.727 192.5 168.82 192.117 169.531 191.406C170.57 190.367 170.625 189.602 170.625 177.188C170.625 164.773 170.57 164.008 169.531 162.969C167.781 161.219 165.102 161.656 147.93 166.086ZM126.875 205.789L119.109 205.516C112.766 205.297 110.797 205.078 108.828 204.148C97.2344 198.898 99.3125 182.055 111.836 179.867C113.039 179.703 116.922 179.484 120.477 179.43L126.875 179.375V205.789ZM129.992 221.156C132.234 227.992 132.453 229.961 130.648 227.008C129.5 225.094 126.656 222.906 124.414 222.195C123.047 221.758 122.555 221.102 121.57 218.422C120.914 216.672 120.367 215.031 120.367 214.758C120.312 214.539 121.953 214.375 124.031 214.375H127.695L129.992 221.156Z" fill="#9D4DDB"/>
<path d="M189.766 167.945C180.688 171.008 180.414 171.172 179.594 173.086C179.047 174.508 178.992 175.328 179.43 176.586C180.633 180.086 183.203 180.195 192.445 177.133C196.164 175.875 199.664 174.398 200.211 173.852C201.633 172.43 201.578 168.766 200.156 167.344C198.625 165.812 195.398 165.977 189.766 167.945Z" fill="#9D4DDB"/>
<path d="M180.469 189.219C179.758 189.93 179.375 191.023 179.375 192.5C179.375 193.977 179.758 195.07 180.469 195.781C181.453 196.766 182.273 196.875 190.312 196.875C198.352 196.875 199.172 196.766 200.156 195.781C200.867 195.07 201.25 193.977 201.25 192.5C201.25 191.023 200.867 189.93 200.156 189.219C199.172 188.234 198.352 188.125 190.312 188.125C182.273 188.125 181.453 188.234 180.469 189.219Z" fill="#9D4DDB"/>
<path d="M180.469 206.719C179.047 208.141 178.992 211.805 180.414 213.227C181.727 214.539 194.359 218.75 197.039 218.75C199.773 218.75 201.25 217.219 201.25 214.375C201.25 212.953 200.867 211.805 200.211 211.148C198.898 209.836 186.266 205.625 183.586 205.625C182.273 205.625 181.18 206.008 180.469 206.719Z" fill="#9D4DDB"/>
<path d="M18.5938 246.094C17.6094 247.078 17.5 247.898 17.5 253.75C17.5 261.406 18.0469 262.5 21.875 262.5C25.7031 262.5 26.25 261.406 26.25 253.75C26.25 246.094 25.7031 245 21.875 245C20.3984 245 19.3047 245.383 18.5938 246.094Z" fill="#9D4DDB"/>
<path d="M71.0938 246.094C70.1094 247.078 70 247.898 70 253.75C70 261.406 70.5469 262.5 74.375 262.5C78.2031 262.5 78.75 261.406 78.75 253.75C78.75 246.094 78.2031 245 74.375 245C72.8984 245 71.8047 245.383 71.0938 246.094Z" fill="#9D4DDB"/>
</svg>
