<?xml version="1.0" encoding="UTF-8"?>
<svg id="Layer_1" data-name="Layer 1" xmlns="http://www.w3.org/2000/svg" viewBox="0 0 480.01 480">
  <defs>
    <style>
      .cls-1 {
        fill: #9d4ddb;
        stroke-width: 0px;
      }
    </style>
  </defs>
  <g id="Outline">
    <g>
      <path class="cls-1" d="M302.07,296.24l-63.05,15.76h-31.01c-22.05-.03-39.95,17.82-39.98,39.86-.03,19.79,14.44,36.61,34.01,39.54l5.71,17.13c-2.55,1.52-4.78,3.52-6.56,5.89l-25.18,33.58v-16c.02-16.08-9.61-30.6-24.42-36.85-4.03-1.82-8.77-.03-10.59,3.99-1.82,4.03-.03,8.77,3.99,10.59.12.05.24.1.35.15,8.89,3.75,14.67,12.47,14.66,22.12v40c0,4.42,3.58,8,8,8,2.52,0,4.89-1.19,6.4-3.2l39.58-52.8c2.27-3.01,6.55-3.61,9.56-1.35,2.89,2.17,3.58,6.22,1.58,9.23l-23.78,35.66c-2.45,3.68-1.46,8.64,2.22,11.1,3.68,2.45,8.64,1.46,11.1-2.22h0l23.74-35.62c.27-.41.43-.85.67-1.26,12.52-2.2,20.88-14.12,18.69-26.64-.2-1.15-.49-2.28-.86-3.39l-4.73-14.19,49.86,12.46c4.28,1.09,8.64-1.49,9.73-5.78.17-.66.25-1.33.25-2.01v-24c0-4.42-3.58-8-8-8s-8,3.58-8,8v13.75l-48-12v-51.5l48-12v29.75c0,4.42,3.58,8,8,8s8-3.58,8-8v-40c0-4.42-3.58-8-8-8-.66,0-1.31.08-1.94.24ZM184.01,352c0-13.25,10.75-24,24-24h24v48h-24c-13.25,0-24-10.75-24-24ZM223.68,405.72l-4.57-13.72h15.13l7.52,22.55c.67,2.06.36,4.31-.84,6.1-2.58-7.76-9.19-13.48-17.24-14.94h0Z"/>
      <circle class="cls-1" cx="120.01" cy="288" r="8"/>
      <path class="cls-1" d="M152.01,360c0-4.42-3.58-8-8-8-10.17-.01-19.23-6.42-22.63-16h22.63c1.58,0,3.12-.47,4.44-1.34l24-16c3.55-2.38,4.6-7.12,2.4-10.78l-6.51-10.86c10.27-21.49,15.62-44.99,15.67-68.8v-28.22c0-4.42-3.58-8-8-8h-88c-44.16.05-79.95,35.84-80,80,.04,12.29,3.12,24.38,8.95,35.2,2.05,3.91,6.88,5.43,10.8,3.38,3.91-2.05,5.43-6.88,3.38-10.8-.03-.05-.05-.1-.08-.15-4.58-8.49-7-17.98-7.05-27.63.04-35.33,28.67-63.96,64-64h80v20.22c-.08,17.72-3.43,35.27-9.88,51.78l-6.12-10.22v-13.78c0-13.25-10.75-24-24-24h-22.03c-14.34.01-25.95,11.63-25.97,25.97,0,4.58-3.11,8.57-7.55,9.67l-4.8,1.19c-11.56,2.89-19.67,13.28-19.65,25.2v97.97h-8C17.93,392.03.04,409.92.01,432v40c0,4.42,3.58,8,8,8s8-3.58,8-8v-40c0-13.25,10.75-24,24-24h12.45c5.67,9.87,16.17,15.96,27.55,16h32c4.42,0,8-3.58,8-8v-24c17.67,0,32-14.33,32-32ZM104.01,408h-24c-8.84,0-16-7.16-16-16v-12.32c8.77,7.93,20.18,12.32,32,12.32h8v16ZM120.01,376h-24c-17.67,0-32-14.33-32-32v-49.97c0-4.58,3.11-8.57,7.55-9.67l4.8-1.19c11.56-2.89,19.67-13.28,19.65-25.2,0-5.5,4.46-9.96,9.97-9.97h22.03c4.42,0,8,3.58,8,8v16c0,1.45.4,2.88,1.14,4.12l20.07,33.48-15.62,10.4h-29.6c-4.42,0-8,3.58-8,8,.02,18.41,12.59,34.43,30.46,38.85-2.65,5.59-8.27,9.15-14.46,9.15Z"/>
      <path class="cls-1" d="M136.01,448c-4.42,0-8,3.58-8,8v16c0,4.42,3.58,8,8,8s8-3.58,8-8v-16c0-4.42-3.58-8-8-8Z"/>
      <path class="cls-1" d="M40.01,448c-4.42,0-8,3.58-8,8v16c0,4.42,3.58,8,8,8s8-3.58,8-8v-16c0-4.42-3.58-8-8-8Z"/>
      <path class="cls-1" d="M360.01,344h-24c-4.42,0-8,3.58-8,8s3.58,8,8,8h24c4.42,0,8-3.58,8-8s-3.58-8-8-8Z"/>
      <path class="cls-1" d="M336.01,328c.86,0,1.71-.14,2.53-.41l24-8c4.2-1.4,6.47-5.93,5.07-10.13-1.4-4.2-5.93-6.47-10.13-5.07l-24,8c-4.2,1.37-6.5,5.88-5.14,10.08,1.08,3.32,4.18,5.55,7.66,5.53Z"/>
      <path class="cls-1" d="M362.54,384.41l-24-8c-4.2-1.4-8.73.87-10.13,5.07-1.4,4.2.87,8.73,5.07,10.13l24,8c4.2,1.4,8.73-.87,10.13-5.07,1.4-4.2-.87-8.73-5.07-10.13Z"/>
      <path class="cls-1" d="M464.01,96h-48c-4.42,0-8,3.58-8,8v288c0,4.42,3.58,8,8,8h48c4.42,0,8-3.58,8-8v-88c0-4.42-3.58-8-8-8s-8,3.58-8,8v80h-32V112h32v160c0,4.42,3.58,8,8,8s8-3.58,8-8V104c0-4.42-3.58-8-8-8Z"/>
      <path class="cls-1" d="M376.01,136h-48c-4.42,0-8,3.58-8,8v120c0,4.42,3.58,8,8,8h48c4.42,0,8-3.58,8-8v-32c0-4.42-3.58-8-8-8s-8,3.58-8,8v24h-32v-104h32v48c0,4.42,3.58,8,8,8s8-3.58,8-8v-56c0-4.42-3.58-8-8-8Z"/>
      <path class="cls-1" d="M296.01,208c4.42,0,8-3.58,8-8s-3.58-8-8-8h-48c-4.42,0-8,3.58-8,8v64c0,4.42,3.58,8,8,8h48c4.42,0,8-3.58,8-8v-32c0-4.42-3.58-8-8-8s-8,3.58-8,8v24h-32v-48h40Z"/>
      <path class="cls-1" d="M472.01,0h-32c-4.42,0-8,3.58-8,8s3.58,8,8,8h11.54l-86.66,80h-20.87c-4.42,0-8,3.58-8,8s3.58,8,8,8h24c2.01,0,3.95-.76,5.42-2.12l90.58-83.61v13.73c0,4.42,3.58,8,8,8s8-3.58,8-8V8c0-4.42-3.58-8-8-8Z"/>
      <path class="cls-1" d="M312.01,96h-32c-2.12,0-4.16.84-5.66,2.34l-53.66,53.66h-100.69c-4.42,0-8,3.58-8,8s3.58,8,8,8h104c2.12,0,4.16-.84,5.66-2.34l53.66-53.66h28.69c4.42,0,8-3.58,8-8s-3.58-8-8-8Z"/>
      <path class="cls-1" d="M111.41,89.64l-3.06,17.87c-.75,4.35,2.17,8.49,6.52,9.24,1.74.3,3.52.02,5.08-.8l16.06-8.45,16.06,8.45c1.15.6,2.42.91,3.72.91,4.42,0,8-3.58,8-8,0-.45-.04-.91-.12-1.36l-3.06-17.87,13-12.66c3.17-3.08,3.23-8.15.15-11.31-1.23-1.26-2.84-2.08-4.58-2.34l-17.97-2.62-8-16.26c-2.33-3.96-7.44-5.28-11.4-2.95-1.22.72-2.23,1.73-2.95,2.95l-8,16.26-17.95,2.62c-4.37.63-7.4,4.69-6.77,9.07.25,1.74,1.07,3.35,2.34,4.58l12.94,12.66ZM127.28,75.95c2.61-.38,4.86-2.01,6.02-4.38l2.71-5.5,2.71,5.5c1.17,2.36,3.42,4,6.02,4.38l6.07.88-4.39,4.28c-1.89,1.84-2.75,4.48-2.3,7.08l1.04,6.05-5.43-2.86c-2.33-1.22-5.11-1.22-7.44,0l-5.43,2.86,1.04-6.05c.44-2.6-.42-5.24-2.3-7.08l-4.39-4.28,6.07-.88Z"/>
      <path class="cls-1" d="M207.41,49.64l-3.06,17.87c-.75,4.35,2.17,8.49,6.52,9.24,1.74.3,3.52.02,5.08-.8l16.06-8.45,16.06,8.45c1.15.6,2.42.91,3.72.91,4.42,0,8-3.58,8-8,0-.45-.04-.91-.12-1.36l-3.06-17.87,13-12.66c3.17-3.08,3.23-8.15.15-11.31-1.23-1.26-2.84-2.08-4.58-2.34l-17.97-2.62-8-16.26c-2.33-3.96-7.44-5.28-11.4-2.95-1.22.72-2.23,1.73-2.95,2.95l-8,16.26-17.95,2.62c-4.38.6-7.44,4.64-6.83,9.02.24,1.76,1.06,3.39,2.34,4.63l13,12.66ZM223.28,35.95c2.61-.38,4.86-2.01,6.02-4.38l2.71-5.5,2.71,5.5c1.17,2.36,3.42,4,6.02,4.38l6.07.88-4.39,4.28c-1.89,1.84-2.75,4.48-2.3,7.08l1.04,6.05-5.43-2.86c-2.33-1.22-5.11-1.22-7.44,0l-5.43,2.86,1.04-6.05c.44-2.6-.42-5.24-2.3-7.08l-4.39-4.31,6.07-.85Z"/>
      <path class="cls-1" d="M15.41,129.6l-3.06,17.87c-.75,4.35,2.17,8.49,6.52,9.24,1.74.3,3.52.02,5.08-.8l16.06-8.41,16.06,8.45c1.15.6,2.42.91,3.72.91,4.42,0,8-3.58,8-8,0-.45-.04-.91-.12-1.36l-3.06-17.91,13-12.62c3.17-3.08,3.23-8.15.15-11.31-1.23-1.26-2.84-2.08-4.58-2.34l-17.97-2.62-8-16.26c-2.33-3.96-7.44-5.28-11.4-2.95-1.22.72-2.23,1.73-2.95,2.95l-8,16.26-17.95,2.62c-4.38.6-7.44,4.64-6.83,9.02.24,1.76,1.06,3.39,2.34,4.63l13,12.62ZM31.28,115.91c2.61-.38,4.86-2.01,6.02-4.38l2.71-5.46,2.71,5.5c1.17,2.36,3.42,4,6.02,4.38l6.07.88-4.39,4.28c-1.89,1.84-2.75,4.48-2.3,7.08l1.04,6.05-5.43-2.86c-2.33-1.22-5.11-1.22-7.44,0l-5.43,2.86,1.04-6.05c.44-2.6-.42-5.24-2.3-7.08l-4.39-4.31,6.07-.89Z"/>
    </g>
  </g>
</svg>