<svg width="589" height="503" viewBox="0 0 589 503" fill="none" xmlns="http://www.w3.org/2000/svg">
<path d="M502.668 502.67C529.968 475.37 551.624 442.96 566.399 407.29C581.174 371.62 588.778 333.39 588.778 294.781C588.778 256.172 581.174 217.942 566.399 182.272C551.624 146.602 529.968 114.192 502.668 86.8915L398.723 190.836C412.373 204.486 423.201 220.692 430.589 238.526C437.976 256.361 441.778 275.477 441.778 294.781C441.778 314.085 437.976 333.201 430.589 351.035C423.201 368.87 412.373 385.075 398.723 398.726L502.668 502.67Z" fill="#1C304A"/>
<path d="M502.671 86.889C447.535 31.7533 372.755 0.778363 294.781 0.77832C216.808 0.778277 142.028 31.7531 86.8919 86.8888L190.837 190.834C218.404 163.266 255.794 147.778 294.781 147.778C333.768 147.778 371.158 163.266 398.726 190.834L502.671 86.889Z" fill="#00CFFF"/>
<path d="M86.8909 86.8896C59.5905 114.19 37.9346 146.6 23.1597 182.27C8.38481 217.94 0.780273 256.17 0.780273 294.779C0.780274 333.388 8.38481 371.618 23.1597 407.288C37.9346 442.958 59.5905 475.368 86.8909 502.668L190.836 398.724C177.185 385.074 166.357 368.868 158.97 351.034C151.583 333.199 147.78 314.083 147.78 294.779C147.78 275.475 151.583 256.359 158.97 238.525C166.357 220.69 177.185 204.485 190.836 190.834L86.8909 86.8896Z" fill="#DFE1E2"/>
<path d="M83.4899 306.059C70.7471 302.561 68.3287 292.512 68.3287 285.805C68.3287 279.394 70.7471 271.64 83.4899 268.142C96.2326 264.644 229.867 248.615 298.204 248.615C312.855 248.615 334.922 257.2 335.488 286.337C333.928 316.908 310.193 323.615 298.204 323.615C231.199 323.615 96.2326 309.558 83.4899 306.059Z" fill="#1B1B1B"/>
<path fill-rule="evenodd" clip-rule="evenodd" d="M66.8058 299.645C64.0183 294.84 63.3287 289.689 63.3287 285.805C63.3287 281.999 64.0447 277.337 67.0186 273.037C70.0298 268.683 74.9357 265.305 82.1662 263.32C85.7721 262.331 96.9414 260.63 112.162 258.657C127.6 256.656 147.68 254.319 169.492 252.093C213.056 247.646 263.764 243.615 298.204 243.615C306.38 243.615 316.718 245.987 325.204 252.608C333.881 259.378 340.177 270.257 340.488 286.24C340.49 286.358 340.488 286.475 340.482 286.592C339.628 303.333 332.587 314.077 323.681 320.497C314.998 326.756 304.965 328.615 298.204 328.615C264.461 328.615 213.779 325.083 170.048 321.129C148.158 319.15 127.954 317.06 112.412 315.245C104.643 314.337 98.0183 313.495 92.92 312.768C87.9501 312.059 84.1203 311.417 82.1662 310.881C74.5662 308.794 69.6803 304.599 66.8058 299.645ZM75.4557 294.627C76.9762 297.247 79.6709 299.826 84.8136 301.238C86.0452 301.576 89.2205 302.139 94.3324 302.868C99.3157 303.579 105.849 304.41 113.572 305.312C129.014 307.116 149.129 309.197 170.949 311.17C214.638 315.119 264.942 318.615 298.204 318.615C303.432 318.615 311.261 317.122 317.833 312.384C324.155 307.828 329.741 299.98 330.486 286.259C330.189 273.208 325.186 265.277 319.052 260.492C312.7 255.536 304.68 253.615 298.204 253.615C264.307 253.615 214.029 257.599 170.507 262.041C148.774 264.259 128.785 266.586 113.448 268.574C97.8926 270.59 87.579 272.204 84.8136 272.964C79.3013 274.477 76.6266 276.725 75.243 278.725C73.822 280.78 73.3287 283.2 73.3287 285.805C73.3287 288.628 73.8483 291.856 75.4557 294.627Z" fill="white"/>
<path d="M280.143 286.981C280.143 278.144 287.306 270.981 296.143 270.981C304.98 270.981 312.143 278.144 312.143 286.981C312.143 295.817 304.98 302.981 296.143 302.981C287.306 302.981 280.143 295.817 280.143 286.981Z" fill="white"/>
</svg>
