<svg width="50" height="50" viewBox="0 0 50 50" fill="none" xmlns="http://www.w3.org/2000/svg">
<path fill-rule="evenodd" clip-rule="evenodd" d="M14.8398 8.68555H36.5523V36.5329H14.8398V8.68555Z" fill="white"/>
<path fill-rule="evenodd" clip-rule="evenodd" d="M19.8109 32.0124L21.6414 21.5601C20.7262 20.8509 20.056 19.8727 19.7252 18.7631C19.3944 17.6536 19.4194 16.4681 19.7967 15.3734C20.1742 14.2787 20.885 13.3298 21.8294 12.6598C22.7739 11.9898 23.9044 11.6325 25.0622 11.6381V0.0371094H10.924C9.47101 0.0371094 8.07751 0.614317 7.05008 1.64175C6.02264 2.66918 5.44543 4.06269 5.44543 5.51569V32.3784C5.44119 32.8852 5.55349 33.3862 5.77364 33.8427C6.96026 36.2412 11.6436 43.9416 25.0497 49.8619V32.4416C23.2944 32.4486 21.5415 32.3051 19.8109 32.0124Z" fill="#E21D3E"/>
<path fill-rule="evenodd" clip-rule="evenodd" d="M39.1638 1.46804e-05H25.0508V11.601C26.2034 11.595 27.3296 11.9487 28.2719 12.6129C29.2143 13.277 29.9259 14.2185 30.3079 15.3062C30.6899 16.3939 30.7233 17.5737 30.4033 18.6813C30.0831 19.7888 29.4254 20.7688 28.5221 21.4852L30.3526 31.9878C28.6018 32.2928 26.8278 32.4448 25.0508 32.4423V49.8375C38.4443 43.9423 43.1401 36.2168 44.3268 33.8183C44.5469 33.3618 44.6593 32.8608 44.6549 32.354V5.50385C44.6583 4.78122 44.5186 4.06505 44.2441 3.3966C43.9694 2.72817 43.5651 2.12067 43.0548 1.60908C42.5444 1.09751 41.9379 0.691968 41.2701 0.41581C40.6021 0.139654 39.8864 -0.00165818 39.1638 1.46804e-05Z" fill="#B51E23"/>
</svg>
