<svg width="500" height="237" viewBox="0 0 500 237" fill="none" xmlns="http://www.w3.org/2000/svg">
<path d="M0 55.1454L30.9858 4.75393H93.642V236.111H37.9302V55.1454H0Z" fill="white"/>
<path d="M121.745 117.263C121.745 80.9222 128.631 52.2931 142.402 31.3758C156.382 10.4586 178.813 0 209.694 0C240.576 0 262.902 10.4586 276.674 31.3758C290.654 52.2931 297.644 80.9222 297.644 117.263C297.644 154.027 290.654 182.867 276.674 203.784C262.902 224.702 240.576 236.111 209.694 236.111C178.813 236.111 156.382 224.702 142.402 203.784C128.631 182.867 121.745 154.027 121.745 117.263ZM245.062 117.263C245.062 95.9235 242.767 79.5488 238.176 68.1395C233.586 56.5188 224.092 50.7084 209.694 50.7084C195.297 50.7084 185.803 56.5188 181.212 68.1395C176.622 79.5488 174.327 95.9235 174.327 117.263C174.327 131.631 175.161 143.568 176.831 153.076C178.5 162.373 181.838 169.979 186.846 175.895C192.063 181.6 199.679 184.452 209.694 184.452C219.71 184.452 227.222 181.6 232.229 175.895C237.446 169.979 240.889 162.373 242.558 153.076C244.227 143.568 245.062 131.631 245.062 117.263Z" fill="white"/>
<path d="M437.824 236.111L403.174 185.957L374.028 236.111H314.119L373.705 143.892L312.5 55.5555H374.676L409.326 105.386L438.471 55.5555H498.381L437.824 146.48L500 236.111H437.824Z" fill="#9355DC"/>
</svg>
