<svg width="41" height="50" viewBox="0 0 41 50" fill="none" xmlns="http://www.w3.org/2000/svg">
<path d="M19.3766 50V44.1575H12.5948C13.0598 49.239 17.3421 50 19.3766 50Z" fill="#2491FF"/>
<path d="M19.3766 50V44.1575H26.3522C25.8739 49.239 21.4693 50 19.3766 50Z" fill="#005EA2"/>
<path d="M15.5406 4.24315C15.5406 0.72951 17.9012 0 19.3766 0V42.21H0V38.0132L4.81964 33.4259V18.9809C4.81964 10.392 11.7047 5.2517 15.5406 4.24315Z" fill="#2491FF"/>
<path d="M19.3766 0C20.852 0 23.2126 0.72951 23.2126 4.24315C24.3897 4.55265 25.854 5.25123 27.3183 6.31916C25.7402 7.88889 24.7633 10.0625 24.7633 12.4642C24.7633 17.2509 28.6437 21.1314 33.4305 21.1314C33.5993 21.1314 33.7593 21.1409 33.9257 21.1314L33.9336 33.4259L38.7532 38.0132V42.21H19.3766V0Z" fill="#005EA2"/>
<path d="M40.5293 12.4247C40.5293 16.2996 37.388 19.4409 33.513 19.4409C29.638 19.4409 26.4967 16.2996 26.4967 12.4247C26.4967 8.54969 29.638 5.4084 33.513 5.4084C37.388 5.4084 40.5293 8.54969 40.5293 12.4247Z" fill="#D54309"/>
</svg>
