<svg width="198" height="216" viewBox="0 0 198 216" fill="none" xmlns="http://www.w3.org/2000/svg">
<path d="M150.24 7.46712C142.893 9.15462 135.274 14.5124 130.479 21.2202L129.357 22.8656L125.336 20.714C119.96 17.8452 113.077 15.4827 106.928 14.3437C102.519 13.4999 100.934 13.4156 93.9727 13.6265C87.9012 13.7952 85.1168 14.0484 82.1777 14.7656C69.8801 17.6343 58.2398 24.1734 49.616 33.0749C46.7156 36.0702 46.4063 36.5343 46.4063 37.9265C46.4063 40.0359 47.7984 41.5124 49.6934 41.4702C50.7762 41.4281 51.5496 40.9218 53.6379 38.8124C64.6207 27.8437 77.5371 21.6843 91.6523 20.714C100.47 20.1234 109.093 21.4734 116.982 24.6796C121.12 26.3671 126.07 28.9406 126.07 29.4046C126.07 29.5734 125.722 30.9234 125.258 32.4421L124.446 35.2265L120.424 33.0749C116.248 30.7968 111.994 29.1515 107.121 27.9702C102.906 26.9156 89.2547 26.9156 84.8074 27.9702C73.8246 30.5437 64.2727 36.1968 56.4609 44.7187C48.0691 53.8734 42.6551 65.264 40.7988 77.8359C40.0641 82.6453 40.0641 92.7703 40.7602 97.4953C41.843 104.709 44.1246 111.755 47.6051 118.336C50.1961 123.314 51.0469 124.242 52.9805 124.242C54.218 124.242 54.798 123.989 55.3395 123.23C56.1129 122.175 56.3449 119.222 55.6875 118.758C54.8367 118.167 55.4168 117.408 57.6984 116.058C60.9082 114.117 61.4883 113.4 61.4883 111.375C61.4883 107.62 58.7426 106.987 54.4113 109.687C52.9418 110.616 51.6656 111.333 51.5883 111.291C51.5496 111.206 50.9309 109.645 50.2734 107.831C48.7652 103.739 47.3344 97.7906 46.9863 93.9515L46.7156 91.1249H50.4281C54.8367 91.1249 55.6875 90.5765 55.6875 87.7499C55.6875 84.9234 54.8367 84.3749 50.4668 84.3749C46.2129 84.3749 46.5223 84.839 47.3344 79.3124C47.9918 74.9249 49.2293 70.2843 50.6602 66.7827L51.7816 64.1249L54.45 65.8124C58.7426 68.5124 61.4883 67.8796 61.4883 64.1249C61.4883 62.0999 60.9082 61.3827 57.6984 59.4421C56.3836 58.6827 55.3008 57.839 55.3008 57.6702C55.3008 55.9827 66.7863 43.4531 68.3332 43.4531C68.5266 43.4531 69.2613 44.6343 69.9574 46.0687C71.7363 49.5702 72.3938 50.2031 74.25 50.2031C77.6918 50.2031 78.2719 47.2077 75.7969 42.5249L74.25 39.614L76.6863 38.3906C80.5922 36.4499 88.8293 34.1718 91.9617 34.1718C92.2711 34.1718 92.4258 35.0156 92.4258 36.9984C92.4258 40.4999 93.0059 42.8624 93.9727 43.4531C95.2102 44.1702 97.3758 43.9593 98.2266 43.0312C98.884 42.314 99 41.639 99 38.1796C99 33.4968 98.6133 33.7499 104.105 34.8046C108.011 35.5218 111.878 36.7874 115.126 38.3906L117.563 39.614L116.016 42.5249C113.541 47.2077 114.121 50.2031 117.563 50.2031C119.419 50.2031 120.076 49.5702 121.855 46.0687C122.551 44.6343 123.286 43.4531 123.441 43.4531C123.634 43.4531 123.75 44.7187 123.75 46.2796C123.789 54.9702 128.545 65.7281 135.042 71.8031C137.363 73.9546 141.268 76.8234 143.047 77.5827C144.362 78.2156 144.478 78.4687 144.865 81.9281L145.097 84.3749H141.384C136.976 84.3749 136.125 84.9234 136.125 87.7499C136.125 90.5765 136.976 91.1249 141.346 91.1249C145.6 91.1249 145.406 90.7453 144.478 96.4828C143.743 100.87 142.545 105.342 141.152 108.717L140.031 111.375L137.363 109.687C133.186 107.03 130.324 107.62 130.324 111.122C130.324 113.4 130.634 113.822 133.573 115.678C135.081 116.606 136.396 117.45 136.473 117.534C136.821 117.872 134.307 121.416 131.368 124.748C128.545 127.955 124.098 132.047 123.402 132.047C123.286 132.047 122.551 130.866 121.855 129.431C120.076 125.93 119.419 125.297 117.563 125.297C114.121 125.297 113.541 128.292 116.016 133.017C116.866 134.62 117.524 136.012 117.485 136.097C117.292 136.266 111.762 138.628 110.756 138.966C110.099 139.177 109.867 138.966 109.519 137.616C108.861 135.253 107.005 132.68 105.071 131.456C103.293 130.317 96.9891 128.587 85.4648 126.098C79.9734 124.917 78.3492 124.706 73.9406 124.748C64.7367 124.875 57.5438 127.111 50.7762 131.92C50.0027 132.469 49.848 132.342 47.4504 129.009C41.5336 120.741 37.9758 112.598 35.6941 102.094C34.534 96.6093 34.0313 84.5015 34.766 78.8484C36.0422 69.314 39.0586 60.3281 43.8926 51.6796C45.7488 48.3046 45.4781 46.1531 43.0031 45.2249C40.8375 44.4234 39.6387 45.2671 37.5117 49.1484C33.5672 56.2781 30.6281 64.4202 29.0039 72.7734C27.9211 78.1734 27.5344 91.2515 28.1918 97.2421C29.7 110.32 34.8047 123.441 42.423 133.861L44.5113 136.73L39.832 141.623C34.8434 146.812 31.4016 151.284 28.0371 156.727C25.1367 161.494 23.3191 165.291 17.9824 177.82L13.3031 188.789L10.2867 189C7.88906 189.169 7.1543 189.38 6.72891 190.012C6.30352 190.687 6.1875 192.67 6.1875 199.209C6.1875 207.014 6.22617 207.605 6.96094 208.406C8.00508 209.545 10.5574 209.545 11.6016 208.406C12.2977 207.647 12.375 207.014 12.375 201.656V195.75H39.6387C54.6434 195.75 66.9023 195.877 66.9023 196.045C66.9023 196.256 66.477 198.197 65.9356 200.391C64.7754 205.369 64.6981 207.267 65.7422 208.406C66.7477 209.503 69.3387 209.545 70.3055 208.491C70.7695 207.984 71.6203 205.031 72.6258 200.686C75.0621 190.139 74.9074 189.337 70.4602 189L67.7145 188.789L70.1895 184.359C71.891 181.28 72.9738 179.761 73.7473 179.423C74.4434 179.086 77.1891 178.917 81.5203 178.875C87.6305 178.875 88.2492 178.791 88.9453 178.031C89.9895 176.892 89.9895 174.108 88.9453 172.969C88.2106 172.167 87.6691 172.125 80.1281 172.125C68.952 172.167 69.068 172.083 63.2285 182.756L59.8254 189H40.2188H20.5734L24.9047 178.748C31.5176 163.139 35.3848 156.642 43.0805 148.289C53.0965 137.447 61.6043 132.637 72.2391 131.878C75.6035 131.625 76.609 131.752 87.7078 134.156C94.2434 135.548 100.16 136.983 100.856 137.32C102.248 137.995 103.641 140.189 103.641 141.666C103.641 142.973 102.674 144.914 101.63 145.716C100.276 146.77 98.4586 146.559 88.2879 144.07C77.7305 141.497 76.1836 141.328 75.0234 142.594C74.1727 143.522 73.9793 145.884 74.6367 147.234C75.1395 148.247 75.8356 148.5 87.3984 151.284C96.6023 153.52 97.4918 153.647 100.74 153.436C103.409 153.225 105.536 153.394 110.021 154.195C113.231 154.786 116.596 155.25 117.563 155.25H119.264L131.484 142.003C138.175 134.705 144.053 128.545 144.517 128.292C145.754 127.617 146.992 127.744 148.423 128.672C150.202 129.853 151.014 132.047 150.395 134.03C149.854 135.928 123.402 167.231 120.772 169.13C117.563 171.45 115.938 171.787 106.193 171.998C98.2266 172.209 97.2984 172.294 96.641 173.011C95.6356 174.108 95.6742 176.934 96.6797 178.031C97.4145 178.833 97.9559 178.875 106.657 178.875C116.982 178.875 118.645 178.58 123.015 176.091C126.341 174.192 126.728 173.728 142.119 155.587C156.428 138.67 157.163 137.531 157.163 132.975C157.163 130.823 156.892 129.558 156.08 127.575L155.036 125.002L156.93 120.825C161.03 111.966 163.427 102.178 163.853 92.9812L164.085 87.4968L163.002 86.5687C161.61 85.3874 160.024 85.3874 158.748 86.6109C157.781 87.4968 157.704 87.9187 157.356 92.6015C156.698 101.334 154.185 111.206 150.743 118.167L149.467 120.825L146.141 120.867L142.815 120.909L143.666 119.391C146.837 113.906 149.97 104.625 151.014 97.664C151.439 94.7109 151.594 91.5468 151.516 87.1171L151.4 80.789H157.781C165.322 80.789 167.256 80.3249 173.057 77.2031C181.99 72.3937 188.719 63.1968 191.039 52.7343C192.006 48.1781 192.083 40.1624 191.194 35.7327C189.918 29.6156 186.708 22.6968 184.813 21.9796C182.802 21.2202 180.83 22.3593 180.404 24.4687C180.211 25.3968 180.598 26.6624 182.106 29.9109C184.658 35.5218 185.354 39.1499 185.161 45.2671C184.89 53.2406 182.454 59.2312 177.156 65.0109C171.084 71.6343 163.389 74.6718 154.958 73.7859C144.633 72.689 135.313 64.6312 131.716 53.6202C130.595 50.2031 130.518 49.6546 130.518 43.8749C130.518 38.2218 130.595 37.5046 131.6 34.3827C134.462 25.6499 140.688 18.689 148.539 15.5671C155.77 12.6984 164.82 13.5421 171.316 17.7187C172.438 18.4359 173.791 19.1109 174.371 19.2374C176.692 19.7015 178.664 17.1281 177.929 14.639C177.195 12.2765 170.852 8.73274 164.936 7.38274C161.3 6.58118 153.875 6.62337 150.24 7.46712ZM119.109 144.872L116.209 148.036L113.231 147.53C111.568 147.277 110.215 146.981 110.215 146.855C110.215 146.686 111.568 146.18 113.231 145.631C114.855 145.083 117.446 143.986 118.916 143.227C120.424 142.467 121.7 141.792 121.816 141.792C121.932 141.75 120.695 143.142 119.109 144.872Z" fill="#AB4FE4"/>
<path d="M155.461 21.0937C154.842 21.7687 154.688 22.4859 154.688 24.5953C154.688 27 154.61 27.3375 153.759 27.7594C152.135 28.5609 149.931 30.9656 149.235 32.6953C148.268 34.9312 148.268 39.3187 149.235 41.5547C150.588 44.8453 153.257 46.7437 157.511 47.4609C158.323 47.5875 159.328 48.0937 159.754 48.5578C161.339 50.2875 160.14 53.5781 157.936 53.5781C156.234 53.5781 155.5 52.8187 154.842 50.4141C154.494 49.1062 153.914 47.925 153.527 47.6719C152.29 46.9547 150.124 47.1656 149.273 48.0937C148.268 49.1906 148.229 52.6922 149.235 55.0547C149.931 56.7844 152.135 59.1891 153.759 59.9906C154.61 60.4125 154.688 60.75 154.688 63.1547C154.688 66.4453 155.422 67.5 157.781 67.5C160.102 67.5 160.875 66.4453 160.914 63.1547V60.5391L162.731 59.2734C165.554 57.2906 166.83 54.9703 166.985 51.4266C167.179 47.6297 166.405 45.3516 164.162 43.0734C162.538 41.4703 161.146 40.7953 158.052 40.2891C157.24 40.1625 156.234 39.6562 155.809 39.1922C154.223 37.4625 155.422 34.1719 157.627 34.1719C159.328 34.1719 160.063 34.9312 160.72 37.3359C161.068 38.6437 161.648 39.825 162.035 40.0781C163.273 40.7953 165.438 40.5844 166.289 39.6562C167.295 38.5594 167.333 35.0578 166.328 32.6953C165.632 30.9656 163.427 28.5609 161.803 27.7594C160.952 27.3375 160.875 27 160.875 24.5953C160.875 21.3047 160.14 20.25 157.781 20.25C156.737 20.25 155.964 20.5453 155.461 21.0937Z" fill="#AB4FE4"/>
<path d="M138.136 34.4673C135.468 36.9985 135.468 50.7516 138.136 53.2407C139.335 54.3798 141.616 54.211 142.699 52.9454C143.511 52.0173 143.55 51.7219 143.241 49.6969C142.854 46.8282 142.854 40.9219 143.241 38.0532C143.55 36.0282 143.511 35.7329 142.699 34.8048C141.616 33.5391 139.335 33.3704 138.136 34.4673Z" fill="#AB4FE4"/>
<path d="M172.825 34.6782C172.129 35.5219 172.051 35.9016 172.322 37.9688C172.709 41.0485 172.709 46.9126 172.322 49.6969C172.013 51.7219 172.051 52.0173 172.863 52.9454C173.946 54.211 176.228 54.3798 177.427 53.2407C180.095 50.7516 180.095 36.9985 177.427 34.4673C176.266 33.4126 173.869 33.5391 172.825 34.6782Z" fill="#AB4FE4"/>
<path d="M107.044 70.3266L100.16 77.7937L96.0223 77.8359H91.8457L88.1332 73.9547C84.7301 70.3687 84.3047 70.0312 82.8738 70.0312C80.8629 70.0312 79.6641 71.3391 79.6641 73.6172C79.6641 75.0516 79.9734 75.5578 83.2992 79.2703L86.9344 83.3203L86.741 86.5266C86.4703 90.45 86.973 92.3062 88.9066 94.6266C90.8016 96.9469 92.8125 97.875 95.9062 97.875C99 97.875 101.011 96.9469 102.906 94.6266C104.839 92.3062 105.342 90.45 105.071 86.5266L104.878 83.3203L111.8 75.6844C118.452 68.3859 118.723 68.0062 118.723 66.4031C118.723 64.1672 117.524 62.8594 115.436 62.8594C114.005 62.8594 113.579 63.2391 107.044 70.3266ZM97.8398 85.6406C98.2652 86.1047 98.6133 87.0328 98.6133 87.75C98.6133 88.4672 98.2652 89.3953 97.8398 89.8594C97.4145 90.3234 96.5637 90.7031 95.9062 90.7031C95.2488 90.7031 94.398 90.3234 93.9727 89.8594C93.5473 89.3953 93.1992 88.4672 93.1992 87.75C93.1992 87.0328 93.5473 86.1047 93.9727 85.6406C94.398 85.1766 95.2488 84.7969 95.9062 84.7969C96.5637 84.7969 97.4145 85.1766 97.8398 85.6406Z" fill="#AB4FE4"/>
<path d="M81.2109 112.219C80.7082 112.767 80.4375 113.611 80.4375 114.75C80.4375 115.889 80.7082 116.733 81.2109 117.281C81.9457 118.083 82.4871 118.125 97.4531 118.125C112.419 118.125 112.961 118.083 113.695 117.281C114.198 116.733 114.469 115.889 114.469 114.75C114.469 113.611 114.198 112.767 113.695 112.219C112.961 111.417 112.419 111.375 97.4531 111.375C82.4871 111.375 81.9457 111.417 81.2109 112.219Z" fill="#AB4FE4"/>
</svg>
