<svg width="44" height="44" viewBox="0 0 44 44" fill="none" xmlns="http://www.w3.org/2000/svg">
<path d="M39.6 13.3526L44 8.95263V38.1334C44 41.3734 41.3734 44 38.1334 44H5.86667C2.6266 44 0 41.3734 0 38.1334V5.86663C0 2.62657 2.6266 0 5.86667 0H33.8063L29.4064 4.39997H5.86667C5.05665 4.39997 4.4 5.05665 4.4 5.86663V38.1334C4.4 38.9434 5.05665 39.6 5.86667 39.6H38.1334C38.9434 39.6 39.6 38.9434 39.6 38.1334V13.3526Z" fill="#C7A97B"/>
<path fill-rule="evenodd" clip-rule="evenodd" d="M15.7001 14.6818C16.6389 14.6818 17.4 15.4451 17.4 16.3865V34H14V16.3865C14 15.4451 14.7611 14.6818 15.7001 14.6818ZM22.5001 9C23.4389 9 24.2 9.76326 24.2 10.7046V34H20.8V10.7046C20.8 9.76326 21.5611 9 22.5001 9ZM29.2999 20.3636C30.2389 20.3636 31 21.1269 31 22.0683V34H27.6V22.0683C27.6 21.1269 28.3611 20.3636 29.2999 20.3636Z" fill="#2C608A"/>
</svg>
