<svg width="514" height="254" viewBox="0 0 514 254" fill="none" xmlns="http://www.w3.org/2000/svg">
<g opacity="0.4">
<path fill-rule="evenodd" clip-rule="evenodd" d="M5.27881 2.13483C-2.40988 6.82067 -1.53133 18.3448 6.81762 22.3044C14.6399 26.0145 23.3961 20.063 23.4059 11.0289C23.4091 8.33811 22.4502 6.43317 19.7179 3.7022C15.3653 -0.648233 10.6793 -1.15622 5.27881 2.13483ZM32.3944 3.84007C28.8813 7.35146 28.6098 8.07435 29.117 12.5681C29.7762 18.4186 32.1338 21.3189 37.5485 22.9405C42.999 24.5719 48.5971 21.9593 51.1438 16.5961C54.8556 8.77771 48.9012 0.0258284 39.8627 0.0160594C37.1445 0.0128031 35.256 0.97994 32.3944 3.84007ZM62.8429 2.13049C59.1072 4.40774 56.8158 10.0347 57.8605 14.3677C58.1885 15.7256 59.6969 18.1733 61.214 19.808C68.4335 27.5862 80.9667 22.3794 80.9667 11.6009C80.9667 8.26214 80.2044 6.63072 77.2744 3.7022C72.924 -0.646062 68.2359 -1.15622 62.8429 2.13049ZM93.4554 1.03747C84.3615 4.75835 84.4809 18.5858 93.64 22.4098C98.4096 24.4026 102.73 23.5516 106.382 19.9013C115.422 10.865 105.353 -3.82964 93.4554 1.03747ZM121.691 1.27193C115.94 4.43164 113.772 13.0326 117.413 18.2286C125.839 30.2542 143.461 19.6299 137.345 6.21175C134.985 1.03638 126.812 -1.5437 121.691 1.27193ZM150.747 1.12863C147.716 2.34649 143.961 8.33486 143.961 11.9515C143.961 23.1641 159.914 27.6513 165.753 18.081C168.415 13.7165 168.391 10.1465 165.668 5.68314C162.533 0.543591 156.662 -1.24848 150.747 1.12863ZM176.967 3.7022C170.834 9.83168 172.213 18.3469 179.988 22.3652C187.443 26.2185 196.103 20.4147 196.056 11.5966C195.998 0.899613 184.52 -3.84702 176.967 3.7022ZM207.27 2.13483C199.581 6.82067 200.46 18.3448 208.808 22.3044C216.631 26.0145 225.387 20.063 225.397 11.0289C225.4 8.33811 224.441 6.43317 221.709 3.7022C217.356 -0.648233 212.67 -1.15622 207.27 2.13483ZM234.523 3.7022C231.593 6.63072 230.831 8.26214 230.831 11.6009C230.831 22.3794 243.364 27.5862 250.584 19.808C254.049 16.074 254.821 12.9415 253.475 8.07003C252.215 3.50684 247.186 0.0214866 241.853 0.0160594C239.161 0.0128031 237.255 0.971241 234.523 3.7022ZM264.834 2.13049C261.098 4.40774 258.807 10.0347 259.851 14.3677C260.67 17.7608 265.256 22.489 268.525 23.3085C272.301 24.2561 278.167 22.0863 280.768 18.7822C284.33 14.2559 283.722 8.15684 279.265 3.7022C274.915 -0.646062 270.227 -1.15622 264.834 2.13049ZM292.08 3.7022C289.347 6.43317 288.388 8.33811 288.392 11.0289C288.402 20.063 297.158 26.0145 304.98 22.3044C313.329 18.3448 314.208 6.82067 306.519 2.13483C301.118 -1.15622 296.432 -0.648233 292.08 3.7022ZM36.6721 29.5389C32.3727 30.6808 28.8498 35.8822 28.8444 41.0956C28.8379 46.5347 34.7553 52.1128 40.5305 52.1128C54.1888 52.1128 56.5378 33.1306 43.3345 29.451C41.6339 28.9767 38.6355 29.0168 36.6721 29.5389ZM66.2181 29.4803C53.9521 32.7464 55.9676 52.1128 68.5736 52.1128C76.2797 52.1128 80.9667 47.4356 80.9667 39.7442C80.9667 32.6737 73.5669 27.5243 66.2181 29.4803ZM123.66 29.5096C115.518 31.675 112.781 42.8323 118.892 48.94C126.168 56.2125 138.444 50.9318 138.499 40.5051C138.541 32.6118 131.53 27.4169 123.66 29.5096ZM181.216 29.5096C171.513 32.0908 170.342 46.246 179.447 50.9003C183.928 53.1906 189.459 52.3852 192.905 48.94C195.478 46.3686 196.08 44.836 196.08 40.86C196.08 32.5912 189.247 27.3734 181.216 29.5096ZM238.663 29.5389C229.558 31.9583 228.229 46.9244 236.773 50.8157C243.869 54.047 251.295 51.0632 253.611 44.048C256.518 35.2451 248.065 27.0391 238.663 29.5389ZM268.499 29.4162C261.861 31.2344 258.119 37.8143 260.177 44.048C264.342 56.6597 282.972 53.7561 282.953 40.4986C282.95 38.0292 279.474 30.404 278.351 30.404C278.189 30.404 276.594 29.9937 274.805 29.4922C273.018 28.9908 270.18 28.9571 268.499 29.4162ZM325.65 29.5096C317.509 31.675 314.772 42.8323 320.883 48.94C326.061 54.1154 335.707 52.8292 338.967 46.5282C343.981 36.8374 336.077 26.7363 325.65 29.5096ZM498.21 29.5389C493.911 30.6808 490.388 35.8822 490.383 41.0956C490.376 46.5347 496.294 52.1128 502.069 52.1128C512.371 52.1128 517.861 39.5163 510.551 32.652C507.271 29.5726 502.557 28.3829 498.21 29.5389ZM91.139 31.242C85.1868 36.0613 84.7568 43.0928 90.0889 48.4223C93.0188 51.3508 94.6511 52.1128 97.9915 52.1128C109.028 52.1128 114.128 39.081 105.824 32.0973C101.84 28.7465 94.7325 28.333 91.139 31.242ZM148.435 31.5936C142.87 36.7755 142.863 44.6623 148.418 49.334C155.098 54.9523 165.788 51.3323 167.368 42.9159C168.238 38.2789 167.388 35.6716 163.857 32.1418C160.142 28.4274 152.14 28.143 148.435 31.5936ZM205.974 32.0973C197.67 39.081 202.769 52.1128 213.806 52.1128C219.364 52.1128 225.401 46.4815 225.401 41.2953C225.401 30.8241 213.941 25.398 205.974 32.0973ZM293.13 31.242C287.178 36.0613 286.748 43.0928 292.08 48.4223C295.01 51.3508 296.642 52.1128 299.982 52.1128C311.019 52.1128 316.119 39.081 307.814 32.0973C303.831 28.7465 296.723 28.333 293.13 31.242ZM349.932 32.1418C346.4 35.6716 345.551 38.2789 346.421 42.9159C347.371 47.9773 352.528 52.1128 357.89 52.1128C368.744 52.1128 373.461 39.144 365.354 31.5936C361.648 28.143 353.647 28.4274 349.932 32.1418ZM35.7772 58.6037C31.8808 60.1776 28.8401 65.0447 28.8401 69.7099C28.8401 74.5965 32.9885 79.6992 37.9785 80.9507C42.6884 82.1327 48.4136 79.291 50.8755 74.5499C52.7532 70.9332 52.8629 69.8564 51.7345 66.0921C49.7038 59.319 42.4429 55.9118 35.7772 58.6037ZM63.8529 58.9196C60.2236 61.022 57.9561 64.8026 57.8388 68.949C57.6954 73.9941 59.9456 77.7324 64.397 79.8436C75.8887 85.2935 86.4433 71.2979 77.9803 61.8318C74.5237 57.9655 67.8688 56.5935 63.8529 58.9196ZM93.4554 58.5657C87.5651 60.9754 84.8795 68.8264 87.9289 74.7203C93.0482 84.6151 107.704 82.3596 109.769 71.3608C111.447 62.4255 102.045 55.0521 93.4554 58.5657ZM121.118 59.3896C116.859 62.3235 115.79 64.2773 115.753 69.1911C115.725 72.7654 116.423 74.5759 118.887 77.3319C121.607 80.3754 122.772 80.8769 127.121 80.8769C131.469 80.8769 132.634 80.3754 135.354 77.3319C139.995 72.1413 139.801 66.1985 134.831 61.2304C130.597 56.9983 125.569 56.3232 121.118 59.3896ZM150.212 59.2387C146.95 61.0079 143.953 65.9119 143.953 69.4798C143.953 75.2326 150.143 81.4196 155.899 81.4196C157.153 81.4196 159.612 80.6783 161.364 79.773C164.796 77.9994 167.844 73.1572 167.844 69.4798C167.844 65.8023 164.796 60.9602 161.364 59.1866C157.403 57.1394 154.055 57.1546 150.212 59.2387ZM176.967 61.2304C171.996 66.1985 171.803 72.1413 176.443 77.3319C179.164 80.3754 180.329 80.8769 184.677 80.8769C189.025 80.8769 190.191 80.3754 192.911 77.3319C198.296 71.3088 196.839 62.2953 189.907 58.7524C185.367 56.4317 180.914 57.2849 176.967 61.2304ZM207.27 59.6023C199.041 64.7614 200.595 77.0768 209.881 80.2853C213.993 81.7061 214.839 81.6801 218.31 80.0259C225.701 76.5026 227.497 66.3331 221.69 60.8809C218.021 57.4358 211.629 56.8692 207.27 59.6023ZM237.768 58.6037C234.004 60.1244 230.831 65.0544 230.831 69.3843C230.831 79.799 243.302 84.9408 250.678 77.5674C259.739 68.5105 249.712 53.78 237.768 58.6037ZM264.834 59.5969C258.763 63.4046 257.903 72.3638 263.11 77.5674C270.538 84.9929 282.958 79.7914 282.958 69.2551C282.958 60.3241 272.533 54.7688 264.834 59.5969ZM295.446 58.5657C291.065 60.3578 288.93 64.0026 288.93 69.6882C288.93 74.2622 289.398 75.4975 291.968 77.7063C296.099 81.2579 299.668 81.9623 304.452 80.1714C313.207 76.8933 314.456 64.5009 306.519 59.6631C302.881 57.4466 299.099 57.0721 295.446 58.5657ZM323.109 59.3896C318.85 62.3235 317.78 64.2773 317.743 69.1911C317.716 72.7654 318.413 74.5759 320.878 77.3319C323.598 80.3754 324.763 80.8769 329.111 80.8769C333.46 80.8769 334.625 80.3754 337.345 77.3319C341.986 72.1413 341.792 66.1985 336.822 61.2304C332.588 56.9983 327.56 56.3232 323.109 59.3896ZM352.738 58.6569C349.786 59.8433 345.954 65.8294 345.948 69.2627C345.939 75.2174 352.031 81.4196 357.89 81.4196C363.645 81.4196 369.835 75.2326 369.835 69.4798C369.835 61.3162 360.626 55.4874 352.738 58.6569ZM439.759 58.6037C435.995 60.1244 432.822 65.0544 432.822 69.3843C432.822 80.0758 445.363 84.9549 452.826 77.1669C461.479 68.1393 451.445 53.8842 439.759 58.6037ZM466.817 59.6023C461.907 62.6806 460.137 68.8415 462.645 74.1244C464.481 77.9907 469.689 81.424 473.71 81.4153C476.906 81.4088 482.734 77.3318 483.89 74.2926C488.104 63.2146 476.703 53.4033 466.817 59.6023ZM497.315 58.6037C487.237 62.6741 488.905 78.2881 499.708 80.9985C504.229 82.1327 509.996 79.2053 512.414 74.5499C514.291 70.9332 514.401 69.8564 513.273 66.0921C511.242 59.319 503.981 55.9118 497.315 58.6037ZM33.5825 88.7702C24.3648 96.2337 29.2191 109.641 41.1387 109.641C45.69 109.641 49.3128 107.035 51.2708 102.351C53.2245 97.6773 51.7432 92.2772 47.6198 89.035C44.1251 86.2867 36.8198 86.1499 33.5825 88.7702ZM62.0035 89.289C53.7164 96.5311 58.5251 109.676 69.4391 109.617C78.633 109.567 83.6904 100.686 79.3269 92.2523C77.2473 88.234 74.6366 86.8468 69.1535 86.8468C66.1888 86.8468 63.9061 87.6272 62.0035 89.289ZM91.7765 88.2383C85.3486 93.3008 84.6601 100.524 90.0889 105.951C95.0594 110.919 101.005 111.112 106.198 106.474C109.243 103.755 109.745 102.59 109.745 98.2439C109.745 93.8978 109.243 92.7331 106.198 90.0141C103.441 87.5512 101.63 86.8544 98.0534 86.8815C95.5242 86.9 92.6996 87.5111 91.7765 88.2383ZM118.892 90.0195C116.293 92.617 115.718 94.1084 115.718 98.2439C115.718 105.412 119.949 109.641 127.121 109.641C131.258 109.641 132.75 109.066 135.349 106.468C137.948 103.871 138.523 102.379 138.523 98.2439C138.523 94.1084 137.948 92.617 135.349 90.0195C132.75 87.4221 131.258 86.8468 127.121 86.8468C122.983 86.8468 121.491 87.4221 118.892 90.0195ZM148.043 90.0141C144.998 92.7331 144.496 93.8978 144.496 98.2439C144.496 102.59 144.998 103.755 148.043 106.474C150.698 108.845 152.671 109.641 155.899 109.641C159.126 109.641 161.1 108.845 163.755 106.474C166.8 103.755 167.302 102.59 167.302 98.2439C167.302 93.8978 166.8 92.7331 163.755 90.0141C161.1 87.6424 159.126 86.8468 155.899 86.8468C152.671 86.8468 150.698 87.6424 148.043 90.0141ZM176.449 90.0195C171.956 94.51 171.946 101.477 176.425 106.27C179.081 109.111 180.373 109.641 184.653 109.641C188.818 109.641 190.302 109.07 192.905 106.468C195.504 103.871 196.08 102.379 196.08 98.2439C196.08 94.1084 195.504 92.617 192.905 90.0195C190.307 87.4221 188.815 86.8468 184.677 86.8468C180.54 86.8468 179.047 87.4221 176.449 90.0195ZM205.974 89.6255C195.503 98.4317 206.579 114.21 219.198 108.463C224.376 106.105 226.895 98.3079 224.188 93.0164C220.776 86.3475 211.848 84.6857 205.974 89.6255ZM235.573 88.7702C226.69 95.9623 231.052 109.555 242.263 109.617C247.63 109.646 251.197 107.29 253.262 102.351C255.215 97.6773 253.734 92.2772 249.611 89.035C246.116 86.2867 238.811 86.1499 235.573 88.7702ZM264.623 88.6172C260.667 91.3861 258.703 97.1118 260.177 101.576C264.32 114.123 282.958 111.296 282.958 98.1212C282.958 94.6652 281.189 91.1777 278.215 88.7702C275.262 86.3801 267.936 86.2976 264.623 88.6172ZM293.13 88.7702C286.424 94.1996 287.233 105.113 294.591 108.463C307.21 114.21 318.285 98.4317 307.814 89.6255C303.831 86.2748 296.723 85.8612 293.13 88.7702ZM320.883 90.0195C318.284 92.617 317.709 94.1084 317.709 98.2439C317.709 102.379 318.284 103.871 320.883 106.468C323.451 109.035 324.991 109.641 328.944 109.641C332.954 109.641 334.432 109.041 337.173 106.301C339.914 103.561 340.514 102.084 340.514 98.0768C340.514 94.1258 339.908 92.5866 337.34 90.0195C334.741 87.4221 333.249 86.8468 329.111 86.8468C324.974 86.8468 323.482 87.4221 320.883 90.0195ZM349.497 90.6762C346.009 94.1627 345.721 94.9149 346.281 99.0884C347.605 108.964 358.38 113.051 365.746 106.474C368.791 103.755 369.292 102.59 369.292 98.2439C369.292 93.8978 368.791 92.7331 365.746 90.0141C360.494 85.3239 354.613 85.5627 349.497 90.6762ZM378.439 90.0195C375.841 92.617 375.265 94.1084 375.265 98.2439C375.265 102.379 375.841 103.871 378.439 106.468C381.038 109.066 382.53 109.641 386.668 109.641C390.805 109.641 392.298 109.066 394.896 106.468C397.495 103.871 398.071 102.379 398.071 98.2439C398.071 94.1084 397.495 92.617 394.896 90.0195C392.298 87.4221 390.805 86.8468 386.668 86.8468C382.53 86.8468 381.038 87.4221 378.439 90.0195ZM407.59 90.0141C404.545 92.7331 404.043 93.8978 404.043 98.2439C404.043 102.59 404.545 103.755 407.59 106.474C412.783 111.112 418.729 110.919 423.7 105.951C427.934 101.718 428.609 96.6928 425.541 92.2447C422.606 87.9876 420.651 86.9185 415.735 86.8815C412.159 86.8544 410.348 87.5512 407.59 90.0141ZM437.98 88.0191C436.934 88.628 435.347 90.5427 434.451 92.274C430.098 100.687 435.167 109.567 444.349 109.617C455.263 109.676 460.072 96.5311 451.785 89.289C448.758 86.6438 441.491 85.9752 437.98 88.0191ZM466.614 88.6172C462.658 91.3861 460.694 97.1118 462.168 101.576C466.311 114.123 484.948 111.296 484.948 98.1212C484.948 94.6652 483.179 91.1777 480.206 88.7702C477.253 86.3801 469.927 86.2976 466.614 88.6172ZM35.7772 116.132C31.947 117.679 28.8401 122.578 28.8401 127.071C28.8401 139.577 46.4534 143.182 51.2686 131.662C55.4181 121.737 45.7921 112.088 35.7772 116.132ZM63.3924 116.872C55.4138 121.986 55.972 133.375 64.397 137.372C75.8887 142.822 86.4433 128.826 77.9803 119.36C74.2326 115.168 67.77 114.066 63.3924 116.872ZM91.7157 117.547C84.7014 122.259 85 132.462 92.2826 136.902C96.5417 139.497 100.165 139.484 104.475 136.857C114.11 130.985 109.554 115.089 98.2315 115.073C96.6775 115.07 93.7454 116.184 91.7157 117.547ZM122.655 116.082C115.44 119.154 113.498 128.833 118.887 134.86C121.607 137.904 122.772 138.405 127.121 138.405C131.469 138.405 132.634 137.904 135.354 134.86C139.662 130.042 139.733 124.042 135.537 119.389C132.317 115.819 126.673 114.37 122.655 116.082ZM150.212 116.767C146.95 118.536 143.953 123.44 143.953 127.008C143.953 132.761 150.143 138.948 155.899 138.948C157.153 138.948 159.612 138.206 161.364 137.301C164.796 135.528 167.844 130.685 167.844 127.008C167.844 123.331 164.796 118.488 161.364 116.715C157.403 114.668 154.055 114.683 150.212 116.767ZM180.212 116.082C172.996 119.154 171.055 128.833 176.443 134.86C179.135 137.872 180.349 138.405 184.516 138.405C188.463 138.405 190.071 137.782 192.75 135.217C195.526 132.559 196.08 131.193 196.08 127.008C196.08 122.907 195.514 121.445 192.991 119.03C189.661 115.84 183.9 114.511 180.212 116.082ZM207.323 117.159C197.688 123.031 202.244 138.927 213.566 138.944C215.12 138.946 218.037 137.84 220.047 136.486C226.96 131.83 226.96 122.187 220.047 117.53C215.584 114.523 211.827 114.414 207.323 117.159ZM237.768 116.132C230.861 118.922 228.667 128.611 233.611 134.486C240.566 142.746 253.656 138.237 253.961 127.476C254.213 118.594 245.97 112.819 237.768 116.132ZM265.383 116.872C257.546 121.895 257.923 132.981 266.08 137.372C277.282 143.401 288.482 128.879 279.971 119.36C276.223 115.168 269.761 114.066 265.383 116.872ZM293.741 117.53C286.828 122.187 286.828 131.83 293.741 136.486C298.205 139.493 301.961 139.602 306.466 136.857C316.1 130.985 311.545 115.089 300.222 115.073C298.668 115.07 295.751 116.176 293.741 117.53ZM323.785 116.672C319.158 119.162 317.781 121.533 317.743 127.074C317.666 138.061 330.666 142.88 337.734 134.486C345.769 124.941 334.693 110.799 323.785 116.672ZM352.202 116.767C348.941 118.536 345.944 123.44 345.944 127.008C345.944 132.761 352.134 138.948 357.89 138.948C361.569 138.948 366.413 135.901 368.188 132.471C369.094 130.719 369.835 128.262 369.835 127.008C369.835 123.331 366.787 118.488 363.355 116.715C359.394 114.668 356.046 114.683 352.202 116.767ZM382.202 116.082C374.987 119.154 373.045 128.833 378.434 134.86C381.154 137.904 382.32 138.405 386.668 138.405C391.016 138.405 392.181 137.904 394.902 134.86C399.21 130.042 399.28 124.042 395.084 119.389C391.864 115.819 386.22 114.37 382.202 116.082ZM409.386 117.114C404.615 120.023 402.834 124.846 404.491 130.373C405.896 135.06 410.751 138.937 415.229 138.944C421.187 138.953 427.392 132.864 427.392 127.008C427.392 121.152 421.187 115.063 415.229 115.073C413.855 115.075 411.226 115.994 409.386 117.114ZM439.759 116.132C432.852 118.922 430.657 128.611 435.602 134.486C442.544 142.733 455.989 137.802 455.989 127.008C455.989 118.414 447.761 112.901 439.759 116.132ZM62.0035 146.817C53.8163 153.972 58.5077 167.169 69.2393 167.169C74.6377 167.169 77.256 165.767 79.3269 161.764C83.7121 153.289 78.6341 144.449 69.3533 144.399C66.1573 144.383 63.9647 145.103 62.0035 146.817ZM90.0889 148.066C85.8547 152.298 85.1792 157.323 88.2471 161.771C91.1825 166.028 93.1372 167.098 98.0534 167.135C101.63 167.162 103.441 166.465 106.198 164.002C109.243 161.283 109.745 160.118 109.745 155.772C109.745 151.426 109.243 150.261 106.198 147.542C101.005 142.904 95.0594 143.097 90.0889 148.066ZM118.892 147.548C116.293 150.145 115.718 151.637 115.718 155.772C115.718 162.94 119.949 167.169 127.121 167.169C131.258 167.169 132.75 166.594 135.349 163.997C137.948 161.399 138.523 159.908 138.523 155.772C138.523 151.637 137.948 150.145 135.349 147.548C132.75 144.95 131.258 144.375 127.121 144.375C122.983 144.375 121.491 144.95 118.892 147.548ZM148.043 147.542C144.998 150.261 144.496 151.426 144.496 155.772C144.496 160.118 144.998 161.283 148.043 164.002C150.698 166.374 152.671 167.169 155.899 167.169C159.126 167.169 161.1 166.374 163.755 164.002C166.8 161.283 167.302 160.118 167.302 155.772C167.302 151.426 166.8 150.261 163.755 147.542C161.1 145.171 159.126 144.375 155.899 144.375C152.671 144.375 150.698 145.171 148.043 147.542ZM176.425 147.746C171.946 152.539 171.956 159.506 176.449 163.997C179.047 166.594 180.54 167.169 184.677 167.169C188.815 167.169 190.307 166.594 192.905 163.997C195.504 161.399 196.08 159.908 196.08 155.772C196.08 151.637 195.504 150.145 192.905 147.548C190.302 144.946 188.818 144.375 184.653 144.375C180.373 144.375 179.081 144.905 176.425 147.746ZM205.599 147.542C202.554 150.261 202.053 151.426 202.053 155.772C202.053 160.118 202.554 161.283 205.599 164.002C215.849 173.155 230.543 161.551 223.593 149.791C219.891 143.527 211.297 142.454 205.599 147.542ZM235.573 146.298C226.69 153.491 231.052 167.084 242.263 167.145C247.63 167.175 251.197 164.818 253.262 159.879C255.215 155.206 253.734 149.805 249.611 146.563C246.116 143.815 238.811 143.678 235.573 146.298ZM264.623 146.145C260.667 148.914 258.703 154.64 260.177 159.104C263.444 168.996 277.041 170.191 281.745 161C284.246 156.112 282.775 149.991 278.215 146.298C275.262 143.908 267.936 143.826 264.623 146.145ZM294.273 145.618C291.323 147.048 288.387 152.097 288.387 155.74C288.387 162.333 293.242 167.11 299.978 167.145C311.745 167.207 316.271 152.83 306.613 146.069C303.909 144.175 297.714 143.948 294.273 145.618ZM320.883 147.548C318.284 150.145 317.709 151.637 317.709 155.772C317.709 159.908 318.284 161.399 320.883 163.997C323.482 166.594 324.974 167.169 329.111 167.169C333.249 167.169 334.741 166.594 337.34 163.997C341.832 159.506 341.842 152.539 337.364 147.746C334.707 144.905 333.415 144.375 329.135 144.375C324.971 144.375 323.486 144.946 320.883 147.548ZM350.034 147.542C346.989 150.261 346.487 151.426 346.487 155.772C346.487 160.118 346.989 161.283 350.034 164.002C352.689 166.374 354.662 167.169 357.89 167.169C361.117 167.169 363.09 166.374 365.746 164.002C368.791 161.283 369.292 160.118 369.292 155.772C369.292 151.426 368.791 150.261 365.746 147.542C363.09 145.171 361.117 144.375 357.89 144.375C354.662 144.375 352.689 145.171 350.034 147.542ZM378.439 147.548C375.841 150.145 375.265 151.637 375.265 155.772C375.265 159.908 375.841 161.399 378.439 163.997C381.038 166.594 382.53 167.169 386.668 167.169C390.805 167.169 392.298 166.594 394.896 163.997C397.495 161.399 398.071 159.908 398.071 155.772C398.071 151.637 397.495 150.145 394.896 147.548C392.298 144.95 390.805 144.375 386.668 144.375C382.53 144.375 381.038 144.95 378.439 147.548ZM407.59 147.542C404.545 150.261 404.043 151.426 404.043 155.772C404.043 160.118 404.545 161.283 407.59 164.002C415.488 171.056 427.392 165.898 427.392 155.422C427.392 152.7 426.441 150.805 423.7 148.066C418.729 143.097 412.783 142.904 407.59 147.542ZM437.564 146.298C432.716 150.223 431.536 156.109 434.462 161.764C436.533 165.767 439.151 167.169 444.549 167.169C455.281 167.169 459.972 153.972 451.785 146.817C448.327 143.795 440.986 143.528 437.564 146.298ZM92.2826 174.643C83.0116 180.294 85.7037 194.358 96.3897 196.091C101.446 196.911 106.625 194.141 108.883 189.409C110.384 186.265 110.451 185.018 109.326 181.266C107.027 173.594 99.0742 170.504 92.2826 174.643ZM122.655 173.61C114.268 177.181 113.34 190.064 121.137 194.669C126.131 197.617 130.613 197.001 134.831 192.786C137.825 189.793 138.523 188.256 138.523 184.662C138.523 176.611 129.828 170.555 122.655 173.61ZM150.212 174.295C146.95 176.064 143.953 180.968 143.953 184.536C143.953 190.289 150.143 196.476 155.899 196.476C157.153 196.476 159.612 195.735 161.364 194.829C164.796 193.056 167.844 188.214 167.844 184.536C167.844 180.859 164.796 176.017 161.364 174.243C157.403 172.196 154.055 172.211 150.212 174.295ZM180.212 173.61C170.058 177.935 171.761 193.99 182.589 196.02C190.243 197.456 196.08 192.511 196.08 184.592C196.08 176.611 187.35 170.57 180.212 173.61ZM208.257 174.232C203.27 176.398 200.827 182.319 202.549 188.064C206.007 199.599 223.085 198.521 224.98 186.649C225.798 181.517 223.956 177.348 219.727 174.772C215.556 172.23 213.13 172.116 208.257 174.232ZM236.602 174.713C230.082 178.687 228.772 186.265 233.611 192.014C240.575 200.286 253.653 195.882 253.957 185.163C254.1 180.097 251.89 176.302 247.614 174.273C242.979 172.075 240.787 172.162 236.602 174.713ZM266.003 174.313C257.383 178.563 257.734 191.691 266.566 195.348C274.225 198.52 282.958 192.844 282.958 184.695C282.958 179.964 280.778 176.466 276.43 174.218C272.496 172.185 270.276 172.206 266.003 174.313ZM294.062 174.772C289.833 177.348 287.99 181.517 288.809 186.649C290.096 194.713 299.48 198.827 306.519 194.414C314.112 189.653 313.38 177.562 305.294 174.186C300.256 172.082 298.309 172.183 294.062 174.772ZM324.646 173.61C317.617 176.603 315.297 187.256 320.533 192.49C324.065 196.02 326.673 196.869 331.313 196C336.407 195.044 340.514 189.898 340.514 184.47C340.514 176.613 331.723 170.596 324.646 173.61ZM352.202 174.295C348.941 176.064 345.944 180.968 345.944 184.536C345.944 190.289 352.134 196.476 357.89 196.476C359.144 196.476 361.603 195.735 363.355 194.829C366.787 193.056 369.835 188.214 369.835 184.536C369.835 180.859 366.787 176.017 363.355 174.243C359.394 172.196 356.046 172.211 352.202 174.295ZM382.202 173.61C378.264 175.287 375.265 180.12 375.265 184.791C375.265 190.464 380.85 196.476 386.121 196.476C396.52 196.476 401.979 184.562 395.084 176.918C391.864 173.348 386.22 171.898 382.202 173.61ZM409.26 174.72C404.38 177.695 402.438 184.24 404.906 189.409C407.163 194.141 412.342 196.911 417.399 196.091C428.085 194.358 430.777 180.294 421.506 174.643C417.233 172.039 413.623 172.061 409.26 174.72ZM179.247 203.163C170.246 208.111 171.643 221.873 181.419 224.538C189.328 226.695 196.08 221.413 196.08 213.07C196.08 206.545 191.686 201.888 185.575 201.936C183.289 201.954 180.442 202.507 179.247 203.163ZM207.175 203.598C197.518 210.358 202.044 224.735 213.81 224.674C220.774 224.637 225.401 219.864 225.401 212.721C225.401 207.535 219.364 201.903 213.806 201.903C211.49 201.903 208.505 202.665 207.175 203.598ZM236.38 203.419C231.12 206.333 229.393 213.343 232.471 219.292C234.484 223.183 237.539 224.915 242.39 224.915C247.262 224.915 251.275 222.158 253.238 217.464C257.437 207.419 246.144 198.009 236.38 203.419ZM264.178 204.092C255.502 210.912 260.357 224.915 271.398 224.915C276.249 224.915 279.304 223.183 281.318 219.292C285.804 210.619 280.466 201.903 270.67 201.903C268.596 201.903 265.734 202.868 264.178 204.092ZM292.08 205.594C288.132 209.539 287.279 213.99 289.6 218.528C293.013 225.197 301.94 226.859 307.814 221.919C316.119 214.935 311.019 201.903 299.982 201.903C296.642 201.903 295.01 202.665 292.08 205.594ZM320.883 205.076C314.772 211.184 317.509 222.341 325.65 224.506C335.885 227.229 343.686 217.646 339.216 207.843C336.265 201.366 326.125 199.837 320.883 205.076ZM378.607 205.243C370.08 213.766 378.264 227.717 389.926 224.538C398.256 222.267 401.07 211.248 394.896 205.076C392.328 202.509 390.788 201.903 386.835 201.903C382.826 201.903 381.348 202.504 378.607 205.243ZM236.602 232.186C232.298 234.878 230.831 237.537 230.831 242.644C230.831 248.083 236.58 254.007 241.853 254C252.829 253.988 258.217 241.43 250.44 233.983C246.398 230.113 241.03 229.415 236.602 232.186ZM381.036 232.186C376.894 234.777 375.265 237.531 375.265 241.942C375.265 246.572 377.128 250.097 380.684 252.197C388.765 256.969 397.997 251.735 398.047 242.353C398.094 233.155 388.578 227.468 381.036 232.186Z" fill="white"/>
<path fill-rule="evenodd" clip-rule="evenodd" d="M5.27881 2.13483C-2.40988 6.82067 -1.53133 18.3448 6.81762 22.3044C14.6399 26.0145 23.3961 20.063 23.4059 11.0289C23.4091 8.33811 22.4502 6.43317 19.7179 3.7022C15.3653 -0.648233 10.6793 -1.15622 5.27881 2.13483ZM32.3944 3.84007C28.8813 7.35146 28.6098 8.07435 29.117 12.5681C29.7762 18.4186 32.1338 21.3189 37.5485 22.9405C42.999 24.5719 48.5971 21.9593 51.1438 16.5961C54.8556 8.77771 48.9012 0.0258284 39.8627 0.0160594C37.1445 0.0128031 35.256 0.97994 32.3944 3.84007ZM62.8429 2.13049C59.1072 4.40774 56.8158 10.0347 57.8605 14.3677C58.1885 15.7256 59.6969 18.1733 61.214 19.808C68.4335 27.5862 80.9667 22.3794 80.9667 11.6009C80.9667 8.26214 80.2044 6.63072 77.2744 3.7022C72.924 -0.646062 68.2359 -1.15622 62.8429 2.13049ZM93.4554 1.03747C84.3615 4.75835 84.4809 18.5858 93.64 22.4098C98.4096 24.4026 102.73 23.5516 106.382 19.9013C115.422 10.865 105.353 -3.82964 93.4554 1.03747ZM121.691 1.27193C115.94 4.43164 113.772 13.0326 117.413 18.2286C125.839 30.2542 143.461 19.6299 137.345 6.21175C134.985 1.03638 126.812 -1.5437 121.691 1.27193ZM150.747 1.12863C147.716 2.34649 143.961 8.33486 143.961 11.9515C143.961 23.1641 159.914 27.6513 165.753 18.081C168.415 13.7165 168.391 10.1465 165.668 5.68314C162.533 0.543591 156.662 -1.24848 150.747 1.12863ZM176.967 3.7022C170.834 9.83168 172.213 18.3469 179.988 22.3652C187.443 26.2185 196.103 20.4147 196.056 11.5966C195.998 0.899613 184.52 -3.84702 176.967 3.7022ZM207.27 2.13483C199.581 6.82067 200.46 18.3448 208.808 22.3044C216.631 26.0145 225.387 20.063 225.397 11.0289C225.4 8.33811 224.441 6.43317 221.709 3.7022C217.356 -0.648233 212.67 -1.15622 207.27 2.13483ZM234.523 3.7022C231.593 6.63072 230.831 8.26214 230.831 11.6009C230.831 22.3794 243.364 27.5862 250.584 19.808C254.049 16.074 254.821 12.9415 253.475 8.07003C252.215 3.50684 247.186 0.0214866 241.853 0.0160594C239.161 0.0128031 237.255 0.971241 234.523 3.7022ZM264.834 2.13049C261.098 4.40774 258.807 10.0347 259.851 14.3677C260.67 17.7608 265.256 22.489 268.525 23.3085C272.301 24.2561 278.167 22.0863 280.768 18.7822C284.33 14.2559 283.722 8.15684 279.265 3.7022C274.915 -0.646062 270.227 -1.15622 264.834 2.13049ZM292.08 3.7022C289.347 6.43317 288.388 8.33811 288.392 11.0289C288.402 20.063 297.158 26.0145 304.98 22.3044C313.329 18.3448 314.208 6.82067 306.519 2.13483C301.118 -1.15622 296.432 -0.648233 292.08 3.7022ZM36.6721 29.5389C32.3727 30.6808 28.8498 35.8822 28.8444 41.0956C28.8379 46.5347 34.7553 52.1128 40.5305 52.1128C54.1888 52.1128 56.5378 33.1306 43.3345 29.451C41.6339 28.9767 38.6355 29.0168 36.6721 29.5389ZM66.2181 29.4803C53.9521 32.7464 55.9676 52.1128 68.5736 52.1128C76.2797 52.1128 80.9667 47.4356 80.9667 39.7442C80.9667 32.6737 73.5669 27.5243 66.2181 29.4803ZM123.66 29.5096C115.518 31.675 112.781 42.8323 118.892 48.94C126.168 56.2125 138.444 50.9318 138.499 40.5051C138.541 32.6118 131.53 27.4169 123.66 29.5096ZM181.216 29.5096C171.513 32.0908 170.342 46.246 179.447 50.9003C183.928 53.1906 189.459 52.3852 192.905 48.94C195.478 46.3686 196.08 44.836 196.08 40.86C196.08 32.5912 189.247 27.3734 181.216 29.5096ZM238.663 29.5389C229.558 31.9583 228.229 46.9244 236.773 50.8157C243.869 54.047 251.295 51.0632 253.611 44.048C256.518 35.2451 248.065 27.0391 238.663 29.5389ZM268.499 29.4162C261.861 31.2344 258.119 37.8143 260.177 44.048C264.342 56.6597 282.972 53.7561 282.953 40.4986C282.95 38.0292 279.474 30.404 278.351 30.404C278.189 30.404 276.594 29.9937 274.805 29.4922C273.018 28.9908 270.18 28.9571 268.499 29.4162ZM325.65 29.5096C317.509 31.675 314.772 42.8323 320.883 48.94C326.061 54.1154 335.707 52.8292 338.967 46.5282C343.981 36.8374 336.077 26.7363 325.65 29.5096ZM498.21 29.5389C493.911 30.6808 490.388 35.8822 490.383 41.0956C490.376 46.5347 496.294 52.1128 502.069 52.1128C512.371 52.1128 517.861 39.5163 510.551 32.652C507.271 29.5726 502.557 28.3829 498.21 29.5389ZM91.139 31.242C85.1868 36.0613 84.7568 43.0928 90.0889 48.4223C93.0188 51.3508 94.6511 52.1128 97.9915 52.1128C109.028 52.1128 114.128 39.081 105.824 32.0973C101.84 28.7465 94.7325 28.333 91.139 31.242ZM148.435 31.5936C142.87 36.7755 142.863 44.6623 148.418 49.334C155.098 54.9523 165.788 51.3323 167.368 42.9159C168.238 38.2789 167.388 35.6716 163.857 32.1418C160.142 28.4274 152.14 28.143 148.435 31.5936ZM205.974 32.0973C197.67 39.081 202.769 52.1128 213.806 52.1128C219.364 52.1128 225.401 46.4815 225.401 41.2953C225.401 30.8241 213.941 25.398 205.974 32.0973ZM293.13 31.242C287.178 36.0613 286.748 43.0928 292.08 48.4223C295.01 51.3508 296.642 52.1128 299.982 52.1128C311.019 52.1128 316.119 39.081 307.814 32.0973C303.831 28.7465 296.723 28.333 293.13 31.242ZM349.932 32.1418C346.4 35.6716 345.551 38.2789 346.421 42.9159C347.371 47.9773 352.528 52.1128 357.89 52.1128C368.744 52.1128 373.461 39.144 365.354 31.5936C361.648 28.143 353.647 28.4274 349.932 32.1418ZM35.7772 58.6037C31.8808 60.1776 28.8401 65.0447 28.8401 69.7099C28.8401 74.5965 32.9885 79.6992 37.9785 80.9507C42.6884 82.1327 48.4136 79.291 50.8755 74.5499C52.7532 70.9332 52.8629 69.8564 51.7345 66.0921C49.7038 59.319 42.4429 55.9118 35.7772 58.6037ZM63.8529 58.9196C60.2236 61.022 57.9561 64.8026 57.8388 68.949C57.6954 73.9941 59.9456 77.7324 64.397 79.8436C75.8887 85.2935 86.4433 71.2979 77.9803 61.8318C74.5237 57.9655 67.8688 56.5935 63.8529 58.9196ZM93.4554 58.5657C87.5651 60.9754 84.8795 68.8264 87.9289 74.7203C93.0482 84.6151 107.704 82.3596 109.769 71.3608C111.447 62.4255 102.045 55.0521 93.4554 58.5657ZM121.118 59.3896C116.859 62.3235 115.79 64.2773 115.753 69.1911C115.725 72.7654 116.423 74.5759 118.887 77.3319C121.607 80.3754 122.772 80.8769 127.121 80.8769C131.469 80.8769 132.634 80.3754 135.354 77.3319C139.995 72.1413 139.801 66.1985 134.831 61.2304C130.597 56.9983 125.569 56.3232 121.118 59.3896ZM150.212 59.2387C146.95 61.0079 143.953 65.9119 143.953 69.4798C143.953 75.2326 150.143 81.4196 155.899 81.4196C157.153 81.4196 159.612 80.6783 161.364 79.773C164.796 77.9994 167.844 73.1572 167.844 69.4798C167.844 65.8023 164.796 60.9602 161.364 59.1866C157.403 57.1394 154.055 57.1546 150.212 59.2387ZM176.967 61.2304C171.996 66.1985 171.803 72.1413 176.443 77.3319C179.164 80.3754 180.329 80.8769 184.677 80.8769C189.025 80.8769 190.191 80.3754 192.911 77.3319C198.296 71.3088 196.839 62.2953 189.907 58.7524C185.367 56.4317 180.914 57.2849 176.967 61.2304ZM207.27 59.6023C199.041 64.7614 200.595 77.0768 209.881 80.2853C213.993 81.7061 214.839 81.6801 218.31 80.0259C225.701 76.5026 227.497 66.3331 221.69 60.8809C218.021 57.4358 211.629 56.8692 207.27 59.6023ZM237.768 58.6037C234.004 60.1244 230.831 65.0544 230.831 69.3843C230.831 79.799 243.302 84.9408 250.678 77.5674C259.739 68.5105 249.712 53.78 237.768 58.6037ZM264.834 59.5969C258.763 63.4046 257.903 72.3638 263.11 77.5674C270.538 84.9929 282.958 79.7914 282.958 69.2551C282.958 60.3241 272.533 54.7688 264.834 59.5969ZM295.446 58.5657C291.065 60.3578 288.93 64.0026 288.93 69.6882C288.93 74.2622 289.398 75.4975 291.968 77.7063C296.099 81.2579 299.668 81.9623 304.452 80.1714C313.207 76.8933 314.456 64.5009 306.519 59.6631C302.881 57.4466 299.099 57.0721 295.446 58.5657ZM323.109 59.3896C318.85 62.3235 317.78 64.2773 317.743 69.1911C317.716 72.7654 318.413 74.5759 320.878 77.3319C323.598 80.3754 324.763 80.8769 329.111 80.8769C333.46 80.8769 334.625 80.3754 337.345 77.3319C341.986 72.1413 341.792 66.1985 336.822 61.2304C332.588 56.9983 327.56 56.3232 323.109 59.3896ZM352.738 58.6569C349.786 59.8433 345.954 65.8294 345.948 69.2627C345.939 75.2174 352.031 81.4196 357.89 81.4196C363.645 81.4196 369.835 75.2326 369.835 69.4798C369.835 61.3162 360.626 55.4874 352.738 58.6569ZM439.759 58.6037C435.995 60.1244 432.822 65.0544 432.822 69.3843C432.822 80.0758 445.363 84.9549 452.826 77.1669C461.479 68.1393 451.445 53.8842 439.759 58.6037ZM466.817 59.6023C461.907 62.6806 460.137 68.8415 462.645 74.1244C464.481 77.9907 469.689 81.424 473.71 81.4153C476.906 81.4088 482.734 77.3318 483.89 74.2926C488.104 63.2146 476.703 53.4033 466.817 59.6023ZM497.315 58.6037C487.237 62.6741 488.905 78.2881 499.708 80.9985C504.229 82.1327 509.996 79.2053 512.414 74.5499C514.291 70.9332 514.401 69.8564 513.273 66.0921C511.242 59.319 503.981 55.9118 497.315 58.6037ZM33.5825 88.7702C24.3648 96.2337 29.2191 109.641 41.1387 109.641C45.69 109.641 49.3128 107.035 51.2708 102.351C53.2245 97.6773 51.7432 92.2772 47.6198 89.035C44.1251 86.2867 36.8198 86.1499 33.5825 88.7702ZM62.0035 89.289C53.7164 96.5311 58.5251 109.676 69.4391 109.617C78.633 109.567 83.6904 100.686 79.3269 92.2523C77.2473 88.234 74.6366 86.8468 69.1535 86.8468C66.1888 86.8468 63.9061 87.6272 62.0035 89.289ZM91.7765 88.2383C85.3486 93.3008 84.6601 100.524 90.0889 105.951C95.0594 110.919 101.005 111.112 106.198 106.474C109.243 103.755 109.745 102.59 109.745 98.2439C109.745 93.8978 109.243 92.7331 106.198 90.0141C103.441 87.5512 101.63 86.8544 98.0534 86.8815C95.5242 86.9 92.6996 87.5111 91.7765 88.2383ZM118.892 90.0195C116.293 92.617 115.718 94.1084 115.718 98.2439C115.718 105.412 119.949 109.641 127.121 109.641C131.258 109.641 132.75 109.066 135.349 106.468C137.948 103.871 138.523 102.379 138.523 98.2439C138.523 94.1084 137.948 92.617 135.349 90.0195C132.75 87.4221 131.258 86.8468 127.121 86.8468C122.983 86.8468 121.491 87.4221 118.892 90.0195ZM148.043 90.0141C144.998 92.7331 144.496 93.8978 144.496 98.2439C144.496 102.59 144.998 103.755 148.043 106.474C150.698 108.845 152.671 109.641 155.899 109.641C159.126 109.641 161.1 108.845 163.755 106.474C166.8 103.755 167.302 102.59 167.302 98.2439C167.302 93.8978 166.8 92.7331 163.755 90.0141C161.1 87.6424 159.126 86.8468 155.899 86.8468C152.671 86.8468 150.698 87.6424 148.043 90.0141ZM176.449 90.0195C171.956 94.51 171.946 101.477 176.425 106.27C179.081 109.111 180.373 109.641 184.653 109.641C188.818 109.641 190.302 109.07 192.905 106.468C195.504 103.871 196.08 102.379 196.08 98.2439C196.08 94.1084 195.504 92.617 192.905 90.0195C190.307 87.4221 188.815 86.8468 184.677 86.8468C180.54 86.8468 179.047 87.4221 176.449 90.0195ZM205.974 89.6255C195.503 98.4317 206.579 114.21 219.198 108.463C224.376 106.105 226.895 98.3079 224.188 93.0164C220.776 86.3475 211.848 84.6857 205.974 89.6255ZM235.573 88.7702C226.69 95.9623 231.052 109.555 242.263 109.617C247.63 109.646 251.197 107.29 253.262 102.351C255.215 97.6773 253.734 92.2772 249.611 89.035C246.116 86.2867 238.811 86.1499 235.573 88.7702ZM264.623 88.6172C260.667 91.3861 258.703 97.1118 260.177 101.576C264.32 114.123 282.958 111.296 282.958 98.1212C282.958 94.6652 281.189 91.1777 278.215 88.7702C275.262 86.3801 267.936 86.2976 264.623 88.6172ZM293.13 88.7702C286.424 94.1996 287.233 105.113 294.591 108.463C307.21 114.21 318.285 98.4317 307.814 89.6255C303.831 86.2748 296.723 85.8612 293.13 88.7702ZM320.883 90.0195C318.284 92.617 317.709 94.1084 317.709 98.2439C317.709 102.379 318.284 103.871 320.883 106.468C323.451 109.035 324.991 109.641 328.944 109.641C332.954 109.641 334.432 109.041 337.173 106.301C339.914 103.561 340.514 102.084 340.514 98.0768C340.514 94.1258 339.908 92.5866 337.34 90.0195C334.741 87.4221 333.249 86.8468 329.111 86.8468C324.974 86.8468 323.482 87.4221 320.883 90.0195ZM349.497 90.6762C346.009 94.1627 345.721 94.9149 346.281 99.0884C347.605 108.964 358.38 113.051 365.746 106.474C368.791 103.755 369.292 102.59 369.292 98.2439C369.292 93.8978 368.791 92.7331 365.746 90.0141C360.494 85.3239 354.613 85.5627 349.497 90.6762ZM378.439 90.0195C375.841 92.617 375.265 94.1084 375.265 98.2439C375.265 102.379 375.841 103.871 378.439 106.468C381.038 109.066 382.53 109.641 386.668 109.641C390.805 109.641 392.298 109.066 394.896 106.468C397.495 103.871 398.071 102.379 398.071 98.2439C398.071 94.1084 397.495 92.617 394.896 90.0195C392.298 87.4221 390.805 86.8468 386.668 86.8468C382.53 86.8468 381.038 87.4221 378.439 90.0195ZM407.59 90.0141C404.545 92.7331 404.043 93.8978 404.043 98.2439C404.043 102.59 404.545 103.755 407.59 106.474C412.783 111.112 418.729 110.919 423.7 105.951C427.934 101.718 428.609 96.6928 425.541 92.2447C422.606 87.9876 420.651 86.9185 415.735 86.8815C412.159 86.8544 410.348 87.5512 407.59 90.0141ZM437.98 88.0191C436.934 88.628 435.347 90.5427 434.451 92.274C430.098 100.687 435.167 109.567 444.349 109.617C455.263 109.676 460.072 96.5311 451.785 89.289C448.758 86.6438 441.491 85.9752 437.98 88.0191ZM466.614 88.6172C462.658 91.3861 460.694 97.1118 462.168 101.576C466.311 114.123 484.948 111.296 484.948 98.1212C484.948 94.6652 483.179 91.1777 480.206 88.7702C477.253 86.3801 469.927 86.2976 466.614 88.6172ZM35.7772 116.132C31.947 117.679 28.8401 122.578 28.8401 127.071C28.8401 139.577 46.4534 143.182 51.2686 131.662C55.4181 121.737 45.7921 112.088 35.7772 116.132ZM63.3924 116.872C55.4138 121.986 55.972 133.375 64.397 137.372C75.8887 142.822 86.4433 128.826 77.9803 119.36C74.2326 115.168 67.77 114.066 63.3924 116.872ZM91.7157 117.547C84.7014 122.259 85 132.462 92.2826 136.902C96.5417 139.497 100.165 139.484 104.475 136.857C114.11 130.985 109.554 115.089 98.2315 115.073C96.6775 115.07 93.7454 116.184 91.7157 117.547ZM122.655 116.082C115.44 119.154 113.498 128.833 118.887 134.86C121.607 137.904 122.772 138.405 127.121 138.405C131.469 138.405 132.634 137.904 135.354 134.86C139.662 130.042 139.733 124.042 135.537 119.389C132.317 115.819 126.673 114.37 122.655 116.082ZM150.212 116.767C146.95 118.536 143.953 123.44 143.953 127.008C143.953 132.761 150.143 138.948 155.899 138.948C157.153 138.948 159.612 138.206 161.364 137.301C164.796 135.528 167.844 130.685 167.844 127.008C167.844 123.331 164.796 118.488 161.364 116.715C157.403 114.668 154.055 114.683 150.212 116.767ZM180.212 116.082C172.996 119.154 171.055 128.833 176.443 134.86C179.135 137.872 180.349 138.405 184.516 138.405C188.463 138.405 190.071 137.782 192.75 135.217C195.526 132.559 196.08 131.193 196.08 127.008C196.08 122.907 195.514 121.445 192.991 119.03C189.661 115.84 183.9 114.511 180.212 116.082ZM207.323 117.159C197.688 123.031 202.244 138.927 213.566 138.944C215.12 138.946 218.037 137.84 220.047 136.486C226.96 131.83 226.96 122.187 220.047 117.53C215.584 114.523 211.827 114.414 207.323 117.159ZM237.768 116.132C230.861 118.922 228.667 128.611 233.611 134.486C240.566 142.746 253.656 138.237 253.961 127.476C254.213 118.594 245.97 112.819 237.768 116.132ZM265.383 116.872C257.546 121.895 257.923 132.981 266.08 137.372C277.282 143.401 288.482 128.879 279.971 119.36C276.223 115.168 269.761 114.066 265.383 116.872ZM293.741 117.53C286.828 122.187 286.828 131.83 293.741 136.486C298.205 139.493 301.961 139.602 306.466 136.857C316.1 130.985 311.545 115.089 300.222 115.073C298.668 115.07 295.751 116.176 293.741 117.53ZM323.785 116.672C319.158 119.162 317.781 121.533 317.743 127.074C317.666 138.061 330.666 142.88 337.734 134.486C345.769 124.941 334.693 110.799 323.785 116.672ZM352.202 116.767C348.941 118.536 345.944 123.44 345.944 127.008C345.944 132.761 352.134 138.948 357.89 138.948C361.569 138.948 366.413 135.901 368.188 132.471C369.094 130.719 369.835 128.262 369.835 127.008C369.835 123.331 366.787 118.488 363.355 116.715C359.394 114.668 356.046 114.683 352.202 116.767ZM382.202 116.082C374.987 119.154 373.045 128.833 378.434 134.86C381.154 137.904 382.32 138.405 386.668 138.405C391.016 138.405 392.181 137.904 394.902 134.86C399.21 130.042 399.28 124.042 395.084 119.389C391.864 115.819 386.22 114.37 382.202 116.082ZM409.386 117.114C404.615 120.023 402.834 124.846 404.491 130.373C405.896 135.06 410.751 138.937 415.229 138.944C421.187 138.953 427.392 132.864 427.392 127.008C427.392 121.152 421.187 115.063 415.229 115.073C413.855 115.075 411.226 115.994 409.386 117.114ZM439.759 116.132C432.852 118.922 430.657 128.611 435.602 134.486C442.544 142.733 455.989 137.802 455.989 127.008C455.989 118.414 447.761 112.901 439.759 116.132ZM62.0035 146.817C53.8163 153.972 58.5077 167.169 69.2393 167.169C74.6377 167.169 77.256 165.767 79.3269 161.764C83.7121 153.289 78.6341 144.449 69.3533 144.399C66.1573 144.383 63.9647 145.103 62.0035 146.817ZM90.0889 148.066C85.8547 152.298 85.1792 157.323 88.2471 161.771C91.1825 166.028 93.1372 167.098 98.0534 167.135C101.63 167.162 103.441 166.465 106.198 164.002C109.243 161.283 109.745 160.118 109.745 155.772C109.745 151.426 109.243 150.261 106.198 147.542C101.005 142.904 95.0594 143.097 90.0889 148.066ZM118.892 147.548C116.293 150.145 115.718 151.637 115.718 155.772C115.718 162.94 119.949 167.169 127.121 167.169C131.258 167.169 132.75 166.594 135.349 163.997C137.948 161.399 138.523 159.908 138.523 155.772C138.523 151.637 137.948 150.145 135.349 147.548C132.75 144.95 131.258 144.375 127.121 144.375C122.983 144.375 121.491 144.95 118.892 147.548ZM148.043 147.542C144.998 150.261 144.496 151.426 144.496 155.772C144.496 160.118 144.998 161.283 148.043 164.002C150.698 166.374 152.671 167.169 155.899 167.169C159.126 167.169 161.1 166.374 163.755 164.002C166.8 161.283 167.302 160.118 167.302 155.772C167.302 151.426 166.8 150.261 163.755 147.542C161.1 145.171 159.126 144.375 155.899 144.375C152.671 144.375 150.698 145.171 148.043 147.542ZM176.425 147.746C171.946 152.539 171.956 159.506 176.449 163.997C179.047 166.594 180.54 167.169 184.677 167.169C188.815 167.169 190.307 166.594 192.905 163.997C195.504 161.399 196.08 159.908 196.08 155.772C196.08 151.637 195.504 150.145 192.905 147.548C190.302 144.946 188.818 144.375 184.653 144.375C180.373 144.375 179.081 144.905 176.425 147.746ZM205.599 147.542C202.554 150.261 202.053 151.426 202.053 155.772C202.053 160.118 202.554 161.283 205.599 164.002C215.849 173.155 230.543 161.551 223.593 149.791C219.891 143.527 211.297 142.454 205.599 147.542ZM235.573 146.298C226.69 153.491 231.052 167.084 242.263 167.145C247.63 167.175 251.197 164.818 253.262 159.879C255.215 155.206 253.734 149.805 249.611 146.563C246.116 143.815 238.811 143.678 235.573 146.298ZM264.623 146.145C260.667 148.914 258.703 154.64 260.177 159.104C263.444 168.996 277.041 170.191 281.745 161C284.246 156.112 282.775 149.991 278.215 146.298C275.262 143.908 267.936 143.826 264.623 146.145ZM294.273 145.618C291.323 147.048 288.387 152.097 288.387 155.74C288.387 162.333 293.242 167.11 299.978 167.145C311.745 167.207 316.271 152.83 306.613 146.069C303.909 144.175 297.714 143.948 294.273 145.618ZM320.883 147.548C318.284 150.145 317.709 151.637 317.709 155.772C317.709 159.908 318.284 161.399 320.883 163.997C323.482 166.594 324.974 167.169 329.111 167.169C333.249 167.169 334.741 166.594 337.34 163.997C341.832 159.506 341.842 152.539 337.364 147.746C334.707 144.905 333.415 144.375 329.135 144.375C324.971 144.375 323.486 144.946 320.883 147.548ZM350.034 147.542C346.989 150.261 346.487 151.426 346.487 155.772C346.487 160.118 346.989 161.283 350.034 164.002C352.689 166.374 354.662 167.169 357.89 167.169C361.117 167.169 363.09 166.374 365.746 164.002C368.791 161.283 369.292 160.118 369.292 155.772C369.292 151.426 368.791 150.261 365.746 147.542C363.09 145.171 361.117 144.375 357.89 144.375C354.662 144.375 352.689 145.171 350.034 147.542ZM378.439 147.548C375.841 150.145 375.265 151.637 375.265 155.772C375.265 159.908 375.841 161.399 378.439 163.997C381.038 166.594 382.53 167.169 386.668 167.169C390.805 167.169 392.298 166.594 394.896 163.997C397.495 161.399 398.071 159.908 398.071 155.772C398.071 151.637 397.495 150.145 394.896 147.548C392.298 144.95 390.805 144.375 386.668 144.375C382.53 144.375 381.038 144.95 378.439 147.548ZM407.59 147.542C404.545 150.261 404.043 151.426 404.043 155.772C404.043 160.118 404.545 161.283 407.59 164.002C415.488 171.056 427.392 165.898 427.392 155.422C427.392 152.7 426.441 150.805 423.7 148.066C418.729 143.097 412.783 142.904 407.59 147.542ZM437.564 146.298C432.716 150.223 431.536 156.109 434.462 161.764C436.533 165.767 439.151 167.169 444.549 167.169C455.281 167.169 459.972 153.972 451.785 146.817C448.327 143.795 440.986 143.528 437.564 146.298ZM92.2826 174.643C83.0116 180.294 85.7037 194.358 96.3897 196.091C101.446 196.911 106.625 194.141 108.883 189.409C110.384 186.265 110.451 185.018 109.326 181.266C107.027 173.594 99.0742 170.504 92.2826 174.643ZM122.655 173.61C114.268 177.181 113.34 190.064 121.137 194.669C126.131 197.617 130.613 197.001 134.831 192.786C137.825 189.793 138.523 188.256 138.523 184.662C138.523 176.611 129.828 170.555 122.655 173.61ZM150.212 174.295C146.95 176.064 143.953 180.968 143.953 184.536C143.953 190.289 150.143 196.476 155.899 196.476C157.153 196.476 159.612 195.735 161.364 194.829C164.796 193.056 167.844 188.214 167.844 184.536C167.844 180.859 164.796 176.017 161.364 174.243C157.403 172.196 154.055 172.211 150.212 174.295ZM180.212 173.61C170.058 177.935 171.761 193.99 182.589 196.02C190.243 197.456 196.08 192.511 196.08 184.592C196.08 176.611 187.35 170.57 180.212 173.61ZM208.257 174.232C203.27 176.398 200.827 182.319 202.549 188.064C206.007 199.599 223.085 198.521 224.98 186.649C225.798 181.517 223.956 177.348 219.727 174.772C215.556 172.23 213.13 172.116 208.257 174.232ZM236.602 174.713C230.082 178.687 228.772 186.265 233.611 192.014C240.575 200.286 253.653 195.882 253.957 185.163C254.1 180.097 251.89 176.302 247.614 174.273C242.979 172.075 240.787 172.162 236.602 174.713ZM266.003 174.313C257.383 178.563 257.734 191.691 266.566 195.348C274.225 198.52 282.958 192.844 282.958 184.695C282.958 179.964 280.778 176.466 276.43 174.218C272.496 172.185 270.276 172.206 266.003 174.313ZM294.062 174.772C289.833 177.348 287.99 181.517 288.809 186.649C290.096 194.713 299.48 198.827 306.519 194.414C314.112 189.653 313.38 177.562 305.294 174.186C300.256 172.082 298.309 172.183 294.062 174.772ZM324.646 173.61C317.617 176.603 315.297 187.256 320.533 192.49C324.065 196.02 326.673 196.869 331.313 196C336.407 195.044 340.514 189.898 340.514 184.47C340.514 176.613 331.723 170.596 324.646 173.61ZM352.202 174.295C348.941 176.064 345.944 180.968 345.944 184.536C345.944 190.289 352.134 196.476 357.89 196.476C359.144 196.476 361.603 195.735 363.355 194.829C366.787 193.056 369.835 188.214 369.835 184.536C369.835 180.859 366.787 176.017 363.355 174.243C359.394 172.196 356.046 172.211 352.202 174.295ZM382.202 173.61C378.264 175.287 375.265 180.12 375.265 184.791C375.265 190.464 380.85 196.476 386.121 196.476C396.52 196.476 401.979 184.562 395.084 176.918C391.864 173.348 386.22 171.898 382.202 173.61ZM409.26 174.72C404.38 177.695 402.438 184.24 404.906 189.409C407.163 194.141 412.342 196.911 417.399 196.091C428.085 194.358 430.777 180.294 421.506 174.643C417.233 172.039 413.623 172.061 409.26 174.72ZM179.247 203.163C170.246 208.111 171.643 221.873 181.419 224.538C189.328 226.695 196.08 221.413 196.08 213.07C196.08 206.545 191.686 201.888 185.575 201.936C183.289 201.954 180.442 202.507 179.247 203.163ZM207.175 203.598C197.518 210.358 202.044 224.735 213.81 224.674C220.774 224.637 225.401 219.864 225.401 212.721C225.401 207.535 219.364 201.903 213.806 201.903C211.49 201.903 208.505 202.665 207.175 203.598ZM236.38 203.419C231.12 206.333 229.393 213.343 232.471 219.292C234.484 223.183 237.539 224.915 242.39 224.915C247.262 224.915 251.275 222.158 253.238 217.464C257.437 207.419 246.144 198.009 236.38 203.419ZM264.178 204.092C255.502 210.912 260.357 224.915 271.398 224.915C276.249 224.915 279.304 223.183 281.318 219.292C285.804 210.619 280.466 201.903 270.67 201.903C268.596 201.903 265.734 202.868 264.178 204.092ZM292.08 205.594C288.132 209.539 287.279 213.99 289.6 218.528C293.013 225.197 301.94 226.859 307.814 221.919C316.119 214.935 311.019 201.903 299.982 201.903C296.642 201.903 295.01 202.665 292.08 205.594ZM320.883 205.076C314.772 211.184 317.509 222.341 325.65 224.506C335.885 227.229 343.686 217.646 339.216 207.843C336.265 201.366 326.125 199.837 320.883 205.076ZM378.607 205.243C370.08 213.766 378.264 227.717 389.926 224.538C398.256 222.267 401.07 211.248 394.896 205.076C392.328 202.509 390.788 201.903 386.835 201.903C382.826 201.903 381.348 202.504 378.607 205.243ZM236.602 232.186C232.298 234.878 230.831 237.537 230.831 242.644C230.831 248.083 236.58 254.007 241.853 254C252.829 253.988 258.217 241.43 250.44 233.983C246.398 230.113 241.03 229.415 236.602 232.186ZM381.036 232.186C376.894 234.777 375.265 237.531 375.265 241.942C375.265 246.572 377.128 250.097 380.684 252.197C388.765 256.969 397.997 251.735 398.047 242.353C398.094 233.155 388.578 227.468 381.036 232.186Z" fill="#5632CF"/>
</g>
</svg>
