<svg width="1326" height="1326" viewBox="0 0 1326 1326" fill="none" xmlns="http://www.w3.org/2000/svg">
<path d="M542.33 521.7L401 663L542.33 804.299M783.67 521.7L925 663L783.67 804.299M688.971 475L627.588 851" stroke="#5632CF" stroke-width="50" stroke-linecap="round" stroke-linejoin="round"/>
<mask id="path-2-inside-1_1454_1807" fill="white">
<path fill-rule="evenodd" clip-rule="evenodd" d="M531 50C531 22.3858 553.386 0 581 0H747C774.614 0 797 22.3858 797 50V144.966C846.912 157.825 894.016 177.674 937.208 203.406L998.258 142.356C1017.78 122.83 1049.44 122.83 1068.97 142.356L1186.35 259.736C1205.87 279.262 1205.87 310.92 1186.35 330.447L1125.12 391.676C1150.6 434.626 1170.26 481.428 1183.03 531H1276C1303.61 531 1326 553.386 1326 581V747C1326 774.614 1303.61 797 1276 797H1183.8C1171.13 847.37 1151.36 894.917 1125.6 938.511L1183.35 996.258C1202.87 1015.78 1202.87 1047.44 1183.35 1066.97L1065.97 1184.35C1046.44 1203.87 1014.78 1203.87 995.257 1184.35L938.019 1127.11C894.606 1153.08 847.224 1173.09 797 1186.03V1276C797 1303.61 774.614 1326 747 1326H581C553.386 1326 531 1303.61 531 1276V1186.8C475.007 1172.72 422.504 1149.85 375.04 1119.75L310.445 1184.35C290.919 1203.88 259.261 1203.88 239.735 1184.35L122.355 1066.97C102.829 1047.44 102.829 1015.79 122.355 996.259L192.369 926.245C170.027 886.048 152.69 842.686 141.202 797H50C22.3858 797 9.44166e-06 774.614 7.25609e-06 747L0 581C-1.20706e-06 553.386 22.3858 531 50 531H141.966C154.906 480.776 174.923 433.394 200.89 389.981L141.354 330.445C121.828 310.919 121.828 279.261 141.354 259.735L258.734 142.355C278.26 122.829 309.919 122.829 329.445 142.355L389.489 202.399C433.083 176.644 480.63 156.868 531 144.202V50Z"/>
</mask>
<path d="M797 144.966H747C747 167.775 762.437 187.694 784.525 193.385L797 144.966ZM937.208 203.406L911.617 246.361C931.278 258.074 956.381 254.944 972.564 238.761L937.208 203.406ZM998.258 142.356L1033.61 177.712L1033.61 177.712L998.258 142.356ZM1068.97 142.356L1104.32 107.001L1104.32 107.001L1068.97 142.356ZM1186.35 259.736L1150.99 295.091L1150.99 295.091L1186.35 259.736ZM1186.35 330.447L1150.99 295.091L1150.99 295.091L1186.35 330.447ZM1125.12 391.676L1089.76 356.32C1073.61 372.477 1070.46 397.532 1082.12 417.184L1125.12 391.676ZM1183.03 531L1134.62 543.475C1140.31 565.563 1160.22 581 1183.03 581V531ZM1183.8 797V747C1160.88 747 1140.9 762.581 1135.31 784.807L1183.8 797ZM1125.6 938.511L1082.55 913.078C1070.95 932.723 1074.11 957.732 1090.25 973.866L1125.6 938.511ZM995.257 1184.35L1030.61 1148.99L1030.61 1148.99L995.257 1184.35ZM938.019 1127.11L973.374 1091.75C957.169 1075.55 932.021 1072.44 912.353 1084.2L938.019 1127.11ZM797 1186.03L784.525 1137.62C762.437 1143.31 747 1163.22 747 1186.03H797ZM531 1186.8H581C581 1163.88 565.419 1143.9 543.194 1138.31L531 1186.8ZM375.04 1119.75L401.817 1077.53C382.051 1064.99 356.235 1067.85 339.685 1084.4L375.04 1119.75ZM310.445 1184.35L275.09 1148.99L275.09 1148.99L310.445 1184.35ZM239.735 1184.35L275.09 1148.99L275.09 1148.99L239.735 1184.35ZM122.355 1066.97L157.71 1031.61L157.71 1031.61L122.355 1066.97ZM122.355 996.259L86.9994 960.904L86.9994 960.904L122.355 996.259ZM192.369 926.245L227.724 961.601C243.512 945.813 246.919 921.471 236.072 901.955L192.369 926.245ZM141.202 797L189.693 784.806C184.104 762.581 164.12 747 141.202 747V797ZM7.25609e-06 747L-50 747L-50 747L7.25609e-06 747ZM0 581L-50 581L0 581ZM141.966 531V581C164.775 581 184.694 565.563 190.385 543.475L141.966 531ZM200.89 389.981L243.8 415.647C255.564 395.979 252.451 370.831 236.245 354.626L200.89 389.981ZM141.354 330.445L176.71 295.09L176.71 295.09L141.354 330.445ZM141.354 259.735L176.71 295.09L176.71 295.09L141.354 259.735ZM258.734 142.355L223.379 107L223.379 107L258.734 142.355ZM329.445 142.355L294.089 177.71L294.089 177.71L329.445 142.355ZM389.489 202.399L354.134 237.754C370.268 253.888 395.277 257.053 414.922 245.447L389.489 202.399ZM531 144.202L543.194 192.693C565.419 187.104 581 167.12 581 144.202H531ZM581 -50C525.771 -50 481 -5.22845 481 50H581C581 49.9816 581 49.9678 581.001 49.9583C581.001 49.9487 581.002 49.9426 581.002 49.9396C581.003 49.9366 581.003 49.936 581.002 49.9377C581.002 49.9393 581.002 49.9425 581.001 49.947C580.999 49.9565 580.996 49.9684 580.992 49.9814C580.988 49.9943 580.984 50.0058 580.979 50.0153C580.971 50.0345 580.967 50.0404 580.97 50.0349C580.972 50.0321 580.976 50.0272 580.981 50.0208C580.986 50.0143 580.993 50.0072 581 50C581.007 49.9928 581.014 49.9864 581.021 49.9811C581.027 49.9757 581.032 49.9722 581.035 49.9704C581.04 49.9666 581.035 49.9714 581.015 49.9795C581.006 49.9835 580.994 49.9878 580.981 49.9918C580.968 49.9959 580.957 49.9988 580.947 50.0008C580.942 50.0017 580.939 50.0022 580.938 50.0025C580.936 50.0027 580.937 50.0026 580.94 50.0023C580.943 50.002 580.949 50.0014 580.958 50.0009C580.968 50.0005 580.982 50 581 50V-50ZM747 -50H581V50H747V-50ZM847 50C847 -5.22846 802.229 -50 747 -50V50C747.018 50 747.032 50.0005 747.042 50.0009C747.051 50.0014 747.057 50.002 747.06 50.0023C747.063 50.0026 747.064 50.0027 747.062 50.0025C747.061 50.0022 747.058 50.0017 747.053 50.0008C747.044 49.9988 747.032 49.9959 747.019 49.9918C747.006 49.9878 746.994 49.9835 746.985 49.9795C746.965 49.9714 746.96 49.9666 746.965 49.9704C746.968 49.9722 746.973 49.9757 746.979 49.9811C746.986 49.9864 746.993 49.9928 747 50C747.007 50.0072 747.014 50.0143 747.019 50.0208C747.024 50.0272 747.028 50.0321 747.03 50.0349C747.033 50.0404 747.029 50.0345 747.021 50.0153C747.016 50.0058 747.012 49.9943 747.008 49.9814C747.004 49.9684 747.001 49.9565 746.999 49.947C746.998 49.9425 746.998 49.9393 746.998 49.9377C746.997 49.936 746.997 49.9366 746.998 49.9396C746.998 49.9426 746.999 49.9487 746.999 49.9583C747 49.9678 747 49.9816 747 50H847ZM847 144.966V50H747V144.966H847ZM962.799 160.451C915.585 132.323 864.072 110.613 809.475 96.547L784.525 193.385C829.752 205.037 872.448 223.025 911.617 246.361L962.799 160.451ZM962.903 107.001L901.853 168.051L972.564 238.761L1033.61 177.712L962.903 107.001ZM1104.32 107.001C1065.27 67.9485 1001.95 67.9485 962.903 107.001L1033.61 177.712C1033.63 177.699 1033.64 177.689 1033.64 177.683C1033.65 177.676 1033.66 177.672 1033.66 177.67C1033.66 177.669 1033.66 177.668 1033.66 177.669C1033.66 177.67 1033.66 177.672 1033.65 177.675C1033.64 177.68 1033.63 177.686 1033.62 177.693C1033.61 177.699 1033.6 177.704 1033.59 177.708C1033.57 177.716 1033.56 177.717 1033.57 177.715C1033.57 177.715 1033.58 177.714 1033.59 177.713C1033.59 177.712 1033.6 177.712 1033.61 177.712C1033.62 177.712 1033.63 177.712 1033.64 177.713C1033.65 177.714 1033.66 177.715 1033.66 177.715C1033.67 177.717 1033.66 177.716 1033.64 177.708C1033.63 177.704 1033.62 177.699 1033.61 177.693C1033.59 177.686 1033.58 177.68 1033.58 177.675C1033.57 177.672 1033.57 177.67 1033.57 177.669C1033.57 177.668 1033.57 177.669 1033.57 177.671C1033.57 177.672 1033.58 177.676 1033.58 177.683C1033.59 177.689 1033.6 177.699 1033.61 177.712L1104.32 107.001ZM1221.7 224.381L1104.32 107.001L1033.61 177.712L1150.99 295.091L1221.7 224.381ZM1221.7 365.802C1260.76 326.75 1260.76 263.433 1221.7 224.381L1150.99 295.091C1151.01 295.104 1151.02 295.114 1151.02 295.122C1151.03 295.129 1151.03 295.133 1151.03 295.136C1151.04 295.138 1151.04 295.139 1151.04 295.137C1151.03 295.136 1151.03 295.133 1151.03 295.129C1151.02 295.121 1151.02 295.111 1151.01 295.099C1151.01 295.087 1151 295.076 1151 295.066C1150.99 295.047 1150.99 295.039 1150.99 295.046C1150.99 295.049 1150.99 295.055 1150.99 295.063C1150.99 295.072 1150.99 295.081 1150.99 295.091C1150.99 295.102 1150.99 295.111 1150.99 295.119C1150.99 295.128 1150.99 295.134 1150.99 295.137C1150.99 295.143 1150.99 295.136 1151 295.117C1151 295.107 1151.01 295.096 1151.01 295.084C1151.02 295.072 1151.02 295.061 1151.03 295.053C1151.03 295.049 1151.03 295.047 1151.04 295.046C1151.04 295.044 1151.04 295.045 1151.03 295.047C1151.03 295.049 1151.03 295.054 1151.02 295.061C1151.02 295.068 1151.01 295.078 1150.99 295.091L1221.7 365.802ZM1160.47 427.031L1221.7 365.802L1150.99 295.091L1089.76 356.32L1160.47 427.031ZM1231.45 518.525C1217.48 464.3 1195.97 413.117 1168.12 366.167L1082.12 417.184C1105.22 456.134 1123.04 498.556 1134.62 543.475L1231.45 518.525ZM1276 481H1183.03V581H1276V481ZM1376 581C1376 525.772 1331.23 481 1276 481V581C1276.02 581 1276.03 581 1276.04 581.001C1276.05 581.001 1276.06 581.002 1276.06 581.002C1276.06 581.003 1276.06 581.003 1276.06 581.002C1276.06 581.002 1276.06 581.002 1276.05 581.001C1276.04 580.999 1276.03 580.996 1276.02 580.992C1276.01 580.988 1275.99 580.984 1275.98 580.979C1275.97 580.971 1275.96 580.967 1275.97 580.97C1275.97 580.972 1275.97 580.976 1275.98 580.981C1275.99 580.986 1275.99 580.993 1276 581C1276.01 581.007 1276.01 581.014 1276.02 581.021C1276.02 581.027 1276.03 581.032 1276.03 581.035C1276.03 581.04 1276.03 581.035 1276.02 581.015C1276.02 581.006 1276.01 580.994 1276.01 580.981C1276 580.968 1276 580.956 1276 580.947C1276 580.942 1276 580.939 1276 580.938C1276 580.936 1276 580.937 1276 580.94C1276 580.943 1276 580.949 1276 580.958C1276 580.968 1276 580.982 1276 581H1376ZM1376 747V581H1276V747H1376ZM1276 847C1331.23 847 1376 802.228 1376 747H1276C1276 747.018 1276 747.032 1276 747.042C1276 747.051 1276 747.057 1276 747.06C1276 747.063 1276 747.064 1276 747.062C1276 747.061 1276 747.058 1276 747.053C1276 747.044 1276 747.032 1276.01 747.019C1276.01 747.006 1276.02 746.994 1276.02 746.985C1276.03 746.965 1276.03 746.96 1276.03 746.965C1276.03 746.968 1276.02 746.973 1276.02 746.979C1276.01 746.986 1276.01 746.993 1276 747C1275.99 747.007 1275.99 747.014 1275.98 747.019C1275.97 747.024 1275.97 747.028 1275.97 747.03C1275.96 747.033 1275.97 747.029 1275.98 747.021C1275.99 747.016 1276.01 747.012 1276.02 747.008C1276.03 747.004 1276.04 747.001 1276.05 746.999C1276.06 746.998 1276.06 746.998 1276.06 746.998C1276.06 746.997 1276.06 746.997 1276.06 746.998C1276.06 746.998 1276.05 746.999 1276.04 746.999C1276.03 747 1276.02 747 1276 747V847ZM1183.8 847H1276V747H1183.8V847ZM1168.65 963.944C1196.8 916.29 1218.43 864.292 1232.29 809.193L1135.31 784.807C1123.83 830.449 1105.91 873.545 1082.55 913.078L1168.65 963.944ZM1218.7 960.903L1160.96 903.156L1090.25 973.866L1147.99 1031.61L1218.7 960.903ZM1218.7 1102.32C1257.76 1063.27 1257.76 999.955 1218.7 960.903L1147.99 1031.61C1148.01 1031.63 1148.01 1031.64 1148.02 1031.64C1148.03 1031.65 1148.03 1031.66 1148.03 1031.66C1148.04 1031.66 1148.04 1031.66 1148.03 1031.66C1148.03 1031.66 1148.03 1031.66 1148.03 1031.65C1148.02 1031.64 1148.02 1031.63 1148.01 1031.62C1148.01 1031.61 1148 1031.6 1148 1031.59C1147.99 1031.57 1147.99 1031.56 1147.99 1031.57C1147.99 1031.57 1147.99 1031.58 1147.99 1031.59C1147.99 1031.59 1147.99 1031.6 1147.99 1031.61C1147.99 1031.62 1147.99 1031.63 1147.99 1031.64C1147.99 1031.65 1147.99 1031.66 1147.99 1031.66C1147.99 1031.67 1147.99 1031.66 1148 1031.64C1148 1031.63 1148.01 1031.62 1148.01 1031.61C1148.02 1031.59 1148.02 1031.58 1148.03 1031.58C1148.03 1031.57 1148.03 1031.57 1148.03 1031.57C1148.04 1031.57 1148.04 1031.57 1148.03 1031.57C1148.03 1031.57 1148.03 1031.58 1148.02 1031.58C1148.01 1031.59 1148.01 1031.6 1147.99 1031.61L1218.7 1102.32ZM1101.32 1219.7L1218.7 1102.32L1147.99 1031.61L1030.61 1148.99L1101.32 1219.7ZM959.902 1219.7C998.954 1258.76 1062.27 1258.76 1101.32 1219.7L1030.61 1148.99C1030.6 1149.01 1030.59 1149.02 1030.58 1149.02C1030.58 1149.03 1030.57 1149.03 1030.57 1149.03C1030.57 1149.04 1030.57 1149.04 1030.57 1149.04C1030.57 1149.03 1030.57 1149.03 1030.57 1149.03C1030.58 1149.02 1030.59 1149.02 1030.61 1149.01C1030.62 1149.01 1030.63 1149 1030.64 1149C1030.66 1148.99 1030.66 1148.99 1030.66 1148.99C1030.66 1148.99 1030.65 1148.99 1030.64 1148.99C1030.63 1148.99 1030.62 1148.99 1030.61 1148.99C1030.6 1148.99 1030.59 1148.99 1030.58 1148.99C1030.58 1148.99 1030.57 1148.99 1030.57 1148.99C1030.56 1148.99 1030.57 1148.99 1030.59 1149C1030.6 1149 1030.61 1149.01 1030.62 1149.01C1030.63 1149.02 1030.64 1149.02 1030.65 1149.03C1030.65 1149.03 1030.66 1149.03 1030.66 1149.04C1030.66 1149.04 1030.66 1149.04 1030.66 1149.03C1030.65 1149.03 1030.65 1149.03 1030.64 1149.02C1030.64 1149.02 1030.63 1149.01 1030.61 1148.99L959.902 1219.7ZM902.664 1162.47L959.902 1219.7L1030.61 1148.99L973.374 1091.75L902.664 1162.47ZM809.475 1234.45C864.414 1220.3 916.23 1198.4 963.685 1170.02L912.353 1084.2C872.982 1107.75 830.035 1125.89 784.525 1137.62L809.475 1234.45ZM747 1186.03V1276H847V1186.03H747ZM747 1276C747 1276.02 747 1276.03 746.999 1276.04C746.999 1276.05 746.998 1276.06 746.998 1276.06C746.997 1276.06 746.997 1276.06 746.998 1276.06C746.998 1276.06 746.998 1276.06 746.999 1276.05C747.001 1276.04 747.004 1276.03 747.008 1276.02C747.012 1276.01 747.016 1275.99 747.021 1275.98C747.029 1275.97 747.033 1275.96 747.03 1275.97C747.028 1275.97 747.024 1275.97 747.019 1275.98C747.014 1275.99 747.007 1275.99 747 1276C746.993 1276.01 746.986 1276.01 746.979 1276.02C746.973 1276.02 746.968 1276.03 746.965 1276.03C746.96 1276.03 746.966 1276.03 746.985 1276.02C746.994 1276.02 747.006 1276.01 747.019 1276.01C747.032 1276 747.044 1276 747.053 1276C747.058 1276 747.061 1276 747.062 1276C747.064 1276 747.063 1276 747.06 1276C747.057 1276 747.051 1276 747.042 1276C747.032 1276 747.018 1276 747 1276V1376C802.229 1376 847 1331.23 847 1276H747ZM747 1276H581V1376H747V1276ZM581 1276C580.982 1276 580.968 1276 580.958 1276C580.949 1276 580.943 1276 580.94 1276C580.937 1276 580.936 1276 580.938 1276C580.939 1276 580.942 1276 580.947 1276C580.956 1276 580.968 1276 580.981 1276.01C580.994 1276.01 581.006 1276.02 581.015 1276.02C581.035 1276.03 581.04 1276.03 581.035 1276.03C581.032 1276.03 581.027 1276.02 581.021 1276.02C581.014 1276.01 581.007 1276.01 581 1276C580.993 1275.99 580.986 1275.99 580.981 1275.98C580.976 1275.97 580.972 1275.97 580.97 1275.97C580.967 1275.96 580.971 1275.97 580.979 1275.98C580.984 1275.99 580.988 1276.01 580.992 1276.02C580.996 1276.03 580.999 1276.04 581.001 1276.05C581.002 1276.06 581.002 1276.06 581.002 1276.06C581.003 1276.06 581.003 1276.06 581.002 1276.06C581.002 1276.06 581.001 1276.05 581.001 1276.04C581 1276.03 581 1276.02 581 1276H481C481 1331.23 525.772 1376 581 1376V1276ZM581 1276V1186.8H481V1276H581ZM348.263 1161.98C400.141 1194.88 457.556 1219.89 518.807 1235.29L543.194 1138.31C492.458 1125.55 444.866 1104.83 401.817 1077.53L348.263 1161.98ZM345.801 1219.71L410.396 1155.11L339.685 1084.4L275.09 1148.99L345.801 1219.71ZM204.379 1219.71C243.432 1258.76 306.748 1258.76 345.801 1219.71L275.09 1148.99C275.077 1149.01 275.067 1149.02 275.06 1149.02C275.053 1149.03 275.048 1149.03 275.045 1149.04C275.043 1149.04 275.043 1149.04 275.044 1149.04C275.045 1149.04 275.048 1149.03 275.052 1149.03C275.06 1149.03 275.07 1149.02 275.082 1149.01C275.094 1149.01 275.106 1149 275.115 1149C275.135 1148.99 275.142 1148.99 275.135 1148.99C275.132 1148.99 275.126 1148.99 275.118 1148.99C275.11 1148.99 275.1 1148.99 275.09 1148.99C275.08 1148.99 275.07 1148.99 275.062 1148.99C275.053 1148.99 275.048 1148.99 275.044 1148.99C275.038 1148.99 275.045 1148.99 275.065 1149C275.074 1149 275.085 1149.01 275.097 1149.01C275.109 1149.02 275.12 1149.03 275.128 1149.03C275.132 1149.03 275.134 1149.04 275.136 1149.04C275.137 1149.04 275.137 1149.04 275.134 1149.04C275.132 1149.03 275.127 1149.03 275.12 1149.02C275.113 1149.02 275.103 1149.01 275.09 1148.99L204.379 1219.71ZM86.9994 1102.33L204.379 1219.71L275.09 1148.99L157.71 1031.61L86.9994 1102.33ZM86.9994 960.904C47.9471 999.956 47.9469 1063.27 86.9995 1102.33L157.71 1031.61C157.697 1031.6 157.688 1031.59 157.681 1031.58C157.675 1031.58 157.671 1031.57 157.669 1031.57C157.667 1031.57 157.667 1031.57 157.668 1031.57C157.669 1031.57 157.671 1031.57 157.673 1031.58C157.679 1031.58 157.685 1031.6 157.691 1031.61C157.697 1031.62 157.703 1031.63 157.706 1031.64C157.714 1031.66 157.715 1031.67 157.714 1031.66C157.713 1031.66 157.712 1031.65 157.711 1031.64C157.711 1031.63 157.71 1031.62 157.71 1031.61C157.71 1031.6 157.711 1031.59 157.711 1031.59C157.712 1031.58 157.713 1031.57 157.714 1031.57C157.715 1031.56 157.714 1031.57 157.706 1031.59C157.703 1031.6 157.697 1031.61 157.691 1031.62C157.685 1031.63 157.679 1031.64 157.673 1031.65C157.671 1031.66 157.669 1031.66 157.668 1031.66C157.667 1031.66 157.667 1031.66 157.669 1031.66C157.671 1031.66 157.675 1031.65 157.681 1031.64C157.688 1031.64 157.697 1031.63 157.71 1031.61L86.9994 960.904ZM157.013 890.89L86.9994 960.904L157.71 1031.61L227.724 961.601L157.013 890.89ZM92.7118 809.194C105.278 859.166 124.24 906.59 148.666 950.536L236.072 901.955C215.813 865.506 200.103 826.205 189.693 784.806L92.7118 809.194ZM50 847H141.202V747H50V847ZM-50 747C-50 802.229 -5.22844 847 50 847V747C49.9817 747 49.9678 747 49.9583 746.999C49.9487 746.999 49.9426 746.998 49.9396 746.998C49.9366 746.997 49.9361 746.997 49.9377 746.998C49.9393 746.998 49.9425 746.998 49.947 746.999C49.9565 747.001 49.9684 747.004 49.9814 747.008C49.9943 747.012 50.0058 747.016 50.0153 747.021C50.0345 747.029 50.0404 747.033 50.0349 747.03C50.0321 747.028 50.0272 747.024 50.0208 747.019C50.0143 747.014 50.0072 747.007 50 747C49.9928 746.993 49.9864 746.986 49.9811 746.979C49.9757 746.973 49.9722 746.968 49.9704 746.965C49.9667 746.96 49.9714 746.965 49.9795 746.985C49.9835 746.994 49.9878 747.006 49.9918 747.019C49.9959 747.032 49.9988 747.043 50.0008 747.053C50.0017 747.058 50.0022 747.061 50.0025 747.062C50.0027 747.064 50.0026 747.063 50.0023 747.06C50.002 747.057 50.0014 747.051 50.001 747.042C50.0005 747.032 50 747.018 50 747L-50 747ZM-50 581L-50 747L50 747L50 581L-50 581ZM50 481C-5.22847 481 -50 525.771 -50 581L50 581C50 580.982 50.0005 580.968 50.0009 580.958C50.0014 580.949 50.002 580.943 50.0023 580.94C50.0026 580.937 50.0027 580.936 50.0025 580.938C50.0022 580.939 50.0017 580.942 50.0008 580.947C49.9988 580.956 49.9959 580.968 49.9918 580.981C49.9878 580.994 49.9835 581.006 49.9795 581.015C49.9714 581.035 49.9666 581.04 49.9704 581.035C49.9722 581.032 49.9757 581.027 49.9811 581.021C49.9864 581.014 49.9928 581.007 50 581C50.0072 580.993 50.0143 580.986 50.0208 580.981C50.0272 580.976 50.0321 580.972 50.0349 580.97C50.0404 580.967 50.0345 580.971 50.0153 580.979C50.0058 580.984 49.9943 580.988 49.9814 580.992C49.9684 580.996 49.9565 580.999 49.947 581.001C49.9425 581.002 49.9393 581.002 49.9377 581.002C49.936 581.003 49.9366 581.003 49.9396 581.002C49.9426 581.002 49.9487 581.001 49.9583 581.001C49.9678 581 49.9816 581 50 581V481ZM141.966 481H50V581H141.966V481ZM157.98 364.314C129.595 411.77 107.702 463.586 93.547 518.525L190.385 543.475C202.11 497.965 220.25 455.018 243.8 415.647L157.98 364.314ZM105.999 365.801L165.535 425.336L236.245 354.626L176.71 295.09L105.999 365.801ZM105.999 224.379C66.9465 263.432 66.9466 326.748 105.999 365.801L176.71 295.09C176.697 295.077 176.687 295.067 176.681 295.06C176.674 295.053 176.67 295.048 176.669 295.046C176.667 295.043 176.666 295.043 176.667 295.044C176.668 295.045 176.67 295.048 176.673 295.052C176.678 295.06 176.684 295.07 176.691 295.083C176.697 295.095 176.702 295.106 176.706 295.115C176.714 295.135 176.715 295.142 176.713 295.136C176.713 295.132 176.712 295.126 176.711 295.118C176.71 295.11 176.71 295.1 176.71 295.09C176.71 295.08 176.71 295.07 176.711 295.062C176.712 295.054 176.713 295.048 176.713 295.044C176.715 295.038 176.714 295.045 176.706 295.065C176.702 295.074 176.697 295.085 176.691 295.097C176.684 295.109 176.678 295.12 176.673 295.128C176.67 295.132 176.668 295.134 176.667 295.136C176.666 295.137 176.667 295.137 176.669 295.134C176.67 295.132 176.674 295.127 176.681 295.12C176.687 295.113 176.697 295.103 176.71 295.09L105.999 224.379ZM223.379 107L105.999 224.379L176.71 295.09L294.089 177.71L223.379 107ZM364.8 107C325.748 67.9471 262.431 67.9471 223.379 107L294.089 177.71C294.102 177.697 294.112 177.688 294.12 177.681C294.127 177.675 294.131 177.671 294.134 177.669C294.136 177.667 294.137 177.667 294.135 177.668C294.134 177.669 294.131 177.671 294.127 177.673C294.119 177.679 294.109 177.685 294.097 177.691C294.085 177.698 294.074 177.703 294.064 177.707C294.045 177.714 294.037 177.715 294.044 177.714C294.047 177.713 294.053 177.712 294.061 177.712C294.07 177.711 294.079 177.71 294.089 177.71C294.1 177.71 294.109 177.711 294.117 177.712C294.126 177.712 294.132 177.713 294.135 177.714C294.142 177.715 294.134 177.714 294.115 177.707C294.105 177.703 294.094 177.698 294.082 177.691C294.07 177.685 294.059 177.679 294.051 177.673C294.048 177.671 294.045 177.669 294.044 177.668C294.042 177.667 294.043 177.667 294.045 177.669C294.047 177.671 294.052 177.675 294.059 177.681C294.066 177.688 294.076 177.697 294.089 177.71L364.8 107ZM424.844 167.044L364.8 107L294.089 177.71L354.134 237.754L424.844 167.044ZM518.806 95.7118C463.708 109.567 411.71 131.196 364.056 159.351L414.922 245.447C454.455 222.091 497.551 204.17 543.194 192.693L518.806 95.7118ZM481 50V144.202H581V50H481Z" fill="#5632CF" mask="url(#path-2-inside-1_1454_1807)"/>
<circle cx="663" cy="663" r="367" stroke="#5632CF" stroke-width="50"/>
</svg>
