<?xml version="1.0"?>
<svg xmlns="http://www.w3.org/2000/svg" viewBox="0 0 64 64" width="512" height="512"><g id="Outlines"><g><circle cx="33" cy="40" r="1"/><circle cx="37" cy="40" r="1"/><circle cx="41" cy="40" r="1"/><path d="M22,39a1,1,0,0,0,0,2h6a1,1,0,0,0,0-2Z"/><circle cx="33" cy="32" r="1"/><circle cx="37" cy="32" r="1"/><circle cx="41" cy="32" r="1"/><path d="M22,33h6a1,1,0,0,0,0-2H22a1,1,0,0,0,0,2Z"/><circle cx="33" cy="24" r="1"/><circle cx="37" cy="24" r="1"/><circle cx="41" cy="24" r="1"/><path d="M22,23a1,1,0,0,0,0,2h6a1,1,0,0,0,0-2Z"/><path d="M61,52H59V43a3,3,0,0,0-3-3H44a3,3,0,0,0-3,3v9H39a1,1,0,0,0-1,1v2a3,3,0,0,0,3,3h8v2H26V45H38a1,1,0,0,0,0-2H19V37H45a1,1,0,0,0,2,0V34h6a1,1,0,0,0,1-1V19.941A8.985,8.985,0,0,0,60.747,6.434a1,1,0,1,0-1.722,1.017,7.026,7.026,0,1,1-2.476-2.475,1,1,0,1,0,1.017-1.723A9,9,0,1,0,52,19.941V32H47V20a1,1,0,0,0-1-1H39a1,1,0,0,0,0,2h6v6H19V21H35a1,1,0,0,0,0-2H24.9A12,12,0,1,0,9,24.9V40a1,1,0,0,0,1,1h7v3a1,1,0,0,0,1,1h6V55H15V51a3,3,0,0,0-3-3H8a3,3,0,0,0-3,3v8a3,3,0,0,0,3,3h4a3,3,0,0,0,3-3V57h9v4a1,1,0,0,0,1,1H50a1,1,0,0,0,1-1V58h8a3,3,0,0,0,3-3V53A1,1,0,0,0,61,52ZM45,29v6H19V29ZM20.371,19q.206-.782.346-1.6a14.981,14.981,0,0,0,2.938-.866A9.948,9.948,0,0,1,22.627,19ZM4,14.055l0-.025c.162-.37,1.224-.9,3.037-1.322Q7,13.344,7,14c0,.441.014.875.039,1.3C5.231,14.888,4.17,14.382,4,14.055ZM9,14c0-.569.031-1.126.079-1.673A33.846,33.846,0,0,1,13,12.014v3.972a34.1,34.1,0,0,1-3.921-.311C9.031,15.128,9,14.57,9,14Zm6-1.986a34.1,34.1,0,0,1,3.921.311C18.969,12.872,19,13.43,19,14s-.031,1.122-.08,1.673a33.828,33.828,0,0,1-3.92.313Zm5.961.684c1.808.414,2.869.92,3.035,1.247l0,.025c-.163.37-1.229.9-3.049,1.325.026-.429.051-.859.051-1.295S20.986,13.125,20.961,12.7Zm2.7-1.224a14.865,14.865,0,0,0-2.946-.869,14.977,14.977,0,0,0-1.884-5.357A10.034,10.034,0,0,1,23.665,11.474Zm-5.041-1.2c-1.246-.151-2.5-.232-3.624-.262v-5.8C16.629,4.9,17.993,7.242,18.624,10.277ZM13,4.211v5.8c-1.127.03-2.378.111-3.624.262C10.007,7.242,11.371,4.9,13,4.211ZM9.165,5.248a14.977,14.977,0,0,0-1.884,5.357,14.865,14.865,0,0,0-2.946.869A10.034,10.034,0,0,1,9.165,5.248ZM4.335,16.526a14.865,14.865,0,0,0,2.946.869,14.977,14.977,0,0,0,1.884,5.357A10.034,10.034,0,0,1,4.335,16.526ZM11,39V25.605A11.932,11.932,0,0,0,14,26a1,1,0,0,0,0-2c-2.056,0-3.868-2.638-4.624-6.277,1.246.151,2.5.232,3.624.262V21a1,1,0,0,0,2,0V17.985c1.123-.029,2.368-.11,3.609-.26-.093.438-.2.862-.325,1.275H18a1,1,0,0,0-1,1V39Zm2,12v4.149L8.88,50H12A1,1,0,0,1,13,51Zm-1,9H8a1,1,0,0,1-1-1V51a.964.964,0,0,1,.024-.119L13,58.351V59A1,1,0,0,1,12,60ZM57,43v4.586L51.414,42H56A1,1,0,0,1,57,43ZM43,43a1,1,0,0,1,1-1h4.586L57,50.414V52H43ZM60,55a1,1,0,0,1-1,1H41a1,1,0,0,1-1-1V54H60Z"/><circle cx="35" cy="16" r="1"/><path d="M38.536,12.465a5.008,5.008,0,0,0-7.072,0,1,1,0,1,0,1.414,1.414,3,3,0,0,1,4.244,0,1,1,0,1,0,1.414-1.414Z"/><path d="M30.05,11.05a7.009,7.009,0,0,1,9.9,0,1,1,0,0,0,1.414-1.414,9.009,9.009,0,0,0-12.728,0A1,1,0,0,0,30.05,11.05Z"/><path d="M56,16a1,1,0,0,0,1-1V13a2.994,2.994,0,0,0-1.4-2.529A2.967,2.967,0,0,0,56,9a3,3,0,0,0-6,0,2.967,2.967,0,0,0,.4,1.471A2.994,2.994,0,0,0,49,13v2a1,1,0,0,0,2,0V13a1,1,0,0,1,1-1h2a1,1,0,0,1,1,1v2A1,1,0,0,0,56,16ZM53,8a1,1,0,1,1-1,1A1,1,0,0,1,53,8Z"/></g></g></svg>
