<svg width="515" height="435" viewBox="0 0 515 435" fill="none" xmlns="http://www.w3.org/2000/svg">
<g opacity="0.4">
<circle cx="58.4799" cy="264.103" r="58.4799" fill="#3EF6F6" fill-opacity="0.6"/>
<circle cx="408.887" cy="222.129" r="76.8727" fill="#3EF6F6" fill-opacity="0.2"/>
<circle cx="317.867" cy="58.4799" r="58.4799" fill="#3EF6F6" fill-opacity="0.6"/>
<circle cx="306.548" cy="366.914" r="47.1612" fill="#3EF6F6" fill-opacity="0.6"/>
<circle cx="130.165" cy="189.588" r="104.698" fill="#3EF6F6" fill-opacity="0.3"/>
<circle cx="218.827" cy="304.661" r="93.3791" fill="#AB4FE4" fill-opacity="0.15"/>
<circle cx="352.765" cy="315.98" r="69.7985" fill="#AB4FE4" fill-opacity="0.45"/>
<circle cx="130.165" cy="74.5146" r="27.3535" fill="#AB4FE4" fill-opacity="0.35"/>
<circle cx="213.64" cy="92.9076" r="80.6456" fill="#AB4FE4" fill-opacity="0.15"/>
<circle cx="234.862" cy="170.724" r="33.0128" fill="#3EF6F6" fill-opacity="0.5"/>
</g>
<path fill-rule="evenodd" clip-rule="evenodd" d="M9.36636 47.5685C8.96805 47.9683 8.85134 48.8179 8.85134 51.3214V54.5577L5.05182 54.6681C1.52079 54.7707 1.20772 54.8335 0.626152 55.5549C0.0154091 56.3121 0 57.7213 0 113.355V170.379L0.804817 171.186L1.6093 171.993H32.7392H63.8687L65.3354 174.048C71.433 182.592 82.4214 187.714 93.103 186.993C111.214 185.769 124.566 170.034 122.896 151.884C121.803 139.999 113.781 129.323 102.78 125.11L100.315 124.166V95.2242V66.282L90.7243 56.6672L81.133 47.052H45.5074C13.5573 47.052 9.8286 47.1053 9.36636 47.5685ZM12.4574 105.413V160.156H35.8263H59.1952L59.184 155.471C59.1778 152.894 59.285 150.385 59.4217 149.894L59.6705 149.003L56.8105 148.908C54.1066 148.818 53.9243 148.766 53.467 147.947C53.0333 147.17 53.0412 146.991 53.5451 146.22C54.0879 145.389 54.2148 145.361 57.342 145.361C60.4776 145.361 60.5832 145.337 60.7733 144.577C60.9258 143.967 62.4577 140.474 63.1937 139.057C63.2569 138.935 61.2224 138.787 58.6729 138.728C54.5335 138.632 53.9876 138.552 53.5726 137.982C52.9835 137.173 52.9835 136.451 53.5726 135.642C53.9981 135.058 54.543 134.995 60.0131 134.9L65.9887 134.797L68.4035 132.375C72.3719 128.395 77.2411 125.537 82.8109 123.919C85.0617 123.265 86.1357 123.167 91.0541 123.167H96.7091V95.9597V68.7522H88.4226C81.453 68.7522 80.0201 68.671 79.4074 68.2403C78.6861 67.734 78.6786 67.6406 78.6786 59.1985V50.6687H45.568H12.4574V105.413ZM82.2847 59.3817V65.1355H88.0217C91.177 65.1355 93.7587 65.0231 93.7587 64.8853C93.7587 64.5631 82.8486 53.6278 82.527 53.6278C82.3939 53.6278 82.2847 56.2171 82.2847 59.3817ZM3.93393 113.468V168.376H32.7828C48.6496 168.376 61.6316 168.257 61.6316 168.111C61.6316 167.965 61.3231 166.93 60.9458 165.81L60.2599 163.773H35.2844C13.2098 163.773 10.224 163.713 9.58011 163.261L8.85134 162.749V110.654V58.5597H6.39264H3.93393V113.468ZM43.3509 67.7659C41.543 69.2096 41.3063 69.3076 41.3063 68.6112C41.3063 68.3531 41.0745 67.9092 40.7912 67.6248C40.3457 67.1783 38.9492 67.1083 30.488 67.1083C22.0267 67.1083 20.6302 67.1783 20.1847 67.6248C19.7388 68.0723 19.6697 69.5035 19.6697 78.299C19.6697 88.005 19.6978 88.4718 20.3037 88.797C20.6997 89.0094 24.5566 89.1373 30.5676 89.1373C38.3621 89.1373 40.3188 89.0485 40.8339 88.6711C41.4246 88.2384 41.4777 87.685 41.5751 80.954L41.6797 73.7029L44.4436 71.5384C46.7741 69.7133 47.2072 69.2254 47.2072 68.4241C47.2072 67.4982 46.2342 66.4507 45.3739 66.4507C45.1671 66.4507 44.257 67.0425 43.3509 67.7659ZM23.2758 78.1228V85.5206H30.488H37.7002V81.2269C37.7002 77.8779 37.61 76.9881 37.2904 77.1831C37.0652 77.3206 35.8014 78.2911 34.4822 79.3397C33.1191 80.4234 31.756 81.2463 31.3236 81.2463C30.2142 81.2463 26.5635 77.4231 26.558 76.2556C26.5534 75.2091 27.3221 74.3417 28.2551 74.3417C28.6239 74.3417 29.5196 74.9371 30.245 75.6648L31.5642 76.9875L33.0748 75.7904C33.9059 75.1318 35.2864 74.0609 36.143 73.4109C37.2028 72.606 37.7002 71.9885 37.7002 71.4769V70.725H30.488H23.2758V78.1228ZM54.4194 71.282C53.1618 71.7327 52.737 73.2649 53.6231 74.154C54.0761 74.608 55.9133 74.6705 68.8556 74.6705C83.0708 74.6705 83.5845 74.6488 83.9124 74.0346C84.4159 73.0906 84.3281 72.4456 83.596 71.7114C82.96 71.0735 82.5214 71.0544 68.9257 71.0798C61.2179 71.0939 54.6898 71.185 54.4194 71.282ZM53.6185 82.306C52.9438 83.2717 52.9746 83.7428 53.7637 84.5342C54.3994 85.1718 54.8564 85.1918 68.793 85.1918C82.3014 85.1918 83.1993 85.1557 83.7091 84.5905C84.393 83.8329 84.4048 82.7617 83.7366 82.0917C83.2836 81.6376 81.4619 81.5751 68.6749 81.5751H54.1286L53.6185 82.306ZM43.3509 99.6587C41.543 101.102 41.3063 101.2 41.3063 100.504C41.3063 100.246 41.0745 99.802 40.7912 99.5176C40.3457 99.0711 38.9492 99.0011 30.488 99.0011C22.0267 99.0011 20.6302 99.0711 20.1847 99.5176C19.7388 99.9651 19.6697 101.396 19.6697 110.192C19.6697 119.898 19.6978 120.365 20.3037 120.69C20.6997 120.902 24.5566 121.03 30.5676 121.03C38.3621 121.03 40.3188 120.941 40.8339 120.564C41.4246 120.131 41.4777 119.578 41.5748 112.855L41.6797 105.612L44.6072 103.293C47.7153 100.831 48.1565 99.996 46.9354 98.8876C46.0063 98.0443 45.1389 98.231 43.3509 99.6587ZM23.2758 110.016V117.413H30.488H37.7002V113.1V108.787L36.4708 109.716C35.7948 110.228 34.5275 111.207 33.6548 111.892C31.475 113.605 30.8555 113.525 28.6826 111.249C26.5921 109.058 26.2206 108.135 27.0576 107.208C27.9834 106.182 29.2822 106.387 30.4732 107.748L31.5098 108.932L33.5397 107.349C34.656 106.479 36.0486 105.392 36.6347 104.932C37.2743 104.431 37.7002 103.802 37.7002 103.358V102.618H30.488H23.2758V110.016ZM54.4194 103.175C53.1618 103.626 52.737 105.158 53.6231 106.047C54.0761 106.501 55.9133 106.563 68.8556 106.563C83.0708 106.563 83.5845 106.542 83.9124 105.927C84.4159 104.983 84.3281 104.338 83.596 103.604C82.96 102.966 82.5214 102.947 68.9257 102.973C61.2179 102.987 54.6898 103.078 54.4194 103.175ZM53.6185 114.199C52.9438 115.164 52.9746 115.636 53.7637 116.427C54.3994 117.065 54.8564 117.085 68.793 117.085C82.3014 117.085 83.1993 117.048 83.7091 116.483C84.393 115.726 84.4048 114.655 83.7366 113.984C83.2836 113.53 81.4619 113.468 68.6749 113.468H54.1286L53.6185 114.199ZM84.0701 127.402C73.5707 130.195 65.554 138.559 63.2347 149.142C62.5479 152.275 62.7131 158.82 63.5579 161.965C64.9082 166.991 67.1751 171.002 70.7737 174.734C74.3493 178.443 78.2764 180.809 83.4987 182.401C86.0393 183.176 86.9287 183.28 90.9721 183.278C94.6513 183.275 96.0784 183.133 98.1666 182.562C106.978 180.154 114.135 173.78 117.473 165.366C120.183 158.537 119.963 149.868 116.911 143.243C113.419 135.663 107.442 130.4 99.3317 127.764C96.9366 126.986 95.8774 126.841 91.7917 126.735C87.5758 126.626 86.7025 126.702 84.0701 127.402ZM43.3509 131.551C41.543 132.995 41.3063 133.093 41.3063 132.397C41.3063 132.139 41.0745 131.695 40.7912 131.41C40.3457 130.964 38.9515 130.894 30.5155 130.894C21.4757 130.894 20.7148 130.938 20.2122 131.495C19.7323 132.027 19.6697 133.254 19.6697 142.115C19.6697 149.469 19.7742 152.239 20.063 152.528C20.3519 152.818 23.1286 152.923 30.5135 152.923C39.4619 152.923 40.6198 152.863 41.0204 152.38C41.364 151.965 41.4938 150.143 41.5698 144.661L41.6695 137.484L44.2921 135.449C47.7025 132.803 48.0946 132.113 46.8793 130.894C45.9273 129.939 45.2009 130.075 43.3509 131.551ZM86.7058 131.35C81.9379 132.266 77.7531 134.488 74.2411 137.97C69.8132 142.359 67.5403 147.525 67.2781 153.795C67.0827 158.465 67.7101 161.519 69.7309 165.735C71.0058 168.396 71.6575 169.284 74.2129 171.843C76.6739 174.307 77.7368 175.105 80.2155 176.348C84.3458 178.417 87.2293 179.018 92.0667 178.818C94.9765 178.697 96.5173 178.454 98.5191 177.801C101.119 176.953 104.404 175.168 106.059 173.703C107.157 172.732 107.061 171.389 105.844 170.707C105.022 170.247 104.875 170.291 102.893 171.584C98.8521 174.222 95.4755 175.283 91.1492 175.276C87.4981 175.27 84.7696 174.598 81.532 172.908C75.0151 169.508 70.8107 162.502 70.8107 155.044C70.8107 144.429 78.776 135.712 89.4382 134.658C93.859 134.221 98.3915 135.45 102.481 138.193C110.166 143.348 113.267 152.861 110.144 161.698C108.705 165.771 108.604 166.583 109.479 167.053C111.272 168.015 112.396 166.741 113.967 161.965C115.097 158.531 115.242 152.767 114.292 149.05C112.193 140.833 105.321 133.869 97.2009 131.731C94.413 130.996 89.4776 130.817 86.7058 131.35ZM23.2758 141.908V149.306H30.488H37.7002V144.993V140.68L36.4708 141.609C35.7948 142.12 34.5275 143.1 33.6548 143.785C31.4298 145.534 30.8227 145.438 28.5053 142.977C26.4239 140.766 26.0738 139.652 27.1536 138.671C28.0909 137.821 28.8472 138.018 30.2296 139.476L31.5091 140.825L33.5391 139.243C34.6556 138.372 36.0486 137.285 36.6347 136.825C37.2743 136.324 37.7002 135.695 37.7002 135.25V134.511H30.488H23.2758V141.908ZM98.6217 146.1C98.3424 146.327 96.3003 148.805 94.0835 151.608C91.8671 154.411 89.9359 156.837 89.7923 156.999C89.6467 157.164 88.0463 156.181 86.177 154.78C84.332 153.397 82.5643 152.265 82.2493 152.265C81.3953 152.265 80.6456 153.178 80.6456 154.217C80.6456 155.002 81.2029 155.562 84.4975 158.088C89.2055 161.697 89.6205 161.933 90.4676 161.478C91.1885 161.091 100.87 149.219 101.388 148.087C102.106 146.514 99.9887 144.994 98.6217 146.1Z" fill="#5632CF"/>
<path fill-rule="evenodd" clip-rule="evenodd" d="M142.973 4.77413C141.671 5.34119 140.307 6.99634 140.067 8.29906C139.962 8.87358 139.92 14.304 139.974 20.3669L140.071 31.3904L140.85 32.4821C142.033 34.1408 143.77 34.7792 147.123 34.7876L149.96 34.7947V38.972V43.149L146.792 43.2764C143.079 43.4255 141.594 44.1119 140.548 46.1623C139.949 47.3363 139.909 48.1128 139.909 58.7262C139.909 69.9241 139.917 70.0499 140.639 71.1108C141.04 71.7002 141.78 72.4877 142.283 72.8609C143.181 73.5265 143.523 73.5408 160.552 73.6287C174.095 73.6984 177.868 73.8051 177.731 74.115C175.406 79.38 174.898 82.371 175.681 86.1838C177.294 94.0462 183.159 99.3148 190.974 99.9234L193.568 100.125L193.66 103.434C193.747 106.559 193.799 106.779 194.595 107.406C195.706 108.279 196.504 108.243 197.473 107.273C198.213 106.534 198.269 106.246 198.269 103.22V99.9632H201.167H204.066L204.166 106.109L204.267 112.256L208.887 116.915L213.507 121.574V125.17V128.766L212.386 129.459C207.82 132.281 207.981 138.647 212.678 140.988C216.114 142.7 219.756 141.5 221.453 138.095C222.413 136.169 222.48 134.356 221.657 132.545C221.088 131.292 219.004 129.143 218.359 129.143C218.174 129.143 218.047 127.357 218.047 124.75C218.047 121.564 217.919 120.117 217.583 119.481C217.327 119 215.285 116.784 213.043 114.558L208.968 110.51V105.237V99.9632H213.994H219.019V105.327C219.019 110.591 219.034 110.707 219.815 111.488C220.786 112.458 221.582 112.494 222.696 111.618C223.541 110.953 223.543 110.942 223.632 105.539L223.72 100.125H227.287H230.853L230.944 104.243C231.032 108.245 231.058 108.38 231.879 109.026C232.991 109.901 233.789 109.864 234.758 108.894C235.519 108.134 235.554 107.917 235.554 104.031V99.9632H239.445H243.336V103.382C243.336 106.58 243.387 106.853 244.132 107.597C245.022 108.487 245.518 108.567 246.733 108.013C247.745 107.552 247.853 107.127 247.956 103.205L248.037 100.125L250.874 100.032L253.711 99.9379V103.304V106.669L249.533 110.368C247.236 112.402 245.193 114.402 244.994 114.812C244.795 115.221 244.633 116.786 244.633 118.289C244.633 120.941 244.606 121.035 243.741 121.485C240.157 123.35 239.32 128.665 242.136 131.683C244.227 133.925 248.186 134.354 250.701 132.611C254.567 129.932 254.434 123.878 250.459 121.608C249.185 120.88 249.177 120.862 249.174 118.89L249.172 116.904L253.701 112.801L258.231 108.699L258.322 104.412L258.412 100.125H261.978H265.545L265.634 105.459C265.734 111.39 265.924 111.964 267.784 111.955C269.963 111.944 270.246 111.145 270.246 105.01V99.9632H272.295C276.445 99.9632 280.518 98.1067 283.627 94.7984C287.01 91.1979 288.403 87.7887 288.403 83.1037C288.403 77.6672 286.061 72.8356 281.918 69.7257C279.623 68.0025 279.326 67.6254 279.318 66.4254C279.314 65.8798 278.953 64.4205 278.516 63.1823C277.819 61.2052 277.358 60.3213 275.455 57.3119C275.084 56.7257 275.18 56.4193 276.27 54.7181C280.011 48.8754 281.822 41.2289 282.14 29.9314C282.362 22.0516 282.498 22.3609 278.597 21.8768C274.215 21.3328 272.274 19.9428 270.557 16.1193C270.068 15.0312 269.421 14.0462 269.12 13.9308C268.819 13.815 265.082 13.7204 260.817 13.7204H253.062L253.06 11.5319C253.059 10.328 252.915 8.82624 252.739 8.19434C252.377 6.89064 250.751 5.17389 249.394 4.66195C248.764 4.42429 232.315 4.32184 196.222 4.33059C153.504 4.34097 143.781 4.42202 142.973 4.77413ZM144.595 9.26524C144.509 9.48993 144.477 14.268 144.524 19.8835L144.61 30.0935L190.569 30.1756L236.527 30.2579V26.9246C236.527 22.6627 236.751 22.2937 239.522 21.9984C243.732 21.5497 245.846 20.4084 247.605 17.635C248.457 16.2914 248.523 15.951 248.523 12.9111C248.523 10.7956 248.386 9.49738 248.134 9.24611C247.551 8.66284 144.819 8.68197 144.595 9.26524ZM157.495 12.5321C154.522 13.6101 152.747 16.236 152.728 19.5816C152.718 21.4018 152.86 21.9472 153.697 23.3018C154.305 24.2854 155.282 25.262 156.265 25.8702C157.62 26.7074 158.165 26.8497 159.986 26.8393C164.447 26.8144 167.484 23.7093 167.461 19.1945C167.437 14.387 162.141 10.8468 157.495 12.5321ZM206.79 12.4903C205.252 13.2327 205.031 16.7632 206.459 17.7637C208.686 19.3232 210.931 16.8812 209.964 13.9515C209.75 13.3034 209.259 12.6887 208.782 12.4711C207.823 12.0344 207.733 12.0351 206.79 12.4903ZM216.38 12.7192C215.738 13.2386 215.615 13.6364 215.615 15.1794C215.615 16.7223 215.738 17.1201 216.38 17.6396C217.308 18.3911 218.306 18.4307 219.271 17.7546C219.874 17.3328 219.991 16.9473 219.987 15.404C219.981 13.3692 219.84 13.0207 218.797 12.4721C217.805 11.9495 217.262 12.0049 216.38 12.7192ZM226.877 12.4355C226.02 12.7795 225.504 13.9473 225.504 15.5396C225.504 17.7456 227.955 19.0506 229.394 17.611C229.884 17.1218 230.043 16.5304 230.043 15.203C230.043 13.6879 229.924 13.3498 229.188 12.7714C228.254 12.0357 227.973 11.9952 226.877 12.4355ZM158.308 17.2816C156.678 18.5639 156.928 21.0646 158.783 22.024C161.676 23.5196 164.289 19.8935 161.981 17.5861C160.852 16.4571 159.499 16.3449 158.308 17.2816ZM174.3 18.1411C173.418 19.2629 173.452 20.0579 174.424 21.0299L175.22 21.8259H187.332C199.073 21.8259 199.465 21.8058 200.153 21.1648C201.048 20.3309 201.077 18.7983 200.214 17.9352C199.589 17.3095 199.134 17.2868 187.269 17.2868H174.972L174.3 18.1411ZM251.498 19.9927C249.744 23.1004 246.586 25.3486 242.899 26.114L241.003 26.5077L241.214 30.408C241.33 32.5534 241.635 36.0025 241.892 38.0733C243.305 49.4813 248.103 57.155 256.518 61.4636C259.082 62.7767 259.22 62.8097 260.415 62.3947C263.864 61.1971 268.888 57.3242 271.346 53.9685C275.144 48.7826 277.183 41.4079 277.599 31.3535L277.801 26.4532L276.352 26.236C272.874 25.7146 268.609 22.6446 267.166 19.6241L266.518 18.2669L259.497 18.263L252.476 18.2595L251.498 19.9927ZM206.182 21.5357C205.755 22.0068 205.564 22.699 205.564 23.7712C205.564 25.6929 206.339 26.6892 207.834 26.6892C209.328 26.6892 210.103 25.6929 210.103 23.7712C210.103 21.8496 209.328 20.8532 207.834 20.8532C207.194 20.8532 206.564 21.1136 206.182 21.5357ZM216.125 21.7076C214.905 23.2583 215.456 26.1802 217.048 26.602C218.108 26.8831 218.711 26.7618 219.424 26.1235C220.24 25.3943 220.222 22.1349 219.399 21.3898C218.474 20.5533 216.914 20.7047 216.125 21.7076ZM226.176 21.7076C224.694 23.5913 225.771 26.6892 227.909 26.6892C229.422 26.6892 230.043 25.8566 230.043 23.8267C230.043 22.5823 229.875 21.9828 229.394 21.5017C228.461 20.5686 226.998 20.6623 226.176 21.7076ZM255.566 28.9247C251.925 30.1256 248.77 33.3364 247.683 36.9476C247.432 37.7818 247.226 39.4392 247.226 40.6307C247.226 44.736 248.927 48.166 252.134 50.5263C257.24 54.2856 264.286 53.5843 268.577 48.8896C270.811 46.4443 271.657 44.1761 271.657 40.6307C271.657 35.6351 269.252 31.7273 264.84 29.5553C262.111 28.2118 258.478 27.9647 255.566 28.9247ZM256.014 33.7037C251.956 35.7262 250.524 40.8424 252.928 44.7308C256.995 51.3096 267.142 48.3825 267.142 40.6307C267.142 34.7935 261.222 31.1087 256.014 33.7037ZM154.499 39.0096V43.2245H158.066H161.632V39.0096V34.7947H158.066H154.499V39.0096ZM166.171 39.0096V43.2245H182.346H198.52L200.583 42.2593C206.984 39.2638 214.861 39.1973 221.165 42.0852C222.434 42.6665 224.026 43.5192 224.704 43.9796C225.382 44.44 226.058 44.7419 226.206 44.6501C226.355 44.5583 226.476 42.3034 226.476 39.6389V34.7947H196.324H166.171V39.0096ZM231.015 37.2533C231.015 38.6056 231.125 39.6558 231.259 39.5871C233.226 38.5758 235.969 37.3885 236.339 37.3885C237.023 37.3885 237.2 36.9443 236.972 35.8008L236.77 34.7947H233.893H231.015V37.2533ZM260.404 38.6601L258.088 40.9044L257.029 39.957C255.737 38.8008 254.903 38.7609 253.858 39.8056C252.532 41.1313 252.794 42.092 255.116 44.4134C258.004 47.3016 258.174 47.2721 262.35 43.1629C265.268 40.2906 265.707 39.719 265.707 38.7859C265.707 37.4838 264.742 36.4159 263.565 36.4159C262.959 36.4159 262.065 37.0504 260.404 38.6601ZM235.626 42.5641C233.25 43.6917 230.332 46.3237 229.149 48.4075C227.552 51.2211 226.737 51.3255 223.934 49.076C220.18 46.0637 215.851 44.5178 211.191 44.5263C203.247 44.5402 196.634 48.6516 193.104 55.7715C191.529 58.947 191.038 61.5955 191.236 65.836C191.435 70.0797 191.287 70.3991 188.74 71.2301C185.343 72.3386 182.838 74.4486 181.297 77.4992C178.117 83.7924 180.773 91.3441 187.245 94.4158L189.029 95.262H231.988H274.947L276.812 94.3179C285.402 89.9672 286.309 78.1435 278.455 72.893C277.386 72.1784 276.255 71.4457 275.94 71.2648C275.524 71.0255 275.254 70.1673 274.952 68.1182C274.689 66.3373 274.173 64.5498 273.549 63.2598C271.997 60.048 272.229 60.1151 269.72 62.1519C267.315 64.104 261.903 67.0496 260.098 67.3881C257.675 67.8426 250.913 64.1043 246.882 60.0821C242.484 55.6928 240.092 51.0347 237.934 42.6542L237.662 41.5979L235.626 42.5641ZM144.849 48.0337C144.53 48.2363 144.458 50.5801 144.525 58.6471L144.61 69.0001L163.415 69.0893L182.22 69.1781L184.402 68.1166L186.584 67.0548L186.59 63.8936L186.597 60.7325H180.785H174.972L174.3 59.8781C173.418 58.7563 173.452 57.9613 174.424 56.9893C175.214 56.1989 175.263 56.1934 181.521 56.1934H187.822L188.943 53.8427C189.56 52.5498 190.567 50.8356 191.182 50.0331C191.797 49.2307 192.411 48.3919 192.547 48.1689C192.745 47.846 187.959 47.7646 169.027 47.7685C155.955 47.7714 145.074 47.8907 144.849 48.0337ZM157.7 51.5129C154.603 52.4664 152.236 56.1382 152.671 59.313C153.204 63.1995 156.226 65.92 160.011 65.92C165.54 65.92 169.036 60.3846 166.689 55.3449C165.793 53.4213 164.242 52.1153 162.081 51.4649C160.235 50.9092 159.64 50.9157 157.7 51.5129ZM158.851 56.005C157.682 56.5137 156.961 57.9873 157.273 59.2287C157.759 61.1666 160.473 62.0449 161.891 60.7234C163.37 59.3454 163.205 57.1984 161.542 56.1846C160.321 55.4399 160.171 55.4298 158.851 56.005ZM245.493 125.845C244.341 127.12 245.224 129.149 246.928 129.138C247.894 129.132 248.318 128.863 248.799 127.948C249.813 126.023 246.97 124.214 245.493 125.845ZM214.303 133.83C213.866 134.267 213.507 134.788 213.507 134.986C213.507 135.485 214.179 136.713 214.61 137.001C215.725 137.746 217.722 136.647 217.722 135.289C217.722 134.503 216.35 133.034 215.615 133.034C215.331 133.034 214.741 133.392 214.303 133.83Z" fill="#5632CF"/>
<path fill-rule="evenodd" clip-rule="evenodd" d="M240.368 314.086C231.293 315.344 224.069 321.831 221.793 330.767C220.718 334.986 221.209 340.866 222.968 344.845C227.235 354.498 237.868 359.786 247.853 357.22C251.172 356.367 256.2 356.357 258.849 357.198C261.233 357.954 267.578 361.468 267.431 361.95C266.588 364.717 266.765 366.531 268.042 368.207C270.376 371.273 274.648 371.537 277.214 368.775C277.608 368.35 280.348 363.801 283.303 358.666C288.117 350.3 288.688 349.178 288.797 347.863C289.235 342.575 283.128 339.335 279.147 342.744C278.432 343.357 277.241 345.103 275.651 347.874L273.239 352.075L271.89 351.347C270.86 350.792 270.182 350.106 269.032 348.454C267.993 346.961 267.112 346.033 266.196 345.466C264.91 344.67 264.736 344.639 260.868 344.508C256.148 344.348 256.446 344.514 254.216 340.777C250.753 334.971 249.356 334.348 242.459 335.537C238.826 336.162 238.167 336.012 236.766 334.243C235.533 332.685 233.519 331.742 231.427 331.742C230.048 331.742 229.391 331.925 227.524 332.828C226.288 333.426 225.229 333.915 225.169 333.915C224.967 333.915 225.364 332.159 226.051 330.023C227.692 324.917 231.873 320.733 237.309 318.756C239.095 318.107 239.68 318.032 242.966 318.029C246.104 318.026 246.905 318.117 248.532 318.665C252.575 320.027 256.198 322.838 258.237 326.196C258.777 327.086 259.718 329.316 260.327 331.153C261.963 336.085 263.403 338.594 266.199 341.392C268.012 343.206 271.114 345.323 271.959 345.323C272.797 345.323 273.917 344.158 273.917 343.288C273.917 342.51 273.51 342.088 270.931 340.194C267.714 337.831 265.398 334.32 264.011 329.705C262.777 325.595 261.407 323.278 258.453 320.31C256.236 318.081 255.491 317.523 253.283 316.437C249.141 314.399 244.372 313.531 240.368 314.086ZM228.239 336.98C224.943 338.68 224.91 338.756 226.086 341.979C228.06 347.39 231.972 351.23 237.403 353.087C240.3 354.077 244.127 354.148 247.717 353.275C254.441 351.642 259.398 352.429 266.018 356.18C267.87 357.23 269.479 358.089 269.592 358.089C269.798 358.089 271.275 355.617 271.139 355.5C271.099 355.466 270.456 355.129 269.709 354.752C268.149 353.963 267.386 353.196 265.805 350.829C265.183 349.899 264.464 349.028 264.206 348.894C263.947 348.759 262.148 348.593 260.207 348.524C257.335 348.423 256.425 348.288 255.323 347.799C253.423 346.955 252.944 346.428 250.757 342.772C248.261 338.603 248.231 338.587 243.813 339.341C242.045 339.643 240.001 339.889 239.271 339.888C237.426 339.884 235.425 338.894 234.173 337.365C233.306 336.307 232.083 335.544 231.253 335.544C231.127 335.544 229.77 336.191 228.239 336.98ZM308.534 340.19C307.675 340.625 299.439 353.21 299.439 354.088C299.439 355.539 301.346 356.472 302.48 355.576C303.27 354.951 311.385 342.48 311.385 341.89C311.385 340.604 309.701 339.599 308.534 340.19ZM230.123 340.735C228.833 341.486 229.035 343.639 230.45 344.225C232.479 345.066 234.08 342.655 232.525 341.1C231.822 340.396 230.936 340.262 230.123 340.735ZM244.387 342.754C242.788 343.427 242.98 345.659 244.69 346.261C246.35 346.845 247.892 344.874 246.859 343.489C246.152 342.542 245.413 342.323 244.387 342.754ZM235.921 344.985C235.176 345.589 235.099 347.025 235.772 347.768C236.421 348.485 237.905 348.485 238.622 347.767C240.302 346.086 237.775 343.483 235.921 344.985ZM281.731 345.662C281.491 345.849 278.963 350.052 276.113 355.001C272.49 361.294 270.931 364.25 270.931 364.828C270.931 366.289 272.831 367.28 273.97 366.414C274.436 366.059 283.988 349.732 284.682 348.103C285.008 347.338 285.004 347.11 284.657 346.438C284.073 345.309 282.664 344.935 281.731 345.662ZM311.657 357.167C307.699 358.885 304.257 360.497 304.007 360.751C302.904 361.871 303.666 364.064 305.16 364.064C306.049 364.064 320.427 357.837 320.956 357.222C321.217 356.919 321.431 356.373 321.431 356.009C321.431 355.167 320.287 354.01 319.475 354.03C319.132 354.038 315.614 355.45 311.657 357.167ZM286.45 366.256C284.54 366.666 282.783 369.284 281.777 373.219C281.486 374.356 281.249 375.726 281.251 376.263C281.254 377.437 282.286 379.726 283.184 380.552C284.83 382.066 287.884 382.499 289.835 381.495C292.944 379.896 293.916 376.786 292.621 372.581C291.129 367.74 289.122 365.683 286.45 366.256ZM306.079 370.707C305.171 371.614 305.192 372.815 306.127 373.551C306.812 374.09 307.166 374.114 314.372 374.114C321.577 374.114 321.931 374.09 322.616 373.551C323.135 373.143 323.331 372.738 323.331 372.077C323.331 371.416 323.135 371.011 322.616 370.603C321.931 370.064 321.578 370.04 314.323 370.04H306.745L306.079 370.707ZM286.861 370.867C286.211 371.789 285.321 374.771 285.321 376.024C285.321 377.674 287.128 378.764 288.331 377.84C289.588 376.874 289.507 374.88 288.086 371.824L287.33 370.2L286.861 370.867ZM233.663 382.735C233 383.468 233.044 385.921 233.754 387.82C234.528 389.889 236.583 392.077 238.762 393.15C240.151 393.834 240.944 394.029 242.813 394.145L245.138 394.29V401.593V408.895L244.391 409.18C243.981 409.336 243.065 409.534 242.355 409.618L241.066 409.772V404.746C241.066 400.072 241.026 399.669 240.503 399.004C239.767 398.068 238.566 398.048 237.659 398.955L236.993 399.622V412.343C236.993 425.876 237.087 427.032 238.364 429.2C238.655 429.694 238.893 430.148 238.893 430.208C238.893 430.268 235.095 430.352 230.453 430.396L222.012 430.475L221.493 431.116C220.787 431.988 220.841 432.947 221.641 433.747L222.307 434.413H279.212H336.117L336.783 433.747C337.149 433.38 337.449 432.763 337.449 432.376C337.449 431.989 337.149 431.373 336.783 431.006L336.117 430.339H325.41C312.946 430.339 313.459 430.445 313.435 427.862L313.421 426.401L326.911 426.33L340.4 426.26L340.961 425.547C341.669 424.646 341.669 424.08 340.959 423.178L340.397 422.462H333.764H327.132V419.508V416.553L329.508 416.433C332.409 416.285 334.274 415.489 336.179 413.583C337.924 411.837 338.847 409.873 339.013 407.554C339.134 405.871 339.088 405.651 338.501 405.096C337.888 404.516 337.685 404.491 334.327 404.589C331.212 404.681 330.615 404.777 329.245 405.41C328.391 405.804 327.087 406.694 326.346 407.387C325.082 408.57 324.982 408.615 324.713 408.112C324.225 407.2 321.757 405.582 320.036 405.046C318.851 404.677 317.57 404.535 315.421 404.535C312.584 404.535 312.414 404.568 311.744 405.238C311.102 405.88 311.055 406.078 311.191 407.575C311.632 412.45 315.67 416.165 320.82 416.437L323.06 416.555V419.508V422.462H316.815C308.927 422.462 309.419 422.158 309.537 426.96L309.62 430.34L304.373 430.34L299.125 430.339L300.051 429.257C302.015 426.962 303.24 423.755 303.24 420.911C303.24 418.724 302.769 418.388 299.71 418.388H297.267V413.659C297.267 408.17 296.914 406.559 295.204 404.228C294.411 403.147 294.258 402.78 294.561 402.686C295.323 402.452 297.692 399.773 298.329 398.424C299.207 396.566 299.434 393.6 298.755 392.85C298.321 392.37 297.912 392.313 294.96 392.313C292.952 392.313 291.169 392.458 290.424 392.682L289.197 393.052L288.749 391.631C288.168 389.787 286.509 387.918 284.642 387.004C283.426 386.409 282.757 386.275 280.829 386.242C278.581 386.203 278.465 386.231 277.833 386.963C277.249 387.64 277.176 387.983 277.176 390.019V392.313H274.752C272.432 392.313 272.303 392.345 271.738 393.06C271.232 393.7 271.172 394.019 271.321 395.298C271.634 397.99 273.136 400.579 275.317 402.184L276.366 402.957L275.67 403.785C273.704 406.122 273.117 408.612 273.108 414.653L273.103 418.388H270.783C268.682 418.388 268.4 418.451 267.796 419.055C267.025 419.826 266.981 420.491 267.526 423.067C268.024 425.415 268.779 427.105 270.135 428.901L271.22 430.339H263.223H255.227L256.088 428.641L256.948 426.944L257.028 413.257L257.108 399.571L256.506 398.929C255.773 398.15 254.662 398.1 253.788 398.807C253.179 399.3 253.143 399.515 253.054 403.14L252.96 406.954L251.696 407.118C251.001 407.208 250.158 407.338 249.822 407.407L249.211 407.534V400.913V394.292L251.382 394.143C255.372 393.869 258.507 391.807 260.089 388.415C260.518 387.496 260.946 386.072 261.04 385.251C261.189 383.959 261.129 383.652 260.602 382.985L259.993 382.214L256.163 382.313C252.6 382.405 252.232 382.465 250.883 383.169C250.086 383.586 248.903 384.416 248.254 385.013L247.076 386.101L245.947 385.004C245.326 384.402 244.126 383.569 243.281 383.153C241.863 382.457 241.451 382.391 237.939 382.306C234.467 382.223 234.093 382.26 233.663 382.735ZM237.536 386.39C237.536 387.163 239.037 388.805 240.335 389.452C241.701 390.133 244.595 390.443 244.595 389.908C244.595 389.411 243.314 387.813 242.449 387.229C240.889 386.178 237.536 385.605 237.536 386.39ZM253.369 386.457C252.745 386.652 251.901 387.074 251.495 387.394C250.711 388.01 249.482 389.553 249.482 389.921C249.482 390.041 250.196 390.14 251.069 390.14C253.065 390.14 254.706 389.323 255.93 387.721C256.416 387.086 256.813 386.454 256.813 386.316C256.813 385.955 254.699 386.041 253.369 386.457ZM281.248 391.626C281.248 393.016 281.304 393.142 282.094 393.551C282.559 393.792 283.475 394.483 284.13 395.086L285.321 396.184V394.877C285.321 392.953 284.469 391.388 283.047 390.699C281.357 389.881 281.248 389.937 281.248 391.626ZM275.547 396.366C275.547 396.504 275.943 397.136 276.429 397.771C277.653 399.373 279.294 400.189 281.291 400.189C282.163 400.189 282.877 400.091 282.877 399.971C282.877 399.604 281.649 398.061 280.869 397.447C279.575 396.429 275.547 395.611 275.547 396.366ZM291.445 396.52C290.857 396.73 290.062 397.134 289.68 397.416C288.97 397.942 287.764 399.542 287.764 399.958C287.764 400.493 290.658 400.182 292.024 399.501C293.322 398.854 294.823 397.213 294.823 396.44C294.823 395.994 292.788 396.042 291.445 396.52ZM281.944 404.508C281.861 404.642 284.328 406.216 287.426 408.004L293.059 411.257L293.148 410.273C293.197 409.731 293.097 408.819 292.926 408.244C292.515 406.868 290.641 405.021 289.226 404.598C287.941 404.214 282.17 404.142 281.944 404.508ZM277.692 407.999C276.909 410.054 276.802 409.911 280.89 412.253C285.426 414.852 285.864 415.215 285.864 416.378C285.864 417.316 284.863 418.388 283.987 418.388C283.742 418.388 282.171 417.593 280.495 416.622C278.82 415.651 277.387 414.857 277.312 414.857C277.237 414.857 277.176 415.634 277.176 416.585V418.312L278.554 418.476C280.419 418.696 282.576 419.729 284.09 421.125L285.344 422.281L286.486 421.165C287.833 419.849 290.095 418.735 291.918 418.49L293.221 418.314L293.14 417.077L293.059 415.839L285.616 411.545C281.522 409.184 278.129 407.252 278.074 407.252C278.021 407.252 277.849 407.588 277.692 407.999ZM315.851 409.397C316.84 411.311 319.403 412.684 321.987 412.684C322.906 412.684 322.923 412.643 322.405 411.652C321.419 409.763 319.352 408.61 316.953 408.61H315.444L315.851 409.397ZM330.429 409.196C329.25 409.78 327.675 411.586 327.675 412.355C327.675 412.939 330.324 412.624 331.92 411.851C333.015 411.321 334.734 409.482 334.734 408.841C334.734 408.348 331.622 408.605 330.429 409.196ZM250.161 411.292L249.346 411.466L249.204 417.168C249.126 420.304 248.958 423.087 248.833 423.353C248.313 424.449 246.94 424.655 245.853 423.8L245.138 423.238V418.211V413.184L244.391 413.324C243.981 413.401 243.065 413.54 242.355 413.634L241.066 413.804L241.068 419.695C241.071 425.316 241.1 425.649 241.713 426.965C243.813 431.477 250.186 431.51 252.494 427.023C252.966 426.103 253.012 425.362 253.012 418.535V411.054L251.994 411.086C251.434 411.104 250.609 411.197 250.161 411.292ZM271.474 422.826C271.474 423.674 273.211 426.567 274.352 427.619C276.24 429.36 278.231 430.172 280.909 430.293L283.149 430.395V428.591C283.149 425.943 282.012 424.067 279.701 422.901C278.537 422.313 271.474 422.25 271.474 422.826ZM290.535 423.04C288.48 424.058 287.255 426.249 287.233 428.946L287.221 430.406L289.619 430.291C291.532 430.199 292.326 430.025 293.547 429.427C296.097 428.179 298.183 425.765 298.913 423.217L299.129 422.462L295.415 422.462C292.174 422.462 291.553 422.536 290.535 423.04Z" fill="#5632CF"/>
<path fill-rule="evenodd" clip-rule="evenodd" d="M311.307 140.058L310.595 140.618V149.111V157.604L309.852 157.76C307.448 158.263 306.445 158.599 304.378 159.596C301.153 161.149 298.168 164.121 296.586 167.352C295.39 169.797 294.649 172.264 294.642 173.828C294.636 175.169 294.435 175.357 292.796 175.546C291.132 175.738 289.945 176.352 289.133 177.441C288.635 178.109 288.553 178.654 288.471 181.816L288.377 185.427L282.929 185.514C276.814 185.613 276.142 185.794 275.058 187.639C274.53 188.539 274.505 189.066 274.43 201.083L274.352 213.589H276.39H278.428V201.556V189.523H312.487H346.547V201.556V213.589H348.584H350.622L350.544 201.083C350.469 189.066 350.445 188.539 349.916 187.639C348.832 185.794 348.16 185.613 342.045 185.514L336.597 185.427L336.503 181.816C336.421 178.654 336.339 178.109 335.841 177.441C335.017 176.336 333.855 175.748 332.05 175.523L330.463 175.325L330.283 173.503C329.887 169.502 328.154 165.975 325.063 162.877C322.258 160.065 319.602 158.697 315.123 157.76L314.379 157.604V154.369V151.133L316.069 151.277C316.998 151.356 318.093 151.473 318.503 151.537C319.439 151.682 324.043 151.251 325.964 150.838C328.372 150.32 328.436 150.178 328.436 145.293C328.436 139.53 328.2 139.189 324.723 139.907C322.037 140.462 317 140.468 314.366 139.918C311.889 139.401 312.157 139.389 311.307 140.058ZM314.379 145.637V147.044L315.393 147.259C316.656 147.527 322.633 147.526 323.638 147.257C324.328 147.072 324.381 146.959 324.381 145.644V144.229H319.38H314.379V145.637ZM308.432 162.181C306.054 162.95 304.64 163.797 302.829 165.536C301.897 166.432 301.134 167.267 301.134 167.392C301.134 167.517 306.243 167.62 312.487 167.62C318.895 167.62 323.84 167.515 323.84 167.38C323.84 166.919 320.292 163.826 319.031 163.187C315.911 161.607 311.502 161.188 308.432 162.181ZM298.724 173.041C298.143 175.749 296.51 175.461 312.487 175.461C328.464 175.461 326.831 175.749 326.251 173.041L325.958 171.676H312.487H299.016L298.724 173.041ZM292.484 182.492V185.467H295.998H299.512V182.492V179.518H295.998H292.484V182.492ZM303.567 182.492V185.467H307.081H310.595V182.492V179.518H307.081H303.567V182.492ZM314.379 182.492V185.467H317.893H321.407V182.492V179.518H317.893H314.379V182.492ZM325.462 182.492V185.467H328.976H332.49V182.492V179.518H328.976H325.462V182.492ZM284.51 193.837C284.212 193.96 283.665 194.387 283.293 194.787C282.66 195.467 282.612 195.726 282.528 198.863C282.44 202.143 282.453 202.227 283.124 202.898C283.94 203.715 284.889 203.776 285.764 203.067C286.333 202.606 286.412 202.288 286.495 200.119L286.589 197.687L289.02 197.593C291.189 197.51 291.506 197.431 291.967 196.861C292.67 195.993 292.616 195.039 291.82 194.243C291.192 193.614 290.996 193.58 288.104 193.596C286.424 193.605 284.807 193.714 284.51 193.837ZM333.176 194.221C332.359 195.037 332.299 195.986 333.007 196.861C333.468 197.431 333.785 197.51 335.954 197.593L338.385 197.687L338.479 200.119C338.562 202.288 338.641 202.606 339.211 203.067C340.085 203.776 341.034 203.715 341.85 202.898C342.522 202.227 342.534 202.144 342.446 198.847L342.357 195.481L341.474 194.597L340.591 193.714L337.226 193.624C333.929 193.537 333.847 193.549 333.176 194.221ZM299.712 204.234C293.057 207.849 287.37 211.026 287.075 211.293C286.545 211.773 286.537 212.176 286.537 239.061V266.343L287.201 267.007L287.864 267.671H312.487H337.11L337.774 267.007L338.437 266.343V239.067V211.79L337.829 211.237C336.823 210.322 313.117 197.634 312.439 197.648C312.094 197.655 306.366 200.619 299.712 204.234ZM301.337 207.856L290.592 213.703V238.659V263.614H293.025H295.457V245.51C295.457 232.554 295.545 227.213 295.765 226.73C296.24 225.686 297.316 225.487 302.486 225.487C307.655 225.487 308.731 225.686 309.206 226.73C309.426 227.213 309.514 232.554 309.514 245.51V263.614H312.487H315.461V245.51C315.461 232.554 315.548 227.213 315.768 226.73C316.244 225.686 317.32 225.487 322.489 225.487C327.658 225.487 328.734 225.686 329.209 226.73C329.429 227.213 329.517 232.554 329.517 245.51V263.614H331.95H334.383V238.652V213.689L323.563 207.825C317.613 204.6 312.595 201.972 312.413 201.985C312.231 201.998 307.247 204.64 301.337 207.856ZM303.852 212.915C299.624 215.191 296.005 217.27 295.81 217.536C295.268 218.278 295.389 219.224 296.121 219.956L296.784 220.62H312.487H328.19L328.853 219.956C329.633 219.176 329.707 218.195 329.044 217.427C328.784 217.125 325.122 215.043 320.907 212.8C315.393 209.865 313.005 208.729 312.393 208.75C311.847 208.768 308.776 210.266 303.852 212.915ZM308.973 214.694L305.594 216.552L312.465 216.557C316.243 216.561 319.284 216.519 319.223 216.464C319.073 216.332 312.4 212.769 312.373 212.807C312.361 212.823 310.831 213.672 308.973 214.694ZM249.086 218.309L248.423 218.973V242.362C248.423 258.929 248.51 265.945 248.723 266.411C248.888 266.774 249.319 267.205 249.682 267.37C250.141 267.58 255.254 267.671 266.578 267.671H282.816L282.653 267.062C282.563 266.728 282.488 265.815 282.486 265.034L282.482 263.614H267.48H252.478V242.658V221.701H267.48H282.482V219.673V217.645H266.116H249.75L249.086 218.309ZM342.492 219.673V221.701H357.494H372.497V242.658V263.614H357.494H342.492L342.488 265.034C342.486 265.815 342.411 266.728 342.322 267.062L342.159 267.671H358.396C369.721 267.671 374.833 267.58 375.293 267.37C375.655 267.205 376.086 266.774 376.251 266.411C376.464 265.945 376.551 259.2 376.551 243.378V221.005L375.943 219.818C374.781 217.552 375.554 217.645 357.972 217.645H342.492V219.673ZM258.326 227.129C257.635 227.672 257.614 227.778 257.614 230.602C257.614 233.885 257.92 234.5 259.551 234.5C261.036 234.5 261.398 233.712 261.398 230.479C261.398 227.788 261.373 227.67 260.686 227.129C260.294 226.821 259.763 226.569 259.506 226.569C259.248 226.569 258.717 226.821 258.326 227.129ZM268.327 227.129C267.637 227.672 267.615 227.778 267.615 230.602C267.615 233.885 267.921 234.5 269.553 234.5C271.037 234.5 271.399 233.712 271.399 230.479C271.399 227.788 271.374 227.67 270.687 227.129C270.296 226.821 269.765 226.569 269.507 226.569C269.25 226.569 268.719 226.821 268.327 227.129ZM278.329 227.129C277.638 227.672 277.617 227.778 277.617 230.602C277.617 233.885 277.923 234.5 279.555 234.5C281.039 234.5 281.401 233.712 281.401 230.479C281.401 227.788 281.376 227.67 280.689 227.129C280.297 226.821 279.766 226.569 279.509 226.569C279.252 226.569 278.721 226.821 278.329 227.129ZM344.285 227.129C343.595 227.672 343.573 227.778 343.573 230.602C343.573 233.865 343.882 234.5 345.465 234.5C347.049 234.5 347.358 233.865 347.358 230.602C347.358 227.778 347.336 227.672 346.645 227.129C346.254 226.821 345.723 226.569 345.465 226.569C345.208 226.569 344.677 226.821 344.285 227.129ZM354.287 227.129C353.596 227.672 353.575 227.778 353.575 230.602C353.575 233.865 353.883 234.5 355.467 234.5C357.051 234.5 357.359 233.865 357.359 230.602C357.359 227.778 357.338 227.672 356.647 227.129C356.255 226.821 355.724 226.569 355.467 226.569C355.21 226.569 354.679 226.821 354.287 227.129ZM364.289 227.129C363.598 227.672 363.576 227.778 363.576 230.602C363.576 233.865 363.885 234.5 365.469 234.5C367.052 234.5 367.361 233.865 367.361 230.602C367.361 227.778 367.339 227.672 366.648 227.129C366.257 226.821 365.726 226.569 365.469 226.569C365.211 226.569 364.68 226.821 364.289 227.129ZM299.512 246.579V263.614H302.486H305.459V246.579V229.543H302.486H299.512V246.579ZM319.515 246.579V263.614H322.489H325.462V246.579V229.543H322.489H319.515V246.579ZM258.061 239.231C257.704 239.627 257.614 240.306 257.614 242.612C257.614 245.137 257.681 245.565 258.154 246.038C258.883 246.767 260.081 246.729 260.81 245.953C261.332 245.397 261.398 245.027 261.398 242.633C261.398 239.372 261.094 238.737 259.532 238.737C258.883 238.737 258.344 238.918 258.061 239.231ZM268.062 239.231C267.705 239.627 267.615 240.306 267.615 242.612C267.615 245.137 267.683 245.565 268.156 246.038C268.885 246.767 270.083 246.729 270.812 245.953C271.334 245.397 271.399 245.027 271.399 242.633C271.399 239.372 271.096 238.737 269.534 238.737C268.885 238.737 268.346 238.918 268.062 239.231ZM278.064 239.231C277.707 239.627 277.617 240.306 277.617 242.612C277.617 245.137 277.684 245.565 278.157 246.038C278.887 246.767 280.084 246.729 280.813 245.953C281.336 245.397 281.401 245.027 281.401 242.633C281.401 239.372 281.097 238.737 279.535 238.737C278.887 238.737 278.347 238.918 278.064 239.231ZM343.994 239.338C343.68 239.786 343.573 240.636 343.573 242.671C343.573 245.177 343.625 245.451 344.199 245.991C344.981 246.726 346.109 246.746 346.817 246.038C347.291 245.564 347.358 245.137 347.358 242.565C347.358 240.067 347.284 239.566 346.863 239.184C346.124 238.515 344.51 238.601 343.994 239.338ZM353.996 239.338C353.682 239.786 353.575 240.636 353.575 242.671C353.575 245.177 353.626 245.451 354.2 245.991C354.982 246.726 356.111 246.746 356.819 246.038C357.293 245.564 357.359 245.137 357.359 242.565C357.359 240.067 357.286 239.566 356.865 239.184C356.125 238.515 354.511 238.601 353.996 239.338ZM363.997 239.338C363.684 239.786 363.576 240.636 363.576 242.671C363.576 245.177 363.628 245.451 364.202 245.991C364.984 246.726 366.112 246.746 366.82 246.038C367.294 245.564 367.361 245.137 367.361 242.565C367.361 240.067 367.288 239.566 366.866 239.184C366.127 238.515 364.513 238.601 363.997 239.338ZM258.154 251.176C257.68 251.65 257.614 252.077 257.614 254.649C257.614 257.947 257.869 258.477 259.459 258.477C261.05 258.477 261.398 257.781 261.398 254.603C261.398 252.034 261.348 251.764 260.772 251.223C259.99 250.488 258.862 250.468 258.154 251.176ZM268.156 251.176C267.682 251.65 267.615 252.077 267.615 254.649C267.615 257.947 267.871 258.477 269.461 258.477C271.051 258.477 271.399 257.781 271.399 254.603C271.399 252.034 271.349 251.764 270.774 251.223C269.992 250.488 268.863 250.468 268.156 251.176ZM278.157 251.176C277.683 251.65 277.617 252.077 277.617 254.649C277.617 257.947 277.872 258.477 279.463 258.477C281.053 258.477 281.401 257.781 281.401 254.603C281.401 252.034 281.351 251.764 280.776 251.223C279.994 250.488 278.865 250.468 278.157 251.176ZM344.161 251.261C343.637 251.819 343.573 252.185 343.573 254.641C343.573 257.805 343.921 258.477 345.559 258.477C347.091 258.477 347.358 257.902 347.358 254.602C347.358 252.077 347.29 251.649 346.817 251.176C346.088 250.446 344.89 250.485 344.161 251.261ZM354.162 251.261C353.639 251.819 353.575 252.185 353.575 254.641C353.575 257.805 353.923 258.477 355.56 258.477C357.092 258.477 357.359 257.902 357.359 254.602C357.359 252.077 357.292 251.649 356.819 251.176C356.089 250.446 354.891 250.485 354.162 251.261ZM364.164 251.261C363.64 251.819 363.576 252.185 363.576 254.641C363.576 257.805 363.924 258.477 365.562 258.477C367.094 258.477 367.361 257.902 367.361 254.602C367.361 252.077 367.293 251.649 366.82 251.176C366.091 250.446 364.893 250.485 364.164 251.261Z" fill="#5632CF"/>
<path fill-rule="evenodd" clip-rule="evenodd" d="M412.336 12.4905C411.783 12.6564 407.213 15.171 402.182 18.0788L393.033 23.3653H382.222C371.86 23.3653 371.353 23.3935 370.008 24.0449C367.867 25.0811 366.968 26.679 366.79 29.7665L366.644 32.2882L364.04 32.9732C362.608 33.3497 360.956 33.8085 360.368 33.9928C358.962 34.4327 357.124 36.0716 356.583 37.368C356.092 38.5423 356.016 40.5853 356.423 41.6882C357.309 44.0897 357.378 43.9718 353.904 45.9558C352.143 46.9615 350.346 48.2086 349.91 48.7264C348.911 49.9135 348.357 51.9283 348.613 53.4425C348.721 54.0846 350.167 56.9652 351.825 59.8431L354.839 65.0761L353.972 66.386L353.106 67.6958V102.644C353.106 137.288 353.111 137.602 353.762 138.71C354.123 139.324 355.037 140.262 355.792 140.792L357.166 141.758L400.154 141.849L443.142 141.939L444.355 143.837C448.113 149.722 454.729 154.371 461.726 156.045C465.895 157.042 471.229 156.992 475.366 155.918C486.982 152.901 495.377 143.258 496.855 131.232C498.113 120.989 493.018 110.158 484.172 104.272C479.718 101.309 475.318 99.8721 469.351 99.4341L466.372 99.2156V86.4926C466.372 74.6341 466.333 73.734 465.794 73.246C465.305 72.8045 464.194 72.709 458.673 72.6356L452.132 72.5488L449.639 68.2636L447.147 63.9784V45.8987C447.147 29.8655 447.089 27.7031 446.628 26.7937C445.24 24.0536 444.155 23.5649 439.013 23.3653L434.884 23.2051L434.185 21.0449C433.39 18.586 432.485 17.4501 430.646 16.6014C428.911 15.8007 428.012 15.8433 424.019 16.9147L420.596 17.8334L419.213 15.7302C417.344 12.8894 414.88 11.7282 412.336 12.4905ZM408.217 19.2361C403.356 22.0029 401.819 22.9798 402.93 22.5966C403.194 22.5053 406.15 21.6998 409.499 20.8065C412.847 19.9128 415.772 19.1166 415.998 19.0365C416.323 18.9215 416.306 18.6898 415.915 17.9337C415.416 16.9698 414.546 16.3152 413.765 16.3172C413.533 16.3178 411.037 17.6312 408.217 19.2361ZM421.995 21.5787C419.351 22.3179 416.972 23.0106 416.708 23.1186C416.443 23.2266 419.435 23.3262 423.356 23.34C429.348 23.3611 430.486 23.2919 430.486 22.9055C430.486 22.1859 429.844 20.6802 429.424 20.413C428.688 19.9446 426.753 20.248 421.995 21.5787ZM371.601 27.7092L370.889 28.2077V60.8742V93.5407L391.305 93.458L411.721 93.3757L413.071 90.9726C413.815 89.6509 414.432 88.4615 414.444 88.3292C414.455 88.1969 407.219 88.0866 398.364 88.0841C386.074 88.0805 382.074 87.9841 381.462 87.6762C380.444 87.1642 380.195 85.4339 381.009 84.5342C381.54 83.9475 382.258 83.9235 399.246 83.9235H416.931L417.502 82.6579C418.748 79.8949 417.765 80.0785 431.299 80.0785H443.302V54.431V28.7832L442.516 27.9969L441.729 27.2103H407.021C376.126 27.2103 372.235 27.2651 371.601 27.7092ZM386.308 33.6032C384.651 34.0191 382.671 35.574 381.783 37.1572C379.107 41.9272 383.242 50.2999 388.261 50.2749C392.666 50.2528 396.696 42.5299 394.743 37.8538C393.42 34.6874 389.619 32.772 386.308 33.6032ZM365.602 36.6689C365.426 36.7326 364.26 37.0809 363.011 37.4427C361.272 37.9464 360.658 38.2815 360.387 38.8749C360.092 39.5222 360.526 41.4825 363.03 50.8123C364.678 56.9517 366.17 62.4798 366.346 63.0966C366.572 63.8896 366.674 60.1581 366.694 50.3602C366.724 36.2171 366.727 36.2613 365.602 36.6689ZM385.885 38.4385C384.988 39.336 384.921 39.552 385.054 41.1479C385.23 43.2755 386.713 45.8997 387.829 46.0602C389.139 46.2489 390.763 44.0948 391.245 41.5286C391.869 38.2024 388.223 36.1005 385.885 38.4385ZM355.638 49.5707C352.966 51.1987 352.625 51.521 352.625 52.4182C352.625 53.05 364.233 73.7661 365.144 74.7581C365.288 74.916 365.054 73.7625 364.622 72.1948C364.191 70.6273 362.576 64.6227 361.035 58.8518C359.493 53.0808 358.088 48.3637 357.912 48.3694C357.736 48.3755 356.713 48.9157 355.638 49.5707ZM381.586 51.2262C379.457 52.4467 377.799 54.9286 376.437 58.9312C375.06 62.9777 375.066 64.0505 376.471 65.5846L377.567 66.7814L387.766 66.8676C397.552 66.9502 398.007 66.9272 399.024 66.2998C399.615 65.9355 400.305 65.12 400.581 64.4577C401.051 63.3327 401.032 63.1181 400.223 60.4125C398.662 55.2003 396.734 52.1872 394.164 50.9427C391.813 49.8049 389.793 50.3291 389.793 52.0763C389.793 52.9741 390.69 54.125 391.389 54.125C392.947 54.125 394.679 56.5297 396.072 60.6227C396.872 62.9752 396.765 63.2658 395.183 63.0418C394.577 62.9559 394.406 62.69 394.261 61.6025C394.04 59.946 393.487 59.25 392.397 59.2565C391.07 59.2641 390.642 59.7339 390.451 61.392L390.274 62.9364L388.111 63.0312L385.948 63.1258V61.9008C385.948 60.3103 385.202 59.2504 384.087 59.2565C383.613 59.2593 383.066 59.3673 382.872 59.4968C382.277 59.8941 381.783 61.0818 381.783 62.1142C381.783 63.0232 381.699 63.0966 380.661 63.0966C379.337 63.0966 379.309 62.9358 380.19 60.3551C381.326 57.0273 382.434 55.3221 383.963 54.5505C385.918 53.5637 386.269 53.2042 386.269 52.1862C386.269 50.1256 384.232 49.7081 381.586 51.2262ZM405.703 52.4682C404.99 53.2561 405.035 54.307 405.814 55.0863C406.42 55.6928 406.882 55.7271 414.465 55.7271C422.048 55.7271 422.51 55.6928 423.116 55.0863C423.886 54.3163 423.929 53.5528 423.258 52.5944C422.765 51.8898 422.672 51.8821 414.496 51.8821C406.898 51.8821 406.191 51.9292 405.703 52.4682ZM405.703 61.1193C404.99 61.9072 405.035 62.9582 405.814 63.7374C406.432 64.3562 406.882 64.3783 418.791 64.3783C430.699 64.3783 431.149 64.3562 431.767 63.7374C432.537 62.9675 432.581 62.2039 431.909 61.2456L431.411 60.5333H418.822C407.033 60.5333 406.2 60.5705 405.703 61.1193ZM357.12 81.2801L357.111 93.5359H361.917H366.723V89.6048V85.6739L362.235 77.877C359.766 73.5889 357.608 69.8426 357.439 69.5523C357.237 69.2072 357.127 73.2739 357.12 81.2801ZM381.006 72.2495C380.729 72.5273 380.501 73.1669 380.501 73.6703C380.501 75.7206 378.657 75.6046 409.751 75.5142L437.991 75.4325L438.484 74.5514C438.927 73.7584 438.927 73.5821 438.484 72.7891L437.991 71.908L409.751 71.8263C384.395 71.7526 381.46 71.7958 381.006 72.2495ZM448.749 75.1512C448.749 75.3415 448.886 75.9151 449.054 76.4261C449.222 76.9369 449.516 77.968 449.707 78.7168C449.999 79.8555 450.185 80.0785 450.844 80.0785C451.278 80.0785 451.633 80.0004 451.633 79.9049C451.633 79.8094 450.984 78.6229 450.191 77.2682C449.398 75.9135 448.749 74.9609 448.749 75.1512ZM455.404 78.2362L456.354 79.9183L459.28 80.0106L462.207 80.1026V78.3284V76.554H458.331H454.455L455.404 78.2362ZM421.267 84.324C421.088 84.5445 419.679 87.1036 418.136 90.0114C416.592 92.9191 414.983 95.7666 414.56 96.3395L413.791 97.3809H385.451H357.111V117.037C357.111 135.672 357.141 136.72 357.697 137.223C358.236 137.71 361.617 137.753 399.798 137.753H441.312L440.64 135.75C440.059 134.022 439.966 132.98 439.963 128.141C439.959 122.675 439.984 122.456 440.984 119.489C442.93 113.71 446.488 108.678 451.076 105.211C453.535 103.354 458.124 101.076 460.462 100.553L462.207 100.163V92.0431V83.9235H441.899C426.041 83.9235 421.521 84.0113 421.267 84.324ZM463.833 103.797C454.338 105.796 446.956 112.732 444.386 122.071C443.601 124.922 443.601 131.359 444.386 134.21C446.503 141.902 452.015 148.158 459.233 151.061C463.763 152.882 469.847 153.264 474.543 152.023C479.174 150.798 484.077 147.678 487.287 143.912C489.345 141.497 491.831 136.358 492.468 133.201C493.435 128.409 492.892 122.675 491.071 118.429C488.349 112.085 482.759 107.007 475.984 104.724C473.358 103.839 472.413 103.685 469.096 103.598C466.981 103.543 464.613 103.632 463.833 103.797ZM466.478 111.771C463.931 112.416 461.55 114.553 460.622 117.027C460.436 117.523 460.284 118.911 460.284 120.112C460.284 122.254 460.265 122.303 459.285 122.709C458.736 122.937 458.015 123.567 457.684 124.11C457.136 125.008 457.082 125.841 457.081 133.379C457.079 145.484 456.402 144.802 468.439 144.802C477.499 144.802 478.09 144.694 479.037 142.862C479.462 142.04 479.524 140.577 479.443 133.128C479.355 124.885 479.311 124.319 478.708 123.651C478.355 123.26 477.765 122.825 477.395 122.683C476.824 122.465 476.693 122.065 476.518 119.994C476.297 117.376 475.354 115.057 474.014 113.838C472.144 112.137 468.731 111.201 466.478 111.771ZM466.112 116.294C464.813 117.085 464.129 118.627 464.129 120.761V122.373H468.294H472.46V120.595C472.46 118.597 471.915 117.3 470.661 116.313C469.554 115.443 467.522 115.434 466.112 116.294ZM364.301 117.38C363.725 117.802 363.672 118.337 363.582 124.747L363.484 131.659L364.288 132.463L365.092 133.267H385.382C403.227 133.267 405.757 133.207 406.383 132.768C407.083 132.278 407.095 132.145 407.095 125.128C407.095 118.617 407.044 117.94 406.509 117.456C405.977 116.974 404.049 116.926 385.423 116.926C368.236 116.926 364.823 116.999 364.301 117.38ZM367.685 124.934V129.102H385.477H403.27L403.18 125.017L403.09 120.931L385.387 120.849L367.685 120.766V124.934ZM461.245 133.421V140.637H468.461H475.676L475.59 133.508L475.504 126.378L468.375 126.292L461.245 126.206V133.421ZM466.129 128.139C463.391 129.808 463.089 133.5 465.532 135.422C466.161 135.917 466.372 136.373 466.372 137.238C466.372 138.502 467.263 139.675 468.223 139.675C469.361 139.675 470.217 138.745 470.217 137.508C470.217 136.595 470.473 136.076 471.384 135.144C473.587 132.887 473.093 129.291 470.404 128.014C468.946 127.323 467.393 127.368 466.129 128.139ZM468.179 131.567C467.818 131.928 467.959 132.306 468.455 132.306C468.719 132.306 468.935 132.17 468.935 132.004C468.935 131.6 468.435 131.311 468.179 131.567Z" fill="#5632CF"/>
<path fill-rule="evenodd" clip-rule="evenodd" d="M145.615 197.379C145.266 197.506 144.2 197.782 143.245 197.992C139.911 198.725 139.582 200.486 139.582 217.654V233.214H109.143C91.2975 233.214 78.0421 233.465 77.1048 233.821C73.6116 235.147 73.5404 235.784 73.5404 265.786V293.35L71.1591 293.547L68.7778 293.743L68.5746 297.546C68.2247 304.103 70.1933 308.188 74.8454 310.557C77.2204 311.766 78.7489 311.806 121.935 311.793C164.412 311.78 166.699 311.721 169.228 310.575C170.889 309.822 172.547 308.372 173.652 306.705C175.215 304.347 175.423 303.442 175.441 298.89L175.461 293.743L173.08 293.547L170.698 293.35V283.564V273.778H179.235C187.344 273.778 187.862 273.701 189.554 272.249L191.336 270.719L191.512 236.609C191.696 200.746 191.627 199.752 188.868 198.172C187.906 197.621 181.681 197.368 166.888 197.275C155.537 197.205 145.964 197.251 145.615 197.379ZM144.154 201.651C143.723 202.081 143.392 204.143 143.392 206.404V210.397H165.618H187.844V206.404C187.844 204.143 187.513 202.081 187.082 201.651C185.991 200.562 145.245 200.562 144.154 201.651ZM143.392 237.017V259.834H165.618H187.844V237.017V214.2H165.618H143.392V237.017ZM150.601 220.872C149.919 222.645 151.308 223.135 156.471 222.943C161.005 222.775 161.49 222.633 161.49 221.489C161.49 220.338 161.005 220.204 156.241 220.037C151.893 219.884 150.926 220.027 150.601 220.872ZM169.68 220.799C168.977 222.625 170.134 223.073 175.543 223.073C180.784 223.073 180.94 223.03 180.744 221.647C180.555 220.317 180.187 220.208 175.292 220.037C171.103 219.89 169.97 220.044 169.68 220.799ZM150.608 230.996C149.743 233.243 150.818 233.848 155.678 233.848C160.586 233.848 162.348 232.999 161.581 231.004C161.048 229.617 151.14 229.61 150.608 230.996ZM169.812 231.052C168.993 233.181 170.608 233.909 175.718 233.714C180.391 233.537 180.541 233.482 180.541 231.947C180.541 230.401 180.413 230.358 175.38 230.18C171.042 230.026 170.153 230.165 169.812 231.052ZM78.1126 237.778C77.5436 238.346 77.3506 245.483 77.3506 265.987V293.435L121.961 293.272L166.571 293.109L166.746 283.444L166.921 273.778H156.204C149.999 273.778 144.637 273.482 143.468 273.076C139.829 271.81 139.582 270.528 139.582 252.894V237.017H109.228C86.4669 237.017 78.6841 237.207 78.1126 237.778ZM150.608 241.137C149.726 243.431 150.8 243.989 156.093 243.989C160.078 243.989 161.295 243.777 161.581 243.03C162.348 241.035 160.586 240.186 155.678 240.186C152.081 240.186 150.887 240.41 150.608 241.137ZM170.084 241.112C169.426 241.904 169.426 242.271 170.084 243.063C170.712 243.818 171.986 243.997 175.718 243.855C180.391 243.678 180.541 243.623 180.541 242.088C180.541 240.553 180.391 240.497 175.718 240.32C171.986 240.178 170.712 240.357 170.084 241.112ZM85.3708 245.415C84.7479 247.736 84.9181 260.247 85.5969 262.029L86.2224 263.672L95.2809 263.496L104.339 263.32L104.514 253.655L104.689 243.989H95.2219C85.9398 243.989 85.7461 244.017 85.3708 245.415ZM113.141 246.841C112.94 247.364 112.943 248.227 113.148 248.76C113.462 249.577 114.929 249.701 122.575 249.553C130.855 249.392 131.648 249.274 131.858 248.185C131.984 247.53 131.702 246.749 131.231 246.451C130.76 246.154 126.579 245.906 121.941 245.9C115.024 245.892 113.441 246.062 113.141 246.841ZM88.7809 253.813V259.834H95.1311H101.481V253.813V247.792H95.1311H88.7809V253.813ZM150.608 251.278C149.728 253.565 150.803 254.13 156.036 254.13C161.287 254.13 162.166 253.721 161.489 251.589C161.132 250.468 160.522 250.327 156.03 250.327C152.121 250.327 150.89 250.543 150.608 251.278ZM170.151 251.173C169.741 251.665 169.589 252.543 169.812 253.124C170.153 254.01 171.042 254.15 175.38 253.996C180.413 253.818 180.541 253.774 180.541 252.229C180.541 250.693 180.391 250.638 175.718 250.461C172.161 250.325 170.7 250.512 170.151 251.173ZM113.643 257.86C113.172 258.158 112.89 258.938 113.016 259.593C113.225 260.683 114.018 260.8 122.299 260.961C129.976 261.11 131.411 260.988 131.729 260.161C132.622 257.838 130.878 257.298 122.518 257.309C118.107 257.314 114.114 257.562 113.643 257.86ZM143.402 266.014C143.408 267.322 143.641 268.751 143.921 269.192C144.319 269.817 149.162 269.956 165.978 269.826L187.526 269.658L187.72 266.648L187.914 263.637H165.653H143.392L143.402 266.014ZM85.8357 272.194C85.6344 272.717 85.6356 273.576 85.8382 274.103C86.1595 274.939 89.1289 275.041 108.917 274.896C130.569 274.736 131.638 274.673 131.857 273.537C131.984 272.882 131.702 272.102 131.231 271.804C130.76 271.506 120.435 271.258 108.288 271.252C89.2349 271.244 86.1506 271.373 85.8357 272.194ZM86.3996 283.071C85.9633 283.247 85.6058 284.083 85.6058 284.928V286.464L121.952 286.301C156.951 286.144 158.307 286.093 158.528 284.946C158.655 284.291 158.373 283.51 157.901 283.212C157.009 282.648 87.7903 282.511 86.3996 283.071ZM72.273 299.923C72.2742 301.505 72.8038 303.482 73.557 304.714C76.0469 308.791 74.7197 308.69 122.933 308.496C165.027 308.327 166.635 308.277 168.403 307.082C170.555 305.628 171.968 302.61 171.968 299.468V297.229H122.119H72.2704L72.273 299.923ZM116.31 302C115.622 303.79 117.028 304.26 122.496 304.07C127.349 303.901 127.835 303.769 127.835 302.617C127.835 301.459 127.35 301.333 122.268 301.166C117.63 301.013 116.635 301.152 116.31 302Z" fill="#5632CF"/>
<path fill-rule="evenodd" clip-rule="evenodd" d="M460.927 239.782C451.772 240.537 444.483 243.94 439.94 249.581C437.764 252.283 435.827 256.26 434.903 259.927C434.014 263.45 433.527 267.985 433.709 271.037L433.846 273.343L432.986 273.875C432.512 274.168 431.795 274.983 431.391 275.687L430.657 276.967L430.66 281.821C430.664 287.25 430.823 287.94 432.426 289.461C433.896 290.857 434.654 291.029 439.298 291.029H443.481L443.923 292.744C444.861 296.387 447.436 300.424 450.817 303.555L452.561 305.171L452.493 309.593L452.425 314.016L446.08 315.795C442.59 316.773 437.215 318.279 434.136 319.14C426.036 321.406 423.61 322.811 420.963 326.769C418.948 329.783 418.662 331.08 417.115 344.259C416.09 352.995 415.825 355.94 416.023 356.375C416.6 357.643 418.674 357.678 419.202 356.429C419.334 356.118 420.004 350.936 420.692 344.913C421.996 333.505 422.279 331.894 423.351 329.777C424.154 328.192 426.635 325.711 428.288 324.839C429.435 324.235 442.264 320.463 442.447 320.677C442.492 320.729 444.797 324.187 447.57 328.362C450.343 332.537 452.841 336.205 453.122 336.513C454.182 337.678 454.817 337.379 459.403 333.557L463.622 330.042L463.689 336.778L463.755 343.514L464.407 344.027C465.229 344.674 465.749 344.674 466.571 344.027L467.223 343.514L467.289 336.778L467.355 330.042L471.574 333.557C475.029 336.436 475.935 337.073 476.574 337.073C477.006 337.073 477.527 336.878 477.739 336.637C477.949 336.398 480.387 332.786 483.156 328.611C485.925 324.436 488.282 320.921 488.394 320.799C488.674 320.497 501.131 324.018 502.689 324.839C504.342 325.711 506.823 328.192 507.626 329.777C508.698 331.894 508.981 333.505 510.285 344.913C510.973 350.936 511.644 356.118 511.775 356.429C512.305 357.683 514.378 357.642 514.959 356.365C515.36 355.485 512.731 333.455 511.898 330.715C511.263 328.627 509.975 326.391 508.404 324.652C507.35 323.486 504.666 321.632 503.157 321.029C502.594 320.803 496.827 319.126 490.342 317.302L478.552 313.986L478.484 309.578L478.416 305.171L480.161 303.555C483.542 300.424 486.116 296.387 487.054 292.744L487.496 291.029H491.679C496.324 291.029 497.081 290.857 498.551 289.461C500.154 287.94 500.314 287.25 500.317 281.821L500.32 276.967L499.586 275.687C499.183 274.983 498.467 274.169 497.995 273.877L497.138 273.347L497.269 270.927C497.581 265.178 496.223 258.615 493.705 253.697C488.468 243.471 476.711 238.48 460.927 239.782ZM459.165 243.631C452.441 244.547 446.488 247.443 443.139 251.428C439.22 256.092 437.233 262.456 437.419 269.75L437.495 272.736H438.366H439.237L439.426 269.904C440.154 258.957 444.342 251.423 451.696 247.826C455.382 246.023 458.055 245.453 463.537 245.3C466.488 245.218 468.935 245.278 470.255 245.465C482.699 247.232 489.055 254.809 490.448 269.538L490.751 272.736H492.116H493.482L493.558 269.75C493.743 262.484 491.742 256.073 487.838 251.428C485.413 248.541 480.994 245.864 476.595 244.616C471.97 243.303 464.62 242.888 459.165 243.631ZM460.636 249.003C450.88 250.243 445.198 256.005 443.494 266.39C443.019 269.285 442.877 272.458 443.218 272.567C443.355 272.611 443.668 271.89 443.913 270.964C444.784 267.675 446.534 265.357 449.027 264.187C450.278 263.601 450.711 263.531 452.923 263.56C455.669 263.596 457.122 263.959 460.885 265.553C462.951 266.427 463.308 266.501 465.489 266.501C467.669 266.501 468.027 266.427 470.092 265.553C473.856 263.959 475.309 263.596 478.055 263.56C480.27 263.531 480.698 263.601 481.96 264.192C483.734 265.024 485.363 266.633 486.215 268.394C486.986 269.99 486.998 269.935 486.519 267.012C485.964 263.624 485.247 261.285 483.963 258.674C481.809 254.292 477.818 251.056 472.939 249.736C469.377 248.772 464.667 248.491 460.636 249.003ZM450.434 267.528C449.241 268.149 448.666 268.815 447.909 270.454L447.2 271.99L447.118 281.074C447.06 287.466 447.123 290.564 447.332 291.527C448.253 295.771 452.22 300.658 457.713 304.316C462.161 307.278 464.985 308.148 467.509 307.335C471.811 305.949 477.991 301.313 480.819 297.349C481.999 295.696 483.552 292.587 483.316 292.351C483.235 292.27 481.683 292.763 479.868 293.446L476.567 294.687L476.394 295.701C475.76 299.414 471.961 301.307 468.552 299.608C464.608 297.642 464.636 291.948 468.599 289.968C470.455 289.041 472.763 289.293 474.494 290.614L475.339 291.259L479.558 289.675L483.778 288.091L483.852 280.912C483.935 272.909 483.787 271.611 482.56 269.561C481.51 267.808 480.309 267.145 478.179 267.143C476.281 267.142 474.729 267.521 472.332 268.57C467.261 270.79 463.716 270.79 458.646 268.57C457.688 268.151 456.344 267.658 455.66 267.475C453.956 267.02 451.361 267.046 450.434 267.528ZM434.863 277.073L434.136 277.8V281.661C434.136 283.784 434.243 285.804 434.374 286.148C434.812 287.301 435.746 287.545 439.722 287.545H443.343V281.945V276.345H439.467H435.591L434.863 277.073ZM487.635 281.945V287.545H491.255C495.231 287.545 496.165 287.301 496.603 286.148C496.734 285.804 496.841 283.784 496.841 281.661V277.8L496.114 277.073L495.387 276.345H491.511H487.635V281.945ZM469.719 293.518C468.978 294.259 469.055 295.591 469.877 296.238C470.769 296.94 471.366 296.886 472.226 296.026C473.086 295.166 473.14 294.569 472.438 293.676C471.792 292.854 470.46 292.777 469.719 293.518ZM456.282 311.129V314.305L460.885 318.904L465.489 323.504L470.092 318.904L474.695 314.305V311.129C474.695 309.383 474.643 307.954 474.58 307.954C474.516 307.954 473.948 308.281 473.317 308.681C471.748 309.676 469.421 310.578 467.276 311.022C465.752 311.337 465.25 311.344 463.931 311.066C461.891 310.636 459.229 309.619 457.729 308.695C457.066 308.287 456.469 307.954 456.403 307.954C456.336 307.954 456.282 309.383 456.282 311.129ZM449.875 318.461C447.924 319.016 446.329 319.568 446.329 319.688C446.329 319.809 448.237 322.766 450.568 326.261L454.808 332.614L455.371 332.168C455.681 331.923 457.474 330.441 459.356 328.875L462.777 326.028L458.474 321.72C456.108 319.35 454.003 317.421 453.796 317.432C453.59 317.444 451.825 317.907 449.875 318.461ZM472.503 321.72L468.201 326.028L471.622 328.875C473.503 330.441 475.296 331.923 475.606 332.168L476.17 332.614L480.409 326.261C482.741 322.766 484.649 319.807 484.649 319.684C484.649 319.487 477.698 317.405 477.057 317.409C476.918 317.41 474.869 319.35 472.503 321.72ZM464.245 348.771C463.793 349.222 463.747 349.6 463.747 352.859C463.747 356.442 463.748 356.451 464.403 356.966C464.763 357.249 465.252 357.482 465.489 357.482C465.726 357.482 466.214 357.249 466.575 356.966C467.229 356.451 467.231 356.442 467.231 352.859C467.231 349.6 467.184 349.222 466.733 348.771C466.456 348.494 465.904 348.273 465.489 348.273C465.074 348.273 464.521 348.494 464.245 348.771Z" fill="white"/>
<path fill-rule="evenodd" clip-rule="evenodd" d="M460.927 239.782C451.772 240.537 444.483 243.94 439.94 249.581C437.764 252.283 435.827 256.26 434.903 259.927C434.014 263.45 433.527 267.985 433.709 271.037L433.846 273.343L432.986 273.875C432.512 274.168 431.795 274.983 431.391 275.687L430.657 276.967L430.66 281.821C430.664 287.25 430.823 287.94 432.426 289.461C433.896 290.857 434.654 291.029 439.298 291.029H443.481L443.923 292.744C444.861 296.387 447.436 300.424 450.817 303.555L452.561 305.171L452.493 309.593L452.425 314.016L446.08 315.795C442.59 316.773 437.215 318.279 434.136 319.14C426.036 321.406 423.61 322.811 420.963 326.769C418.948 329.783 418.662 331.08 417.115 344.259C416.09 352.995 415.825 355.94 416.023 356.375C416.6 357.643 418.674 357.678 419.202 356.429C419.334 356.118 420.004 350.936 420.692 344.913C421.996 333.505 422.279 331.894 423.351 329.777C424.154 328.192 426.635 325.711 428.288 324.839C429.435 324.235 442.264 320.463 442.447 320.677C442.492 320.729 444.797 324.187 447.57 328.362C450.343 332.537 452.841 336.205 453.122 336.513C454.182 337.678 454.817 337.379 459.403 333.557L463.622 330.042L463.689 336.778L463.755 343.514L464.407 344.027C465.229 344.674 465.749 344.674 466.571 344.027L467.223 343.514L467.289 336.778L467.355 330.042L471.574 333.557C475.029 336.436 475.935 337.073 476.574 337.073C477.006 337.073 477.527 336.878 477.739 336.637C477.949 336.398 480.387 332.786 483.156 328.611C485.925 324.436 488.282 320.921 488.394 320.799C488.674 320.497 501.131 324.018 502.689 324.839C504.342 325.711 506.823 328.192 507.626 329.777C508.698 331.894 508.981 333.505 510.285 344.913C510.973 350.936 511.644 356.118 511.775 356.429C512.305 357.683 514.378 357.642 514.959 356.365C515.36 355.485 512.731 333.455 511.898 330.715C511.263 328.627 509.975 326.391 508.404 324.652C507.35 323.486 504.666 321.632 503.157 321.029C502.594 320.803 496.827 319.126 490.342 317.302L478.552 313.986L478.484 309.578L478.416 305.171L480.161 303.555C483.542 300.424 486.116 296.387 487.054 292.744L487.496 291.029H491.679C496.324 291.029 497.081 290.857 498.551 289.461C500.154 287.94 500.314 287.25 500.317 281.821L500.32 276.967L499.586 275.687C499.183 274.983 498.467 274.169 497.995 273.877L497.138 273.347L497.269 270.927C497.581 265.178 496.223 258.615 493.705 253.697C488.468 243.471 476.711 238.48 460.927 239.782ZM459.165 243.631C452.441 244.547 446.488 247.443 443.139 251.428C439.22 256.092 437.233 262.456 437.419 269.75L437.495 272.736H438.366H439.237L439.426 269.904C440.154 258.957 444.342 251.423 451.696 247.826C455.382 246.023 458.055 245.453 463.537 245.3C466.488 245.218 468.935 245.278 470.255 245.465C482.699 247.232 489.055 254.809 490.448 269.538L490.751 272.736H492.116H493.482L493.558 269.75C493.743 262.484 491.742 256.073 487.838 251.428C485.413 248.541 480.994 245.864 476.595 244.616C471.97 243.303 464.62 242.888 459.165 243.631ZM460.636 249.003C450.88 250.243 445.198 256.005 443.494 266.39C443.019 269.285 442.877 272.458 443.218 272.567C443.355 272.611 443.668 271.89 443.913 270.964C444.784 267.675 446.534 265.357 449.027 264.187C450.278 263.601 450.711 263.531 452.923 263.56C455.669 263.596 457.122 263.959 460.885 265.553C462.951 266.427 463.308 266.501 465.489 266.501C467.669 266.501 468.027 266.427 470.092 265.553C473.856 263.959 475.309 263.596 478.055 263.56C480.27 263.531 480.698 263.601 481.96 264.192C483.734 265.024 485.363 266.633 486.215 268.394C486.986 269.99 486.998 269.935 486.519 267.012C485.964 263.624 485.247 261.285 483.963 258.674C481.809 254.292 477.818 251.056 472.939 249.736C469.377 248.772 464.667 248.491 460.636 249.003ZM450.434 267.528C449.241 268.149 448.666 268.815 447.909 270.454L447.2 271.99L447.118 281.074C447.06 287.466 447.123 290.564 447.332 291.527C448.253 295.771 452.22 300.658 457.713 304.316C462.161 307.278 464.985 308.148 467.509 307.335C471.811 305.949 477.991 301.313 480.819 297.349C481.999 295.696 483.552 292.587 483.316 292.351C483.235 292.27 481.683 292.763 479.868 293.446L476.567 294.687L476.394 295.701C475.76 299.414 471.961 301.307 468.552 299.608C464.608 297.642 464.636 291.948 468.599 289.968C470.455 289.041 472.763 289.293 474.494 290.614L475.339 291.259L479.558 289.675L483.778 288.091L483.852 280.912C483.935 272.909 483.787 271.611 482.56 269.561C481.51 267.808 480.309 267.145 478.179 267.143C476.281 267.142 474.729 267.521 472.332 268.57C467.261 270.79 463.716 270.79 458.646 268.57C457.688 268.151 456.344 267.658 455.66 267.475C453.956 267.02 451.361 267.046 450.434 267.528ZM434.863 277.073L434.136 277.8V281.661C434.136 283.784 434.243 285.804 434.374 286.148C434.812 287.301 435.746 287.545 439.722 287.545H443.343V281.945V276.345H439.467H435.591L434.863 277.073ZM487.635 281.945V287.545H491.255C495.231 287.545 496.165 287.301 496.603 286.148C496.734 285.804 496.841 283.784 496.841 281.661V277.8L496.114 277.073L495.387 276.345H491.511H487.635V281.945ZM469.719 293.518C468.978 294.259 469.055 295.591 469.877 296.238C470.769 296.94 471.366 296.886 472.226 296.026C473.086 295.166 473.14 294.569 472.438 293.676C471.792 292.854 470.46 292.777 469.719 293.518ZM456.282 311.129V314.305L460.885 318.904L465.489 323.504L470.092 318.904L474.695 314.305V311.129C474.695 309.383 474.643 307.954 474.58 307.954C474.516 307.954 473.948 308.281 473.317 308.681C471.748 309.676 469.421 310.578 467.276 311.022C465.752 311.337 465.25 311.344 463.931 311.066C461.891 310.636 459.229 309.619 457.729 308.695C457.066 308.287 456.469 307.954 456.403 307.954C456.336 307.954 456.282 309.383 456.282 311.129ZM449.875 318.461C447.924 319.016 446.329 319.568 446.329 319.688C446.329 319.809 448.237 322.766 450.568 326.261L454.808 332.614L455.371 332.168C455.681 331.923 457.474 330.441 459.356 328.875L462.777 326.028L458.474 321.72C456.108 319.35 454.003 317.421 453.796 317.432C453.59 317.444 451.825 317.907 449.875 318.461ZM472.503 321.72L468.201 326.028L471.622 328.875C473.503 330.441 475.296 331.923 475.606 332.168L476.17 332.614L480.409 326.261C482.741 322.766 484.649 319.807 484.649 319.684C484.649 319.487 477.698 317.405 477.057 317.409C476.918 317.41 474.869 319.35 472.503 321.72ZM464.245 348.771C463.793 349.222 463.747 349.6 463.747 352.859C463.747 356.442 463.748 356.451 464.403 356.966C464.763 357.249 465.252 357.482 465.489 357.482C465.726 357.482 466.214 357.249 466.575 356.966C467.229 356.451 467.231 356.442 467.231 352.859C467.231 349.6 467.184 349.222 466.733 348.771C466.456 348.494 465.904 348.273 465.489 348.273C465.074 348.273 464.521 348.494 464.245 348.771Z" fill="#5632CF"/>
</svg>
