<?xml version="1.0" encoding="UTF-8"?><svg id="Layer_2" xmlns="http://www.w3.org/2000/svg" viewBox="0 0 436 349"><defs><style>.cls-1{fill:#5632cf;stroke-width:0px;}</style></defs><g id="Layer_1-2"><rect class="cls-1" x="44" y="111" width="18" height="18"/><rect class="cls-1" x="44" y="133" width="18" height="18"/><rect class="cls-1" x="44" y="155" width="18" height="18"/><rect class="cls-1" x="44" y="177" width="18" height="18"/><rect class="cls-1" x="44" y="199" width="18" height="18"/><rect class="cls-1" x="22" width="18" height="18"/><rect class="cls-1" x="22" y="22" width="18" height="18"/><rect class="cls-1" x="66" y="67" width="18" height="18"/><rect class="cls-1" x="66" y="89" width="18" height="18"/><rect class="cls-1" x="66" y="111" width="18" height="18"/><rect class="cls-1" x="66" y="133" width="18" height="18"/><rect class="cls-1" x="66" y="155" width="18" height="18"/><rect class="cls-1" x="66" y="177" width="18" height="18"/><rect class="cls-1" x="66" y="199" width="18" height="18"/><rect class="cls-1" x="66" y="221" width="18" height="18"/><rect class="cls-1" x="44" width="18" height="18"/><rect class="cls-1" x="44" y="22" width="18" height="18"/><rect class="cls-1" x="88" y="67" width="18" height="18"/><rect class="cls-1" x="88" y="89" width="18" height="18"/><rect class="cls-1" x="88" y="111" width="18" height="18"/><rect class="cls-1" x="88" y="133" width="18" height="18"/><rect class="cls-1" x="88" y="155" width="18" height="18"/><rect class="cls-1" x="88" y="177" width="18" height="18"/><rect class="cls-1" x="88" y="199" width="18" height="18"/><rect class="cls-1" x="88" y="221" width="18" height="18"/><rect class="cls-1" x="110" y="67" width="18" height="18"/><rect class="cls-1" x="110" y="89" width="18" height="18"/><rect class="cls-1" x="110" y="111" width="18" height="18"/><rect class="cls-1" x="110" y="133" width="18" height="18"/><rect class="cls-1" x="110" y="155" width="18" height="18"/><rect class="cls-1" x="110" y="177" width="18" height="18"/><rect class="cls-1" x="110" y="199" width="18" height="18"/><rect class="cls-1" x="110" y="221" width="18" height="18"/><rect class="cls-1" x="110" y="243" width="18" height="18"/><rect class="cls-1" x="132" y="89" width="18" height="18"/><rect class="cls-1" x="132" y="111" width="18" height="18"/><rect class="cls-1" x="132" y="133" width="18" height="18"/><rect class="cls-1" x="132" y="155" width="18" height="18"/><rect class="cls-1" x="132" y="177" width="18" height="18"/><rect class="cls-1" x="132" y="199" width="18" height="18"/><rect class="cls-1" x="132" y="221" width="18" height="18"/><rect class="cls-1" x="132" y="243" width="18" height="18"/><rect class="cls-1" x="154" y="89" width="18" height="18"/><rect class="cls-1" x="154" y="111" width="18" height="18"/><rect class="cls-1" x="154" y="133" width="18" height="18"/><rect class="cls-1" x="154" y="155" width="18" height="18"/><rect class="cls-1" x="154" y="177" width="18" height="18"/><rect class="cls-1" x="154" y="199" width="18" height="18"/><rect class="cls-1" x="154" y="221" width="18" height="18"/><rect class="cls-1" x="154" y="243" width="18" height="18"/><rect class="cls-1" x="154" y="265" width="18" height="18"/><rect class="cls-1" x="176" y="89" width="18" height="18"/><rect class="cls-1" x="176" y="111" width="18" height="18"/><rect class="cls-1" x="176" y="133" width="18" height="18"/><rect class="cls-1" x="176" y="155" width="18" height="18"/><rect class="cls-1" x="176" y="177" width="18" height="18"/><rect class="cls-1" x="176" y="199" width="18" height="18"/><rect class="cls-1" x="176" y="221" width="18" height="18"/><rect class="cls-1" x="176" y="243" width="18" height="18"/><rect class="cls-1" x="176" y="265" width="18" height="18"/><rect class="cls-1" x="198" y="89" width="18" height="18"/><rect class="cls-1" x="198" y="111" width="18" height="18"/><rect class="cls-1" x="198" y="133" width="18" height="18"/><rect class="cls-1" x="198" y="155" width="18" height="18"/><rect class="cls-1" x="198" y="177" width="18" height="18"/><rect class="cls-1" x="198" y="199" width="18" height="18"/><rect class="cls-1" x="198" y="221" width="18" height="18"/><rect class="cls-1" x="198" y="243" width="18" height="18"/><rect class="cls-1" x="198" y="265" width="18" height="18"/><rect class="cls-1" x="198" y="287" width="18" height="18"/><rect class="cls-1" x="198" y="309" width="18" height="18"/><rect class="cls-1" x="220" y="89" width="18" height="18"/><rect class="cls-1" x="220" y="111" width="18" height="18"/><rect class="cls-1" x="220" y="133" width="18" height="18"/><rect class="cls-1" x="220" y="155" width="18" height="18"/><rect class="cls-1" x="220" y="177" width="18" height="18"/><rect class="cls-1" x="220" y="199" width="18" height="18"/><rect class="cls-1" x="220" y="221" width="18" height="18"/><rect class="cls-1" x="220" y="243" width="18" height="18"/><rect class="cls-1" x="220" y="265" width="18" height="18"/><rect class="cls-1" x="220" y="287" width="18" height="18"/><rect class="cls-1" x="242" y="89" width="18" height="18"/><rect class="cls-1" x="242" y="111" width="18" height="18"/><rect class="cls-1" x="242" y="133" width="18" height="18"/><rect class="cls-1" x="242" y="155" width="18" height="18"/><rect class="cls-1" x="242" y="177" width="18" height="18"/><rect class="cls-1" x="242" y="199" width="18" height="18"/><rect class="cls-1" x="242" y="221" width="18" height="18"/><rect class="cls-1" x="242" y="243" width="18" height="18"/><rect class="cls-1" x="242" y="265" width="18" height="18"/><rect class="cls-1" x="264" y="111" width="18" height="18"/><rect class="cls-1" x="264" y="133" width="18" height="18"/><rect class="cls-1" x="264" y="155" width="18" height="18"/><rect class="cls-1" x="264" y="177" width="18" height="18"/><rect class="cls-1" x="264" y="199" width="18" height="18"/><rect class="cls-1" x="264" y="221" width="18" height="18"/><rect class="cls-1" x="264" y="243" width="18" height="18"/><rect class="cls-1" x="264" y="265" width="18" height="18"/><rect class="cls-1" x="286" y="111" width="18" height="18"/><rect class="cls-1" x="286" y="155" width="18" height="18"/><rect class="cls-1" x="286" y="177" width="18" height="18"/><rect class="cls-1" x="286" y="199" width="18" height="18"/><rect class="cls-1" x="286" y="221" width="18" height="18"/><rect class="cls-1" x="286" y="243" width="18" height="18"/><rect class="cls-1" x="308" y="133" width="18" height="18"/><rect class="cls-1" x="308" y="155" width="18" height="18"/><rect class="cls-1" x="308" y="177" width="18" height="18"/><rect class="cls-1" x="308" y="199" width="18" height="18"/><rect class="cls-1" x="308" y="221" width="18" height="18"/><rect class="cls-1" x="308" y="243" width="18" height="18"/><rect class="cls-1" x="330" y="155" width="18" height="18"/><rect class="cls-1" x="330" y="177" width="18" height="18"/><rect class="cls-1" x="330" y="199" width="18" height="18"/><rect class="cls-1" x="330" y="221" width="18" height="18"/><rect class="cls-1" x="330" y="243" width="18" height="18"/><rect class="cls-1" x="330" y="265" width="18" height="18"/><rect class="cls-1" x="352" y="133" width="18" height="18"/><rect class="cls-1" x="352" y="155" width="18" height="18"/><rect class="cls-1" x="352" y="177" width="18" height="18"/><rect class="cls-1" x="352" y="199" width="18" height="18"/><rect class="cls-1" x="352" y="221" width="18" height="18"/><rect class="cls-1" x="352" y="265" width="18" height="18"/><rect class="cls-1" x="352" y="287" width="18" height="18"/><rect class="cls-1" x="418" y="331" width="18" height="18"/><rect class="cls-1" x="22" y="331" width="18" height="18"/><rect class="cls-1" y="331" width="18" height="18"/><rect class="cls-1" x="374" y="111" width="18" height="18"/><rect class="cls-1" x="374" y="133" width="18" height="18"/><rect class="cls-1" x="374" y="155" width="18" height="18"/><rect class="cls-1" x="374" y="177" width="18" height="18"/><rect class="cls-1" x="374" y="199" width="18" height="18"/><rect class="cls-1" x="396" y="89" width="18" height="18"/><rect class="cls-1" x="396" y="111" width="18" height="18"/></g></svg>