<svg width="557" height="192" viewBox="0 0 557 192" fill="none" xmlns="http://www.w3.org/2000/svg">
<path d="M6.5 6.2915C67.1679 71.3949 122.433 33.4891 142.529 6.34775M142.529 6.34775C142.543 6.32899 142.557 6.31025 142.571 6.2915M142.529 6.34775C142.511 6.32901 142.494 6.31026 142.476 6.2915M142.529 6.34775C203.176 71.373 258.415 33.4813 278.505 6.34775M278.505 6.34775C278.519 6.329 278.533 6.31025 278.547 6.2915M278.505 6.34775C278.488 6.32901 278.47 6.31026 278.453 6.2915M278.505 6.34775C339.153 71.373 394.392 33.4812 414.482 6.34774M414.482 6.34774C414.496 6.32899 414.51 6.31024 414.524 6.2915M414.482 6.34774C414.464 6.329 414.447 6.31026 414.429 6.2915M414.482 6.34774C475.171 71.418 530.445 33.4288 550.5 6.2915M6.5 77.7261C67.1679 142.829 122.433 104.924 142.529 77.7824M142.529 77.7824C142.543 77.7636 142.557 77.7449 142.571 77.7261M142.529 77.7824C142.511 77.7636 142.494 77.7449 142.476 77.7261M142.529 77.7824C203.176 142.808 258.415 104.916 278.505 77.7824M278.505 77.7824C278.519 77.7636 278.533 77.7449 278.547 77.7261M278.505 77.7824C278.488 77.7636 278.47 77.7449 278.453 77.7261M278.505 77.7824C339.153 142.808 394.392 104.916 414.482 77.7824M414.482 77.7824C414.496 77.7636 414.51 77.7449 414.524 77.7261M414.482 77.7824C414.464 77.7636 414.447 77.7449 414.429 77.7261M414.482 77.7824C475.171 142.853 530.445 104.863 550.5 77.7261M6.5 149.161C67.1679 214.264 122.433 176.358 142.529 149.217M142.529 149.217C142.543 149.198 142.557 149.179 142.571 149.161M142.529 149.217C142.511 149.198 142.494 149.18 142.476 149.161M142.529 149.217C203.176 214.242 258.415 176.351 278.505 149.217M278.505 149.217C278.519 149.198 278.533 149.179 278.547 149.161M278.505 149.217C278.488 149.198 278.47 149.18 278.453 149.161M278.505 149.217C339.153 214.242 394.392 176.35 414.482 149.217M414.482 149.217C414.496 149.198 414.51 149.179 414.524 149.161M414.482 149.217C414.464 149.198 414.447 149.18 414.429 149.161M414.482 149.217C475.171 214.287 530.445 176.298 550.5 149.161" stroke="url(#paint0_linear_1312_1589)" stroke-width="12" stroke-linecap="round"/>
<defs>
<linearGradient id="paint0_linear_1312_1589" x1="6.5" y1="95.712" x2="550.5" y2="95.712" gradientUnits="userSpaceOnUse">
<stop stop-color="#683587"/>
<stop offset="1" stop-color="#3FF0F0"/>
</linearGradient>
</defs>
</svg>
