<svg xmlns="http://www.w3.org/2000/svg" width="528" height="337" fill="none" xmlns:v="https://vecta.io/nano"><g stroke-width="3"><path d="M284.024 143.33C284.024 221.209 220.891 284.342 143.012 284.342C65.1332 284.342 2 221.209 2 143.33C2 65.4515 65.1332 2.31836 143.012 2.31836C220.891 2.31836 284.024 65.4515 284.024 143.33Z" stroke="url(#A)"/><path d="M269.922 143.33C269.922 213.421 213.103 270.241 143.012 270.241C72.921 270.241 16.1012 213.421 16.1012 143.33C16.1012 73.2393 72.921 16.4195 143.012 16.4195C213.103 16.4195 269.922 73.2393 269.922 143.33Z" stroke="url(#A)"/><path d="M255.821 143.33C255.821 205.633 205.315 256.139 143.012 256.139C80.7089 256.139 30.2024 205.633 30.2024 143.33C30.2024 81.0272 80.7089 30.5207 143.012 30.5207C205.315 30.5207 255.821 81.0272 255.821 143.33Z" stroke="url(#A)"/><path d="M241.72 143.33C241.72 197.845 197.527 242.038 143.012 242.038C88.4968 242.038 44.3036 197.845 44.3036 143.33C44.3036 88.8151 88.4968 44.6219 143.012 44.6219C197.527 44.6219 241.72 88.8151 241.72 143.33Z" stroke="url(#A)"/><path d="M227.619 143.33C227.619 190.057 189.739 227.937 143.012 227.937C96.2846 227.937 58.4047 190.057 58.4047 143.33C58.4047 96.6029 96.2846 58.7231 143.012 58.7231C189.739 58.7231 227.619 96.6029 227.619 143.33Z" stroke="url(#A)"/><path d="M213.518 143.33C213.518 182.269 181.951 213.836 143.012 213.836C104.072 213.836 72.5059 182.269 72.5059 143.33C72.5059 104.391 104.072 72.8242 143.012 72.8242C181.951 72.8242 213.518 104.391 213.518 143.33Z" stroke="url(#A)"/><path d="M199.417 143.33C199.417 174.482 174.163 199.735 143.012 199.735C111.86 199.735 86.6071 174.482 86.6071 143.33C86.6071 112.179 111.86 86.9254 143.012 86.9254C174.163 86.9254 199.417 112.179 199.417 143.33Z" stroke="url(#A)"/><path d="M185.315 143.33C185.315 166.694 166.375 185.634 143.012 185.634C119.648 185.634 100.708 166.694 100.708 143.33C100.708 119.967 119.648 101.027 143.012 101.027C166.375 101.027 185.315 119.967 185.315 143.33Z" stroke="url(#A)"/><path d="M447.597 224.553C447.597 285.61 397.091 335.106 334.788 335.106C272.485 335.106 221.978 285.61 221.978 224.553C221.978 163.496 272.485 114 334.788 114C397.091 114 447.597 163.496 447.597 224.553Z" stroke="url(#A)"/><path d="M436.316 224.553C436.316 279.504 390.861 324.051 334.788 324.051C278.715 324.051 233.259 279.504 233.259 224.553C233.259 169.602 278.715 125.055 334.788 125.055C390.861 125.055 436.316 169.602 436.316 224.553Z" stroke="url(#A)"/><path d="M425.035 224.553C425.035 273.398 384.63 312.995 334.788 312.995C284.946 312.995 244.54 273.398 244.54 224.553C244.54 175.707 284.946 136.11 334.788 136.11C384.63 136.11 425.035 175.707 425.035 224.553Z" stroke="url(#A)"/><path d="M413.755 224.553C413.755 267.293 378.4 301.94 334.788 301.94C291.176 301.94 255.821 267.293 255.821 224.553C255.821 181.813 291.176 147.166 334.788 147.166C378.4 147.166 413.755 181.813 413.755 224.553Z" stroke="url(#A)"/><path d="M402.474 224.553C402.474 261.187 372.17 290.885 334.788 290.885C297.406 290.885 267.102 261.187 267.102 224.553C267.102 187.919 297.406 158.221 334.788 158.221C372.17 158.221 402.474 187.919 402.474 224.553Z" stroke="url(#A)"/><path d="M391.193 224.553C391.193 255.081 365.939 279.829 334.788 279.829C303.636 279.829 278.383 255.081 278.383 224.553C278.383 194.024 303.636 169.276 334.788 169.276C365.939 169.276 391.193 194.024 391.193 224.553Z" stroke="url(#A)"/><path d="M379.912 224.553C379.912 248.976 359.709 268.774 334.788 268.774C309.867 268.774 289.664 248.976 289.664 224.553C289.664 200.13 309.867 180.332 334.788 180.332C359.709 180.332 379.912 200.13 379.912 224.553Z" stroke="url(#A)"/><path d="M368.631 224.553C368.631 242.87 353.479 257.719 334.788 257.719C316.097 257.719 300.945 242.87 300.945 224.553C300.945 206.236 316.097 191.387 334.788 191.387C353.479 191.387 368.631 206.236 368.631 224.553Z" stroke="url(#A)"/><path d="M526 143.048C526 178.093 497.59 206.503 462.545 206.503C427.499 206.503 399.089 178.093 399.089 143.048C399.089 108.003 427.499 79.5928 462.545 79.5928C497.59 79.5928 526 108.003 526 143.048Z" stroke="url(#A)"/><path d="M519.654 143.048C519.654 174.589 494.086 200.158 462.545 200.158C431.004 200.158 405.435 174.589 405.435 143.048C405.435 111.507 431.004 85.9383 462.545 85.9383C494.086 85.9383 519.654 111.507 519.654 143.048Z" stroke="url(#A)"/><path d="M513.309 143.048C513.309 171.084 490.581 193.812 462.545 193.812C434.508 193.812 411.78 171.084 411.78 143.048C411.78 115.012 434.508 92.2838 462.545 92.2838C490.581 92.2838 513.309 115.012 513.309 143.048Z" stroke="url(#A)"/><path d="M506.963 143.048C506.963 167.58 487.076 187.467 462.545 187.467C438.013 187.467 418.126 167.58 418.126 143.048C418.126 118.516 438.013 98.6294 462.545 98.6294C487.076 98.6294 506.963 118.516 506.963 143.048Z" stroke="url(#A)"/><path d="M500.618 143.048C500.618 164.075 483.572 181.121 462.545 181.121C441.517 181.121 424.471 164.075 424.471 143.048C424.471 122.021 441.517 104.975 462.545 104.975C483.572 104.975 500.618 122.021 500.618 143.048Z" stroke="url(#A)"/><path d="M494.272 143.048C494.272 160.571 480.067 174.776 462.545 174.776C445.022 174.776 430.817 160.571 430.817 143.048C430.817 125.525 445.022 111.32 462.545 111.32C480.067 111.32 494.272 125.525 494.272 143.048Z" stroke="url(#A)"/><path d="M487.927 143.048C487.927 157.066 476.563 168.43 462.545 168.43C448.526 168.43 437.163 157.066 437.163 143.048C437.163 129.03 448.526 117.666 462.545 117.666C476.563 117.666 487.927 129.03 487.927 143.048Z" stroke="url(#A)"/><path d="M481.581 143.048C481.581 153.562 473.058 162.085 462.545 162.085C452.031 162.085 443.508 153.562 443.508 143.048C443.508 132.534 452.031 124.011 462.545 124.011C473.058 124.011 481.581 132.534 481.581 143.048Z" stroke="url(#A)"/></g><defs><linearGradient id="A" x1="2" y1="168.712" x2="526" y2="168.712" gradientUnits="userSpaceOnUse"><stop stop-color="#5632cf"/><stop offset="1" stop-color="#3ef6f6"/></linearGradient></defs></svg>