<svg width="525" height="98" viewBox="0 0 525 98" fill="none" xmlns="http://www.w3.org/2000/svg">
<path d="M3.00001 6.04854L54.8171 49.2295L3 92.4104L3.00001 6.04854ZM61.2222 92.4104L61.2222 6.04854L113.039 49.2295L61.2222 92.4104ZM119.444 92.4104L119.444 6.04854L171.262 49.2295L119.444 92.4104ZM177.667 92.4104V6.04854L229.484 49.2295L177.667 92.4104ZM235.889 92.4104V6.04854L287.706 49.2295L235.889 92.4104ZM294.111 92.4104V6.04854L345.928 49.2295L294.111 92.4104ZM352.333 92.4104V6.04854L404.15 49.2295L352.333 92.4104ZM410.556 92.4104V6.04854L462.373 49.2295L410.556 92.4104ZM468.778 6.04854L520.595 49.2295L468.778 92.4104V6.04854Z" stroke="url(#paint0_linear_1271_2422)" stroke-width="5" stroke-linejoin="bevel"/>
<defs>
<linearGradient id="paint0_linear_1271_2422" x1="0.5" y1="49.2295" x2="524.5" y2="49.2295" gradientUnits="userSpaceOnUse">
<stop stop-color="#5632CF"/>
<stop offset="1" stop-color="#3EF6F6"/>
</linearGradient>
</defs>
</svg>
